<?xml version="1.0" encoding="UTF-8"?><svg id="focusbear" xmlns="http://www.w3.org/2000/svg" viewBox="0 0 450 450"><defs><style>.cls-1{fill:#d32a28;}.cls-2{fill:#fff;}.cls-3{fill:#e98f2d;}.cls-4{fill:#ecb559;}</style></defs><circle cx="155.855" cy="130.065" r="38.59"/><circle class="cls-4" cx="155.855" cy="130.065" r="28.04"/><circle cx="294.145" cy="131.225" r="38.59"/><circle class="cls-4" cx="294.145" cy="131.225" r="28.04"/><path class="cls-4" d="M260.705,192.695c-5.23,0-9.48-4.25-9.48-9.48s4.25-9.44,9.48-9.44,9.44,4.25,9.44,9.44-4.25,9.48-9.44,9.48h0ZM188.665,173.775c5.23,0,9.48,4.25,9.48,9.44s-4.25,9.48-9.48,9.48-9.44-4.25-9.44-9.48,4.25-9.44,9.44-9.44ZM318.615,170.105c-1.05-3.12-2.29-6.21-3.67-9.19-.36-.87-.8-1.74-1.23-2.61-8.79-17.68-22.95-32.28-40.37-41.68-.65-.36-1.34-.73-2.03-1.05-3.09-1.6-6.28-3.01-9.55-4.25h-.04c-10.75-4.1-22.36-6.35-34.57-6.35s-24.62,2.4-35.62,6.75c-2.65,1.02-5.19,2.14-7.7,3.41-.76.36-1.49.73-2.25,1.16-16.85,8.93-30.72,22.69-39.68,39.47-.29.51-.55,1.02-.8,1.56-.94,1.81-1.81,3.67-2.61,5.55-4.97,11.47-7.73,24.11-7.73,37.4,0,52.64,43.17,95.31,96.4,95.31s96.4-42.66,96.4-95.31c0-10.53-1.74-20.7-4.94-30.17"/><path d="M224.975,265.955h-.08c-3.32-.05-5.97-2.77-5.92-6.09l.44-31.1c.05-3.32,2.84-5.92,6.09-5.92,3.32.05,5.97,2.77,5.92,6.09l-.44,31.1c-.05,3.29-2.73,5.92-6,5.92h-.01Z"/><path d="M245.985,212.235h-39.45c-3.32,0-6-2.69-6-6.01s2.69-6.01,6-6.01h39.45c3.32,0,6,2.69,6,6.01s-2.69,6.01-6,6.01Z"/><path d="M224.975,234.475c-1.72,0-3.44-.74-4.63-2.17l-18.44-22.23c-2.12-2.55-1.76-6.34.79-8.45,2.55-2.13,6.33-1.77,8.45.79l18.44,22.23c2.12,2.55,1.76,6.33-.79,8.45-1.12.93-2.48,1.39-3.83,1.39l.01-.01Z"/><path d="M227.535,234.475c-1.35,0-2.71-.45-3.83-1.39-2.55-2.12-2.91-5.9-.79-8.45l18.44-22.23c2.12-2.56,5.9-2.92,8.46-.79,2.55,2.12,2.91,5.9.79,8.45l-18.44,22.23c-1.19,1.43-2.9,2.17-4.63,2.17v.01Z"/><path d="M136.785,201.155c0-16.27,4.39-31.52,12.13-44.59v-.04c9.19-15.72,23.09-28.28,39.76-35.87,11.15-5.08,23.53-7.92,36.53-7.92,14.41,0,28.07,3.49,40.12,9.62,18.77,9.62,33.69,25.71,41.68,45.35,4.28,10.31,6.61,21.6,6.61,33.44,0,48.76-39.65,88.41-88.41,88.41s-88.41-39.65-88.41-88.41l-.01.01ZM320.315,169.095c-1.09-3.34-2.36-6.57-3.85-9.73-.44-1.05-.94-2.07-1.45-3.09-8.75-17.39-22.37-31.91-39.07-41.72-.69-.44-1.42-.87-2.11-1.23-3.09-1.74-6.32-3.3-9.58-4.68-12.02-5.08-25.23-7.92-39.07-7.92-12.56,0-24.58,2.32-35.65,6.57-3.23,1.2-6.35,2.58-9.4,4.14-.73.36-1.49.73-2.22,1.13-16.37,8.79-30.06,21.97-39.43,37.98-1.23,2.07-2.36,4.21-3.41,6.39h-.04c-.87,1.74-1.67,3.49-2.4,5.3-5.08,11.98-7.88,25.13-7.88,38.92,0,55.37,45.06,100.43,100.43,100.43s100.43-45.06,100.43-100.43c0-11.22-1.85-22-5.3-32.06h0Z"/><path d="M198.145,183.215c0,5.23-4.25,9.48-9.48,9.48s-9.44-4.25-9.44-9.48,4.25-9.44,9.44-9.44,9.48,4.25,9.48,9.44Z"/><path d="M260.705,192.695c-5.23,0-9.48-4.25-9.48-9.48s4.25-9.44,9.48-9.44,9.44,4.25,9.44,9.44-4.25,9.48-9.44,9.48h0Z"/><rect x="206.765" y="290.325" width="36.19" height="48.25"/><rect class="cls-3" x="206.765" y="298.355" width="36.19" height="32.2"/><path d="M155.635,358.525c-4.97,0-9-.18-9-5.15v-77.92c0-4.97,4.03-5.15,9-5.15,15.65,0,29.29,5.37,36.02,8.57,19.43,9.24,19.43,16.51,19.43,18.9v33.28c0,9.66-14.62,16.61-19.43,18.9-6.73,3.2-20.37,8.57-36.02,8.57Z"/><path class="cls-3" d="M155.635,279.305v35.11h0v35.11c23.82,0,46.45-14.37,46.45-18.47v-16.64h0v-16.64c0-4.09-22.64-18.47-46.45-18.47Z"/><path d="M184.645,309.635h18.57c2.563,0,4.64,2.077,4.64,4.64h0c0,2.563-2.077,4.64-4.64,4.64h-18.57c-2.563,0-4.64-2.077-4.64-4.64h0c0-2.563,2.077-4.64,4.64-4.64Z"/><path d="M294.085,270.305c4.97,0,9,.18,9,5.15v77.92c0,4.97-4.03,5.15-9,5.15-15.65,0-29.29-5.37-36.02-8.57-19.43-9.24-19.43-16.51-19.43-18.9v-33.28c0-9.66,14.63-16.61,19.43-18.9,6.73-3.2,20.37-8.57,36.02-8.57h0Z"/><path class="cls-3" d="M294.085,349.525v-35.11h0v-35.11c-23.82,0-46.45,14.37-46.45,18.47v16.64h0v16.64c0,4.09,22.64,18.47,46.45,18.47h0Z"/><path d="M265.085,319.185h-18.57c-2.563,0-4.64-2.077-4.64-4.64h0c0-2.563,2.077-4.64,4.64-4.64h18.57c2.563,0,4.64,2.077,4.64,4.64h0c0,2.563-2.077,4.64-4.64,4.64Z"/><path d="M264.995,260.885c-.49,8.04-5.64,14.92-12.74,17.94-2.29,1-4.76,1.56-7.35,1.66-1.68.06-3.3-.06-4.87-.38-9.81-1.93-19.85-1.96-29.66-.02-1.6.33-3.24.46-4.93.4-1.99-.08-3.92-.44-5.74-1.04-7.92-2.65-13.81-9.92-14.33-18.55-.44-7.13,2.7-13.54,7.78-17.64,0,0,.02-.02.03-.03,3.59-2.86,8.14-4.58,13.08-4.58,1.39,0,2.75.14,4.08.4,9.83,1.93,19.86,1.93,29.69,0,1.33-.25,2.67-.4,4.06-.4,2.24,0,4.41.35,6.43,1.01,2.43.77,4.68,2.01,6.64,3.57.03.02.05.03.05.03,5.09,4.09,8.22,10.51,7.77,17.64l.01-.01Z"/><path d="M244.105,249.635c1.06,0,2.07.16,3,.46.03.01.06.02.09.03,1.1.35,2.15.92,3.11,1.69.06.05.12.09.17.14,2.45,2.05,3.73,5.04,3.53,8.27-.22,3.68-2.6,7.01-6.06,8.48-.03.01-.05.02-.08.03-1.05.46-2.19.71-3.38.76h-.42c-.65,0-1.27-.06-1.85-.18-.02,0-.04,0-.06-.01-5.63-1.11-11.36-1.67-17.04-1.67s-11.34.56-16.88,1.65c-.03,0-.07.01-.1.02-.58.12-1.2.18-1.85.18h-.4c-.92-.04-1.84-.2-2.68-.48-3.86-1.29-6.61-4.82-6.85-8.8-.2-3.27,1.15-6.33,3.7-8.39.05-.04.1-.08.15-.12,1.27-.97,3.3-2.05,6.06-2.05.64,0,1.3.06,2,.2,5.58,1.09,11.27,1.64,16.93,1.64s11.35-.55,16.93-1.64c.7-.13,1.35-.2,1.98-.2M244.105,238.635c-1.39,0-2.73.14-4.06.4-4.92.96-9.88,1.45-14.85,1.45s-9.93-.48-14.85-1.45c-1.33-.25-2.69-.4-4.08-.4-4.95,0-9.5,1.72-13.08,4.58-.02.02-.03.03-.03.03-5.07,4.09-8.22,10.51-7.78,17.64.52,8.63,6.42,15.9,14.33,18.55,1.82.6,3.75.96,5.74,1.04.28.01.56.02.84.02,1.4,0,2.76-.13,4.09-.41,4.88-.97,9.81-1.44,14.74-1.44,4.99,0,9.99.49,14.92,1.46,1.3.26,2.65.4,4.03.4.28,0,.56,0,.83-.02,2.59-.09,5.06-.66,7.35-1.66,7.1-3.02,12.25-9.89,12.74-17.94.44-7.13-2.69-13.54-7.77-17.64,0,0-.02-.02-.05-.03-1.96-1.56-4.2-2.8-6.64-3.57-2.02-.66-4.19-1.01-6.43-1.01h.01Z"/><path class="cls-2" d="M256.165,247.755s-5.06,9.05-30.97,9.05-30.97-9.05-30.97-9.05c0,0,.02-.02.03-.03,3.47-2.86,7.87-4.58,12.65-4.58,1.34,0,2.66.14,3.94.4,9.5,1.93,19.21,1.93,28.71,0,1.28-.25,2.58-.4,3.93-.4,2.17,0,4.26.35,6.22,1.01,4.77,1.75,6.08,3.35,6.42,3.57.03.02.05.03.05.03h-.01Z"/><path class="cls-1" d="M194.215,270.915s5.06-4.16,30.97-4.16,30.97,4.16,30.97,4.16c0,0-.02.02-.03.03-3.47,2.86-7.87,4.58-12.65,4.58-1.34,0-2.66-.14-3.94-.4-9.5-1.93-19.21-1.93-28.71,0-1.28.25-2.58.4-3.93.4-2.17,0-4.26-.35-6.22-1.01-4.77-1.75-6.08-3.35-6.42-3.57-.03-.02-.05-.03-.05-.03h.01Z"/></svg>