<?xml version="1.0" encoding="UTF-8"?><svg id="focusbear" xmlns="http://www.w3.org/2000/svg" viewBox="0 0 450 450"><defs><style>.cls-1{fill:#ffe622;}.cls-2{fill:#b48331;}.cls-3{fill:#d32a28;}.cls-4{fill:#ffe51c;}.cls-5{fill:#fff;}.cls-6{fill:#c44241;}.cls-7{fill:#edc600;}.cls-8{fill:#ebb000;}.cls-9{fill:#f6b243;stroke:#241f20;stroke-linecap:round;stroke-linejoin:round;stroke-width:5.42px;}.cls-10{fill:#241f20;}</style></defs><path class="cls-4" d="M233.29,130c1.39-2.71,70.63,13.22,71.55,67.47,1.39,81.83-28.81,103.77-11.62,156.61,7.54,23.18,14.98,27.85,18.59,35.13,0,0-1.77-5.38-2.79-7.77,0,0,4.49,4.15,4.88,20.59,0,0,4.51-7.8-.52-23.53-6.51-20.32-6.57-17.63-8.77-28.22-1.86-8.94,8.31,26.45,6.35,16.39-4.18-21.4,2.63-33.75,9.68-48.64,17.19-36.31,21.09-41.1,32.53-86.43,10.22-40.54,9.13-97.15-5.81-121.38-52.65-85.37-139.75-40.67-146.86-9.24-6.62,29.26,11.04,23.78,11.64,33.46.33,5.3,19.19,2.41,19.59-.57.12-2.46,1.56-3.88,1.56-3.88Z"/><path class="cls-7" d="M233.29,130c1.39-2.71,70.63,13.22,71.55,67.47,1.39,81.83-28.81,103.77-11.62,156.61,7.54,23.18,14.98,27.85,18.59,35.13,0,0-1.77-5.38-2.79-7.77,0,0,4.49,4.15,4.88,20.59,0,0,4.51-7.8-.52-23.53-6.51-20.32-6.57-17.63-8.77-28.22-1.86-8.94,8.31,26.45,6.35,16.39-4.18-21.4,2.63-33.75,9.68-48.64,17.19-36.31,1.02-28.6,12.46-73.93,10.22-40.54,7.22-52.3-4.55-72.05-51.34-86.16-97.59-71.62-107.41-64.32-21.89,16.25-9.59,17.04-8.99,26.72.33,5.3,19.19,2.41,19.59-.57.12-2.46,1.56-3.88,1.56-3.88Z"/><path class="cls-1" d="M309.42,366.54c-8.34-28.97-10.94-43.91-9.52-70.9-5.1,4.94-11.13,5.64-11.13,5.64,2.03,23,8.4,43.33,15.05,57.82,6.66,14.49,11.36,26.7,11.36,26.7.37-6.16-5.76-19.26-5.76-19.26Z"/><path class="cls-8" d="M211.28,130.72c.79-7.73,9.69-22.14,34.03-18.82-10.01,1.59-24.47,2.45-26.44,12.54,43-19.02,76.61,9.57,101.58,45.28-18.41-25.4-69.32-56.38-90.82-45.28,6.8-1.3,38.68-.43,66.6,27.09-18.66-13.55-50.32-30.06-51.61-19.86-23.77-2.63-33.33-.95-33.33-.95Z"/><circle class="cls-9" cx="147.98" cy="201.94" r="31.17"/><path class="cls-2" d="M176.7,202.1c0,15.67-12.7,28.36-28.36,28.36-5.87,0-11.33-1.78-15.86-4.84-1.85-1.25-10-5.76-12.45-18.3,24.09,7.7,39.3-31.54,42.28-29.97,9.01,4.75,14.39,13.86,14.39,24.75Z"/><circle class="cls-10" cx="150.46" cy="203.55" r="20.11"/><circle class="cls-9" cx="301.58" cy="201.94" r="31.17"/><path class="cls-2" d="M272.86,202.1c0,15.67,12.7,28.36,28.36,28.36,5.87,0,11.33-1.78,15.86-4.84,1.85-1.25,10-5.76,12.45-18.3-24.09,7.7-39.3-31.54-42.28-29.97-9.01,4.75-14.39,13.86-14.39,24.75Z"/><circle class="cls-10" cx="299.09" cy="203.55" r="20.11"/><path class="cls-9" d="M315.77,252.95c0,50.47-40.92,91.39-91.39,91.39-38.3,0-71.1-23.56-84.69-56.99-1.08-2.65-2.04-5.37-2.87-8.14-2.49-8.32-3.83-17.13-3.83-26.26,0-32.18,16.63-60.47,41.76-76.75,14.29-9.26,31.34-14.64,49.64-14.64,50.47,0,91.39,40.92,91.39,91.39Z"/><path class="cls-2" d="M313.13,252.93c0,49.02-39.74,88.75-88.75,88.75-37.2,0-69.05-22.88-82.25-55.34-1.05-2.58-1.98-5.22-2.79-7.91-2.42-8.08-3.72-16.64-3.72-25.5,0,0,10.65,83.33,85.71,83.33s91.79-66.57,91.79-83.33Z"/><path class="cls-10" d="M238.03,281.07c0,5-6.11,12.37-13.65,12.37s-13.65-6.73-13.65-12.37c0-3.57,3.29-8.23,13.65-8.23,11.44,0,13.65,4.67,13.65,8.23Z"/><path class="cls-5" d="M232.15,278.41c0,.58-1.93,1.72-7.77,1.72s-7.77-1.15-7.77-1.72,2.17-1.92,7.77-1.92,7.77,1.34,7.77,1.92Z"/><path class="cls-10" d="M195.05,247.92c0,5.24-4.25,9.49-9.49,9.49s-12.72-6.06-12.72-11.3,7.48-7.67,12.72-7.67,9.49,4.25,9.49,9.49Z"/><circle class="cls-5" cx="185.93" cy="243.72" r="4.01"/><path class="cls-10" d="M275.61,245.51c0,5.24-7.1,11.9-12.34,11.9s-9.49-4.25-9.49-9.49,4.25-9.49,9.49-9.49,12.34,1.84,12.34,7.08Z"/><circle class="cls-5" cx="263.64" cy="243.72" r="4.01"/><path class="cls-7" d="M152.5,225.96c1.59-1.48,3.56-2.51,5.15-3.99,3.31-3.08,4.66-7.82,4.59-12.35-.07-4.52-1.39-8.92-2.71-13.25,1,3.3-2.32,6.21-5.31,7.94-2.98,1.73-6.5,4.13-6.14,7.56-.49-9.88.41-20.73,7.15-27.97,4.25-4.57,10.26-7.05,15.08-11.01,4.82-3.96,8.51-10.76,5.7-16.33,1.47,5.39,2.87,10.98,2.08,16.51-.79,5.53-4.31,11.04-9.71,12.49-.84-1.19,1.13-2.37,2.59-2.46,3.03-.18,6.07.02,9.05.59,2.23.42,4.67,1.03,6.67-.06,3.42-1.86,2.89-6.76,3.32-10.63.49-4.51,3.09-8.79,6.99-11.1,3.9-2.31,9.05-2.47,12.97-.19-8.91,3.11-14.55,13.54-12.27,22.7.44,1.77,1.07,3.86-.12,5.24-.71.82-1.86,1.09-2.94,1.22-4.16.48-8.44-.53-12.54.34-7.51,1.6-12.62,9.83-11.62,17.44.5,3.81,2.26,7.76.82,11.32-1.8,4.46-7.43,5.69-11.17,8.7-3.91,3.15-5.72,8.71-4.4,13.56.99,3.64,3.54,6.84,3.78,10.6.38,6.07-5.18,10.65-10.18,14.12,4.05-3.07,7.24-8.25,5.71-13.09-.6-1.9-1.85-3.51-2.93-5.18-4.46-6.92-5.67-17.11.36-22.71Z"/><path class="cls-4" d="M137.39,214.22c0,4.12,15.68,5.88,26.63,5.88.83,0-.74-28.5,4.61-42.55-.87,10.1-2.42,42.1-1.63,42.55,7.28,4.14,135.31,5.49,145.67-11.46,1.38-2.26,2.48,58.49.48,68.59,4.55,1.78,12.94-18.8,13.49-24.3,3.84-38.76-3.05-127.17-97.17-123.54-110.36-.11-112.25,72.12-106.3,124.94,1.56,13.83,13.12,33.72,12.21,25.51-3.02-27.26,2-65.6,2-65.6Z"/><path class="cls-7" d="M199.03,157.35s-13.88,35.46-9.74,64.6c6.57,1.87,9.74.69,9.74.69-3.65-12.21-7.3-43.13,0-65.28Z"/><path class="cls-7" d="M247.36,156.29c13.66,28.51,2.94,65.44,2.94,65.44,6.1-.32,15.08-.96,15.08-.96-.85-16.54-4.85-48.95-18.02-64.48Z"/><path class="cls-7" d="M310.58,211.08c-.13-14.07-8.26-37.17-12.78-41.55,14.07,14.07,19.84,36.86,21.41,64.95,1.56,28.09-3.52,41.95-3.52,41.95l-2.52.79c1.71-15.21,1.2-44.83-2.59-66.13Z"/><path class="cls-7" d="M137.69,215.86c.13-13.05,8.26-34.48,12.78-38.55-14.07,13.05-19.84,34.2-21.41,60.26-1.56,26.07,3.52,38.92,3.52,38.92l2.52,5.19c.15.3.6.18.57-.15-1.53-14.96-1.62-46.66,2.02-65.67Z"/><path class="cls-6" d="M245.33,317.81c-1.9-4.89-5.97-11.42-9.64-14.39-3.57-2.9-6.7-2.3-10.97-2.23-3.08.05-6.66-.21-9.66,1.9-1.1.77-8.63,9.43-9.87,12.29-2.74,6.33-2.62,13-.18,16.41,1.15,1.61,3.14,1.9,4.89,1.9,1.64,0,3.11-.21,4.82-1.14.63-.34,1.29-.78,2.01-1.35,4.08-3.25,11.72-3.66,16.93,1.25s16.21-2.88,11.66-14.63Z"/><path class="cls-5" d="M226.09,309.4c4.13.45,7.4.55,9.61-.75-5.93-3.96-13.55-5.1-20.44-1.1-1.06.61-2.05,1.3-2.97,2.04.6.37,1.34.73,2.17.93,2.26.55,6.32-1.7,11.63-1.12Z"/><path class="cls-10" d="M243.99,318.24c-1.83-3.88-4.76-7.24-8.29-9.6-2.21,1.3-5.48,1.2-9.61.75-5.31-.58-9.37,1.67-11.63,1.12-.83-.2-1.57-.56-2.17-.93-7.6,6.08-10.58,15.82-7.15,19.75,1.11,1.27,3.03,1.51,4.72,1.51,1.58,0,3-.17,4.65-.91.02-.02,3.71-5.18,9.45-5.39,5.75-.21,8.81,5.31,8.81,5.31,5.02,3.89,15.63-2.28,11.24-11.61Z"/><path class="cls-3" d="M223.95,324.54c-5.74.21-9.43,5.37-9.45,5.39.61-.27,1.24-.62,1.93-1.07,3.93-2.58,11.3-2.9,16.32.99,0,0-3.05-5.52-8.81-5.31Z"/></svg>