<?xml version="1.0" encoding="UTF-8"?><svg id="focusbear" xmlns="http://www.w3.org/2000/svg" viewBox="0 0 450 450"><metadata><c2pa:manifest xmlns:c2pa="http://c2pa.org/manifest">AAA0RGp1bWIAAAAeanVtZGMycGEAEQAQgAAAqgA4m3EDYzJwYQAAADQeanVtYgAAAEdqdW1kYzJtYQARABCAAACqADibcQN1cm46dXVpZDoxM2FjMDA4Yy03NDJmLTQyOTItOGNjYS03YmJmNzBiNzUzNGUAAAABtGp1bWIAAAApanVtZGMyYXMAEQAQgAAAqgA4m3EDYzJwYS5hc3NlcnRpb25zAAAAANdqdW1iAAAAJmp1bWRjYm9yABEAEIAAAKoAOJtxA2MycGEuYWN0aW9ucwAAAACpY2JvcqFnYWN0aW9uc4GjZmFjdGlvbmtjMnBhLmVkaXRlZG1zb2Z0d2FyZUFnZW50bUFkb2JlIEZpcmVmbHlxZGlnaXRhbFNvdXJjZVR5cGV4U2h0dHA6Ly9jdi5pcHRjLm9yZy9uZXdzY29kZXMvZGlnaXRhbHNvdXJjZXR5cGUvY29tcG9zaXRlV2l0aFRyYWluZWRBbGdvcml0aG1pY01lZGlhAAAArGp1bWIAAAAoanVtZGNib3IAEQAQgAAAqgA4m3EDYzJwYS5oYXNoLmRhdGEAAAAAfGNib3KlamV4Y2x1c2lvbnOBomVzdGFydBiyZmxlbmd0aBlFsGRuYW1lbmp1bWJmIG1hbmlmZXN0Y2FsZ2ZzaGEyNTZkaGFzaFggh+GaGILcGgurkbG2zqfnkEzKvIB/G1SEf1X2eW/eHvFjcGFkSQAAAAAAAAAAAAAAAgtqdW1iAAAAJGp1bWRjMmNsABEAEIAAAKoAOJtxA2MycGEuY2xhaW0AAAAB32Nib3KoaGRjOnRpdGxlb0dlbmVyYXRlZCBJbWFnZWlkYzpmb3JtYXRtaW1hZ2Uvc3ZnK3htbGppbnN0YW5jZUlEeCx4bXA6aWlkOmU0YjBlMTkxLWE0OTYtNDhlZC1iMDhmLWNhOGExY2UxM2Q4Nm9jbGFpbV9nZW5lcmF0b3J4NkFkb2JlX0lsbHVzdHJhdG9yLzI5LjMgYWRvYmVfYzJwYS8wLjcuNiBjMnBhLXJzLzAuMjUuMnRjbGFpbV9nZW5lcmF0b3JfaW5mb4G/ZG5hbWVxQWRvYmUgSWxsdXN0cmF0b3JndmVyc2lvbmQyOS4z/2lzaWduYXR1cmV4GXNlbGYjanVtYmY9YzJwYS5zaWduYXR1cmVqYXNzZXJ0aW9uc4KiY3VybHgnc2VsZiNqdW1iZj1jMnBhLmFzc2VydGlvbnMvYzJwYS5hY3Rpb25zZGhhc2hYIEppwb3/qN5BMHi+JO3M+DE6wdFklTRWcaANawazN9SvomN1cmx4KXNlbGYjanVtYmY9YzJwYS5hc3NlcnRpb25zL2MycGEuaGFzaC5kYXRhZGhhc2hYIMCK7ieRm+BzXsjeNMBYMuml00QaSTZvDEZfsLU5WJX6Y2FsZ2ZzaGEyNTYAADAQanVtYgAAAChqdW1kYzJjcwARABCAAACqADibcQNjMnBhLnNpZ25hdHVyZQAAAC/gY2JvctKEWQzvogE4JBghglkGPTCCBjkwggQhoAMCAQICEBWN/yesI9K4JUtOYzceHZ4wDQYJKoZIhvcNAQELBQAwdTELMAkGA1UEBhMCVVMxIzAhBgNVBAoTGkFkb2JlIFN5c3RlbXMgSW5jb3Jwb3JhdGVkMR0wGwYDVQQLExRBZG9iZSBUcnVzdCBTZXJ2aWNlczEiMCAGA1UEAxMZQWRvYmUgUHJvZHVjdCBTZXJ2aWNlcyBHMzAeFw0yNDEwMTUwMDAwMDBaFw0yNTEwMTUyMzU5NTlaMIGrMRMwEQYDVQQDDApBZG9iZSBDMlBBMSgwJgYDVQQLDB9Db250ZW50IEF1dGhlbnRpY2l0eSBJbml0aWF0aXZlMRMwEQYDVQQKDApBZG9iZSBJbmMuMREwDwYDVQQHDAhTYW4gSm9zZTETMBEGA1UECAwKQ2FsaWZvcm5pYTELMAkGA1UEBhMCVVMxIDAeBgkqhkiG9w0BCQEWEWNhaS1vcHNAYWRvYmUuY29tMIIBIjANBgkqhkiG9w0BAQEFAAOCAQ8AMIIBCgKCAQEAwxDBgdB9PXLpMXPw5oNgYkFWDPP1aSfth9TZPINOtOQlhp1v4h+hMxZWFjkZ3RJRuoSBrsSSYBaEfiDMKisi/sOxuFHKBV//l1rv3SrjrixANXIlqjGdIYydaMaFa/5ovFz/m4+SUz0ccYzqw+vSAzuRySGnpgm8Gmj+SEJcL/GIHzqU9bUy3NsizY2oY28yj32rbkOqeADSM51OqIJKloEBFFexzMunzpU+K2sLqheoR8FJMaR0fGXa/gqRzhkiBFhwUhLPS9s6+TCnz09UZMlXbdG/iFKj3UPFUDjqh0wtFgcz24DrUlaWeiltKHouymBHuirzvmOG0VtSPepxOQIDAQABo4IBjDCCAYgwDAYDVR0TAQH/BAIwADAOBgNVHQ8BAf8EBAMCB4AwHgYDVR0lBBcwFQYJKoZIhvcvAQEMBggrBgEFBQcDBDCBjgYDVR0gBIGGMIGDMIGABgkqhkiG9y8BAgMwczBxBggrBgEFBQcCAjBlDGNZb3UgYXJlIG5vdCBwZXJtaXR0ZWQgdG8gdXNlIHRoaXMgTGljZW5zZSBDZXJ0aWZpY2F0ZSBleGNlcHQgYXMgcGVybWl0dGVkIGJ5IHRoZSBsaWNlbnNlIGFncmVlbWVudC4wXQYDVR0fBFYwVDBSoFCgToZMaHR0cDovL3BraS1jcmwuc3ltYXV0aC5jb20vY2FfN2E1YzNhMGM3MzExNzQwNmFkZDE5MzEyYmMxYmMyM2YvTGF0ZXN0Q1JMLmNybDA3BggrBgEFBQcBAQQrMCkwJwYIKwYBBQUHMAGGG2h0dHA6Ly9wa2ktb2NzcC5zeW1hdXRoLmNvbTAfBgNVHSMEGDAWgBRXKXoyTcz+5DVOwB8kc85zU6vfajANBgkqhkiG9w0BAQsFAAOCAgEAqrl6FLQ+c9LYaf0igyTgErNL9XmmieiT3ohKFevJ3BN7kWkZD1znbVw3XnX5tgQaKq+AiSCldNxYEKqU+Rq9Lr26GGglBSA0s/Ds2kw+2LlnTmojAHCH3CvVRbhGHHrashmnfgwmF1TSkaWk7NxEhbt9wQoiEMkLSQeM4S4Cu+176FzEdy+zzkDkRWqeSOQO/qG2WRto/vIq30ECf6v6FtazJI1CWIqhBK5oJioSNbLsCVJhar3Uca9D11ujeZW4k2jPCsnzriTmFqVftd3k2SXUQg7wQcQcXfKBItWZt8ztn0IYoZzJa1x9l9dvXKAJvNsDoz4uDerS8z9rzLsEQvzL1yPbTp4+/6mTTAWsoaDtmkZgm3X+sffPX3XzMFmfzIHiYfUja5nKK2bs4P71tit/1U/FD2xdlpzZSupRqCMGz+UTeXI8IrN5ZR/+F8rSsmRAStjnggz/wDucwcDlJbY4/RKq3BrAi4LamLMIfwo/dbL55TDlIOd7HCfmSgabc1WO0Kji3LW/VZnP9VG8WiUG+WqtN1OQIAZmFUOWdXQGLag+I1OaZ1BXJDNsJiXcg2TGNBSEPo44Akfn9MzFGKyB5UurMN4NH0qlamhrhKiV0+b73Fjx330P/frxBmzx5NpAQhNKksx+F4z1S8Ay1o2TBIkkeAFbDzy8f/FxuytZBqUwggahMIIEiaADAgECAhAMqLZUe4nm0gaJdc2Lm4niMA0GCSqGSIb3DQEBCwUAMGwxCzAJBgNVBAYTAlVTMSMwIQYDVQQKExpBZG9iZSBTeXN0ZW1zIEluY29ycG9yYXRlZDEdMBsGA1UECxMUQWRvYmUgVHJ1c3QgU2VydmljZXMxGTAXBgNVBAMTEEFkb2JlIFJvb3QgQ0EgRzIwHhcNMTYxMTI5MDAwMDAwWhcNNDExMTI4MjM1OTU5WjB1MQswCQYDVQQGEwJVUzEjMCEGA1UEChMaQWRvYmUgU3lzdGVtcyBJbmNvcnBvcmF0ZWQxHTAbBgNVBAsTFEFkb2JlIFRydXN0IFNlcnZpY2VzMSIwIAYDVQQDExlBZG9iZSBQcm9kdWN0IFNlcnZpY2VzIEczMIICIjANBgkqhkiG9w0BAQEFAAOCAg8AMIICCgKCAgEAtx8uvb0Js1xIbP4Mg65sAepReCWkgD6Jp7GyiGTa9ol2gfn5HfOV/HiYjZiOz+TuHFU+DXNad86xEqgVeGVMlvIHGe/EHcKBxvEDXdlTXB5zIEkfl0/SGn7J6vTX8MNybfSi95eQDUOZ9fjCaq+PBFjS5ZfeNmzi/yR+MsA0jKKoWarSRCFFFBpUFQWfAgLyXOyxOnXQOQudjxNj6Wu0X0IB13+IH11WcKcWEWXM4j4jh6hLy29Cd3EoVG3oxcVenMF/EMgD2tXjx4NUbTNB1/g9+MR6Nw5Mhp5k/g3atNExAxhtugC+T3SDShSEJfs2quiiRUHtX3RhOcK1s1OJgT5s2s9xGy5/uxVpcAIaK2KiDJXW3xxN8nXPmk1NSVu/mxtfapr4TvSJbhrU7UA3qhQY9n4On2sbH1X1Tw+7LTek8KCA5ZDghOERPiIp/Jt893qov1bE5rJkagcVg0Wqjh89NhCaBA8VyRt3ovlGyCKdNV2UL3bn5vdFsTk7qqmp9makz1/SuVXYxIf6L6+8RXOatXWaPkmucuLE1TPOeP7S1N5JToFCs80l2D2EtxoQXGCR48K/cTUR5zV/fQ+hdIOzoo0nFn77Y8Ydd2k7/x9BE78pmoeMnw6VXYfXCuWEgj6p7jpbLoxQMoWMCVzlg72WVNhJFlSw4aD8fc6ezeECAwEAAaOCATQwggEwMBIGA1UdEwEB/wQIMAYBAf8CAQAwNQYDVR0fBC4wLDAqoCigJoYkaHR0cDovL2NybC5hZG9iZS5jb20vYWRvYmVyb290ZzIuY3JsMA4GA1UdDwEB/wQEAwIBBjAUBgNVHSUEDTALBgkqhkiG9y8BAQcwVwYDVR0gBFAwTjBMBgkqhkiG9y8BAgMwPzA9BggrBgEFBQcCARYxaHR0cHM6Ly93d3cuYWRvYmUuY29tL21pc2MvcGtpL3Byb2Rfc3ZjZV9jcHMuaHRtbDAkBgNVHREEHTAbpBkwFzEVMBMGA1UEAxMMU1lNQy00MDk2LTMzMB0GA1UdDgQWBBRXKXoyTcz+5DVOwB8kc85zU6vfajAfBgNVHSMEGDAWgBSmHOFtVCRMqI9Icr9uqYzV5Owx1DANBgkqhkiG9w0BAQsFAAOCAgEAcc7lB4ym3C3cyOA7ZV4AkoGV65UgJK+faThdyXzxuNqlTQBlOyXBGFyevlm33BsGO1mDJfozuyLyT2+7IVxWFvW5yYMV+5S1NeChMXIZnCzWNXnuiIQSdmPD82TEVCkneQpFET4NDwSxo8/ykfw6Hx8fhuKz0wjhjkWMXmK3dNZXIuYVcbynHLyJOzA+vWU3sH2T0jPtFp7FN39GZne4YG0aVMlnHhtHhxaXVCiv2RVoR4w1QtvKHQpzfPObR53Cl74iLStGVFKPwCLYRSpYRF7J6vVS/XxW4LzvN2b6VEKOcvJmN3LhpxFRl3YYzW+dwnwtbuHW6WJlmjffbLm1MxLFGlG95aCz31X8wzqYNsvb9+5AXcv8Ll69tLXmO1OtsY/3wILNUEp4VLZTE3wqm3n8hMnClZiiKyZCS7L4E0mClbx+BRSMH3eVo6jgve41/fK3FQM4QCNIkpGs7FjjLy+ptC+JyyWqcfvORrFV/GOgB5hD+G5ghJcIpeigD/lHsCRYsOa5sFdqREhwIWLmSWtNwfLZdJ3dkCc7yRpm3gal6qRfTkYpxTNxxKyvKbkaJDoxR9vtWrC3iNrQd9VvxC3TXtuzoHbqumeqgcAqefWF9u6snQ4Q9FkXzeuJArNuSvPIhgBjVtggH0w0vm/lmCQYiC/Y12GeCxfgYlL33buiZnNpZ1RzdKFpdHN0VG9rZW5zgaFjdmFsWQ44MIIONDADAgEAMIIOKwYJKoZIhvcNAQcCoIIOHDCCDhgCAQMxDzANBglghkgBZQMEAgEFADCBggYLKoZIhvcNAQkQAQSgcwRxMG8CAQEGCWCGSAGG/WwHATAxMA0GCWCGSAFlAwQCAQUABCA7Uox0ku88pjIqCK/fblrQKx314AklRGZ8JI/qO8e9NwIQY5IyLMgsP9vnhD9iSclBqxgPMjAyNTAzMDkwNjI5NDhaAgkA/YBd4TCPhsigggvAMIIFCjCCAvKgAwIBAgIQDAsvx3p4z7rtZVZUwZokAzANBgkqhkiG9w0BAQsFADBjMQswCQYDVQQGEwJVUzEXMBUGA1UEChMORGlnaUNlcnQsIEluYy4xOzA5BgNVBAMTMkRpZ2lDZXJ0IFRydXN0ZWQgRzQgUlNBNDA5NiBTSEEyNTYgVGltZVN0YW1waW5nIENBMB4XDTI0MTEyMDAwMDAwMFoXDTM2MDIxOTIzNTk1OVowWzELMAkGA1UEBhMCVVMxETAPBgNVBAoTCERpZ2lDZXJ0MTkwNwYDVQQDEzBFQ0MyNTZfU0hBMjU2X1RpbWVzdGFtcF9SZXNwb25kZXJfQWRvYmVfTk9WXzIwMjQwWTATBgcqhkjOPQIBBggqhkjOPQMBBwNCAATQ/B6F+IGYpiqQQLxOfqkUmeTmSRWZzxSCtwM82siW/SbXazktRyEWmwIVs+8PJjhV9C4fUJ23IGRxsfzJM8leo4IBizCCAYcwDgYDVR0PAQH/BAQDAgeAMAwGA1UdEwEB/wQCMAAwFgYDVR0lAQH/BAwwCgYIKwYBBQUHAwgwIAYDVR0gBBkwFzAIBgZngQwBBAIwCwYJYIZIAYb9bAcBMB8GA1UdIwQYMBaAFLoW2W1NhS9zKXaaL3WMaiCPnshvMB0GA1UdDgQWBBTs0RxvfOegTeQxP4cACNSt1H02uzBaBgNVHR8EUzBRME+gTaBLhklodHRwOi8vY3JsMy5kaWdpY2VydC5jb20vRGlnaUNlcnRUcnVzdGVkRzRSU0E0MDk2U0hBMjU2VGltZVN0YW1waW5nQ0EuY3JsMIGQBggrBgEFBQcBAQSBgzCBgDAkBggrBgEFBQcwAYYYaHR0cDovL29jc3AuZGlnaWNlcnQuY29tMFgGCCsGAQUFBzAChkxodHRwOi8vY2FjZXJ0cy5kaWdpY2VydC5jb20vRGlnaUNlcnRUcnVzdGVkRzRSU0E0MDk2U0hBMjU2VGltZVN0YW1waW5nQ0EuY3J0MA0GCSqGSIb3DQEBCwUAA4ICAQCi7MEg8nkvLauLI7cAj21DgnMErh0mntCt4c4tsW9yJQZdZv1n8E1dueayb6IiZ8mYambImrTeuVKwGqUSITZTiVhtFRP3zRD9DpFk+Ex4P010IStH/eD1lgK6bVfaY0gvzcIRQP3CwIzqBZAE81c5QINjPs81cvJLOFKd/cX7zOhoQvrziNDy15UNT5fuURe2fioANQsRNYOmVXAdg2TK7OktYD+EH/D8gWr7nHQhRJMuD54GNjiZnNPnYXz6F3j7Bu2aVlirvQGAAsrW27Lqhg9ksW5+aL+g9/lyqRoMrWLSy4KDQaztPB+PKskecO1R7dbJbw7UBFVl+GbGaUc4x6HvVLNNL5hHjiLrf9A4zxe52e9ZqpSU7kDu7dsRXvm+uLLMXjHFSx/j0stIcxnQHwOL4A5RRuUH1Xw1wz2CiGvIHNcoYrkqfkb6TsKJU7ntDqNKFKZ349sBErTdXwVoId4zS/cV/A5rO1Kw5aNO/zUTCtQkbcMg88XGWqImaYmIHhIvHaE1nRdPWCa0QhrxvioeP45p4/zqd/JrVbNsoEuEBSRIPB3+ViLaoFlimZRUePzwKYvyTrd6g72mVtF4Prbbvy1kqCUmsZDMFqn33DR0N8Qzqkzir3bufNyI5k95Rq3NXcbfNYDx9qZ8gjCu4NHtSxAdJKswzb9gi6jyFTCCBq4wggSWoAMCAQICEAc2N7ckVHzYR6z9KGYqXlswDQYJKoZIhvcNAQELBQAwYjELMAkGA1UEBhMCVVMxFTATBgNVBAoTDERpZ2lDZXJ0IEluYzEZMBcGA1UECxMQd3d3LmRpZ2ljZXJ0LmNvbTEhMB8GA1UEAxMYRGlnaUNlcnQgVHJ1c3RlZCBSb290IEc0MB4XDTIyMDMyMzAwMDAwMFoXDTM3MDMyMjIzNTk1OVowYzELMAkGA1UEBhMCVVMxFzAVBgNVBAoTDkRpZ2lDZXJ0LCBJbmMuMTswOQYDVQQDEzJEaWdpQ2VydCBUcnVzdGVkIEc0IFJTQTQwOTYgU0hBMjU2IFRpbWVTdGFtcGluZyBDQTCCAiIwDQYJKoZIhvcNAQEBBQADggIPADCCAgoCggIBAMaGNQZJs8E9cklRVcclA8TykTepl1Gh1tKD0Z5Mom2gsMyD+Vr2EaFEFUJfpIjzaPp985yJC3+dH54PMx9QEwsmc5Zt+FeoAn39Q7SE2hHxc7Gz7iuAhIoiGN/r2j3EF3+rGSs+QtxnjupRPfDWVtTnKC3r07G1decfBmWNlCnT2exp39mQh0YAe9tEQYncfGpXevA3eZ9drMvohGS0UvJ2R/dhgxndX7RUCyFobjchu0CsX7LeSn3O9TkSZ+8OpWNs5KbFHc02DVzV5huowWR0QKfAcsW6Th+xtVhNef7Xj3OTrCw54qVI1vCwMROpVymWJy71h6aPTnYVVSZwmCZ/oBpHIEPjQ2OAe3VuJyWQmDo4EbP29p7mO1vsgd4iFNmCKseSv6De4z6ic/rnH1pslPJSlRErWHRAKKtzQ87fSqEcazjFKfPKqpZzQmiftkaznTqj1QPgv/CiPMpC3BhIfxQ0z9JMq++bPf4OuGQq+nUoJEHtQr8FnGZJUlD0UfM2SU2LINIsVzV5K6jzRWC8I41Y99xh3pP+OcD5sjClTNfpmEpYPtMDiP6zj9NeS3YSUZPJjAw7W4oiqMEmCPkUEBIDfV8ju2TjY+Cm4T72wnSyPx4JduyrXUZ14mCjWAkBKAAOhFTuzuldyF4wEr1GnrXTdrnSDmuZDNIztM2xAgMBAAGjggFdMIIBWTASBgNVHRMBAf8ECDAGAQH/AgEAMB0GA1UdDgQWBBS6FtltTYUvcyl2mi91jGogj57IbzAfBgNVHSMEGDAWgBTs1+OC0nFdZEzfLmc/57qYrhwPTzAOBgNVHQ8BAf8EBAMCAYYwEwYDVR0lBAwwCgYIKwYBBQUHAwgwdwYIKwYBBQUHAQEEazBpMCQGCCsGAQUFBzABhhhodHRwOi8vb2NzcC5kaWdpY2VydC5jb20wQQYIKwYBBQUHMAKGNWh0dHA6Ly9jYWNlcnRzLmRpZ2ljZXJ0LmNvbS9EaWdpQ2VydFRydXN0ZWRSb290RzQuY3J0MEMGA1UdHwQ8MDowOKA2oDSGMmh0dHA6Ly9jcmwzLmRpZ2ljZXJ0LmNvbS9EaWdpQ2VydFRydXN0ZWRSb290RzQuY3JsMCAGA1UdIAQZMBcwCAYGZ4EMAQQCMAsGCWCGSAGG/WwHATANBgkqhkiG9w0BAQsFAAOCAgEAfVmOwJO2b5ipRCIBfmbW2CFC4bAYLhBNE88wU86/GPvHUF3iSyn7cIoNqilp/GnBzx0H6T5gyNgL5Vxb122H+oQgJTQxZ822EpZvxFBMYh0MCIKoFr2pVs8Vc40BIiXOlWk/R3f7cnQU1/+rT4osequFzUNf7WC2qk+RZp4snuCKrOX9jLxkJodskr2dfNBwCnzvqLx1T7pa96kQsl3p/yhUifDVinF2ZdrM8HKjI/rAJ4JErpknG6skHibBt94q6/aesXmZgaNWhqsKRcnfxI2g55j7+6adcq/Ex8HBanHZxhOACcS2n82HhyS7T6NJuXdmkfFynOlLAlKnN36TU6w7HQhJD5TNOXrd/yVjmScsPT9rp/Fmw0HNT7ZAmyEhQNC3EyTN3B14OuSereU0cZLXJmvkOHOrpgFPvT87eK1MrfvElXvtCl8zOYdBeHo46Zzh3SP9HSjTx/no8Zhf+yvYfvJGnXUsHicsJttvFXseGYs2uJPU5vIXmVnKcPA3v5gA3yAWTyf7YGcWoWa63VXAOimGsJigK+2VQbc61RWYMbRiCQ8KvYHZE/6/pNHzV9m8BPqC3jLfBInwAM1dwvnQI38AC+R2AibZ8GV2QqYphwlHK+Z/GqSFD/yYlvZVVCsfgPrA8g4r5db7qS9EFUrnEw4d2zc4GqEr9u3WfPwxggG3MIIBswIBATB3MGMxCzAJBgNVBAYTAlVTMRcwFQYDVQQKEw5EaWdpQ2VydCwgSW5jLjE7MDkGA1UEAxMyRGlnaUNlcnQgVHJ1c3RlZCBHNCBSU0E0MDk2IFNIQTI1NiBUaW1lU3RhbXBpbmcgQ0ECEAwLL8d6eM+67WVWVMGaJAMwDQYJYIZIAWUDBAIBBQCggdEwGgYJKoZIhvcNAQkDMQ0GCyqGSIb3DQEJEAEEMBwGCSqGSIb3DQEJBTEPFw0yNTAzMDkwNjI5NDhaMCsGCyqGSIb3DQEJEAIMMRwwGjAYMBYEFPcTAlRkG5zO0lEtYsW/nymEjPz4MC8GCSqGSIb3DQEJBDEiBCB+ahMAa/WZLu/q7dPdWtT1a0BieZgYvJ23bCon73pB/jA3BgsqhkiG9w0BCRACLzEoMCYwJDAiBCC5eiZoHRjpuXxjPvhIOWRVdZeW2lBDRCyPjM3lJ+AAqTAKBggqhkjOPQQDAgRGMEQCICiacg9iFKWleQAgOGxhh60RBLpFFCcVxZppM4naXwEUAiAHiiGLewGXWYLkQaLqMjxiwQCCTJ2GW0lg5PoWcVyZSGNwYWRZE4UAAAAAAAAAAAAAAAAAAAAAAAAAAAAAAAAAAAAAAAAAAAAAAAAAAAAAAAAAAAAAAAAAAAAAAAAAAAAAAAAAAAAAAAAAAAAAAAAAAAAAAAAAAAAAAAAAAAAAAAAAAAAAAAAAAAAAAAAAAAAAAAAAAAAAAAAAAAAAAAAAAAAAAAAAAAAAAAAAAAAAAAAAAAAAAAAAAAAAAAAAAAAAAAAAAAAAAAAAAAAAAAAAAAAAAAAAAAAAAAAAAAAAAAAAAAAAAAAAAAAAAAAAAAAAAAAAAAAAAAAAAAAAAAAAAAAAAAAAAAAAAAAAAAAAAAAAAAAAAAAAAAAAAAAAAAAAAAAAAAAAAAAAAAAAAAAAAAAAAAAAAAAAAAAAAAAAAAAAAAAAAAAAAAAAAAAAAAAAAAAAAAAAAAAAAAAAAAAAAAAAAAAAAAAAAAAAAAAAAAAAAAAAAAAAAAAAAAAAAAAAAAAAAAAAAAAAAAAAAAAAAAAAAAAAAAAAAAAAAAAAAAAAAAAAAAAAAAAAAAAAAAAAAAAAAAAAAAAAAAAAAAAAAAAAAAAAAAAAAAAAAAAAAAAAAAAAAAAAAAAAAAAAAAAAAAAAAAAAAAAAAAAAAAAAAAAAAAAAAAAAAAAAAAAAAAAAAAAAAAAAAAAAAAAAAAAAAAAAAAAAAAAAAAAAAAAAAAAAAAAAAAAAAAAAAAAAAAAAAAAAAAAAAAAAAAAAAAAAAAAAAAAAAAAAAAAAAAAAAAAAAAAAAAAAAAAAAAAAAAAAAAAAAAAAAAAAAAAAAAAAAAAAAAAAAAAAAAAAAAAAAAAAAAAAAAAAAAAAAAAAAAAAAAAAAAAAAAAAAAAAAAAAAAAAAAAAAAAAAAAAAAAAAAAAAAAAAAAAAAAAAAAAAAAAAAAAAAAAAAAAAAAAAAAAAAAAAAAAAAAAAAAAAAAAAAAAAAAAAAAAAAAAAAAAAAAAAAAAAAAAAAAAAAAAAAAAAAAAAAAAAAAAAAAAAAAAAAAAAAAAAAAAAAAAAAAAAAAAAAAAAAAAAAAAAAAAAAAAAAAAAAAAAAAAAAAAAAAAAAAAAAAAAAAAAAAAAAAAAAAAAAAAAAAAAAAAAAAAAAAAAAAAAAAAAAAAAAAAAAAAAAAAAAAAAAAAAAAAAAAAAAAAAAAAAAAAAAAAAAAAAAAAAAAAAAAAAAAAAAAAAAAAAAAAAAAAAAAAAAAAAAAAAAAAAAAAAAAAAAAAAAAAAAAAAAAAAAAAAAAAAAAAAAAAAAAAAAAAAAAAAAAAAAAAAAAAAAAAAAAAAAAAAAAAAAAAAAAAAAAAAAAAAAAAAAAAAAAAAAAAAAAAAAAAAAAAAAAAAAAAAAAAAAAAAAAAAAAAAAAAAAAAAAAAAAAAAAAAAAAAAAAAAAAAAAAAAAAAAAAAAAAAAAAAAAAAAAAAAAAAAAAAAAAAAAAAAAAAAAAAAAAAAAAAAAAAAAAAAAAAAAAAAAAAAAAAAAAAAAAAAAAAAAAAAAAAAAAAAAAAAAAAAAAAAAAAAAAAAAAAAAAAAAAAAAAAAAAAAAAAAAAAAAAAAAAAAAAAAAAAAAAAAAAAAAAAAAAAAAAAAAAAAAAAAAAAAAAAAAAAAAAAAAAAAAAAAAAAAAAAAAAAAAAAAAAAAAAAAAAAAAAAAAAAAAAAAAAAAAAAAAAAAAAAAAAAAAAAAAAAAAAAAAAAAAAAAAAAAAAAAAAAAAAAAAAAAAAAAAAAAAAAAAAAAAAAAAAAAAAAAAAAAAAAAAAAAAAAAAAAAAAAAAAAAAAAAAAAAAAAAAAAAAAAAAAAAAAAAAAAAAAAAAAAAAAAAAAAAAAAAAAAAAAAAAAAAAAAAAAAAAAAAAAAAAAAAAAAAAAAAAAAAAAAAAAAAAAAAAAAAAAAAAAAAAAAAAAAAAAAAAAAAAAAAAAAAAAAAAAAAAAAAAAAAAAAAAAAAAAAAAAAAAAAAAAAAAAAAAAAAAAAAAAAAAAAAAAAAAAAAAAAAAAAAAAAAAAAAAAAAAAAAAAAAAAAAAAAAAAAAAAAAAAAAAAAAAAAAAAAAAAAAAAAAAAAAAAAAAAAAAAAAAAAAAAAAAAAAAAAAAAAAAAAAAAAAAAAAAAAAAAAAAAAAAAAAAAAAAAAAAAAAAAAAAAAAAAAAAAAAAAAAAAAAAAAAAAAAAAAAAAAAAAAAAAAAAAAAAAAAAAAAAAAAAAAAAAAAAAAAAAAAAAAAAAAAAAAAAAAAAAAAAAAAAAAAAAAAAAAAAAAAAAAAAAAAAAAAAAAAAAAAAAAAAAAAAAAAAAAAAAAAAAAAAAAAAAAAAAAAAAAAAAAAAAAAAAAAAAAAAAAAAAAAAAAAAAAAAAAAAAAAAAAAAAAAAAAAAAAAAAAAAAAAAAAAAAAAAAAAAAAAAAAAAAAAAAAAAAAAAAAAAAAAAAAAAAAAAAAAAAAAAAAAAAAAAAAAAAAAAAAAAAAAAAAAAAAAAAAAAAAAAAAAAAAAAAAAAAAAAAAAAAAAAAAAAAAAAAAAAAAAAAAAAAAAAAAAAAAAAAAAAAAAAAAAAAAAAAAAAAAAAAAAAAAAAAAAAAAAAAAAAAAAAAAAAAAAAAAAAAAAAAAAAAAAAAAAAAAAAAAAAAAAAAAAAAAAAAAAAAAAAAAAAAAAAAAAAAAAAAAAAAAAAAAAAAAAAAAAAAAAAAAAAAAAAAAAAAAAAAAAAAAAAAAAAAAAAAAAAAAAAAAAAAAAAAAAAAAAAAAAAAAAAAAAAAAAAAAAAAAAAAAAAAAAAAAAAAAAAAAAAAAAAAAAAAAAAAAAAAAAAAAAAAAAAAAAAAAAAAAAAAAAAAAAAAAAAAAAAAAAAAAAAAAAAAAAAAAAAAAAAAAAAAAAAAAAAAAAAAAAAAAAAAAAAAAAAAAAAAAAAAAAAAAAAAAAAAAAAAAAAAAAAAAAAAAAAAAAAAAAAAAAAAAAAAAAAAAAAAAAAAAAAAAAAAAAAAAAAAAAAAAAAAAAAAAAAAAAAAAAAAAAAAAAAAAAAAAAAAAAAAAAAAAAAAAAAAAAAAAAAAAAAAAAAAAAAAAAAAAAAAAAAAAAAAAAAAAAAAAAAAAAAAAAAAAAAAAAAAAAAAAAAAAAAAAAAAAAAAAAAAAAAAAAAAAAAAAAAAAAAAAAAAAAAAAAAAAAAAAAAAAAAAAAAAAAAAAAAAAAAAAAAAAAAAAAAAAAAAAAAAAAAAAAAAAAAAAAAAAAAAAAAAAAAAAAAAAAAAAAAAAAAAAAAAAAAAAAAAAAAAAAAAAAAAAAAAAAAAAAAAAAAAAAAAAAAAAAAAAAAAAAAAAAAAAAAAAAAAAAAAAAAAAAAAAAAAAAAAAAAAAAAAAAAAAAAAAAAAAAAAAAAAAAAAAAAAAAAAAAAAAAAAAAAAAAAAAAAAAAAAAAAAAAAAAAAAAAAAAAAAAAAAAAAAAAAAAAAAAAAAAAAAAAAAAAAAAAAAAAAAAAAAAAAAAAAAAAAAAAAAAAAAAAAAAAAAAAAAAAAAAAAAAAAAAAAAAAAAAAAAAAAAAAAAAAAAAAAAAAAAAAAAAAAAAAAAAAAAAAAAAAAAAAAAAAAAAAAAAAAAAAAAAAAAAAAAAAAAAAAAAAAAAAAAAAAAAAAAAAAAAAAAAAAAAAAAAAAAAAAAAAAAAAAAAAAAAAAAAAAAAAAAAAAAAAAAAAAAAAAAAAAAAAAAAAAAAAAAAAAAAAAAAAAAAAAAAAAAAAAAAAAAAAAAAAAAAAAAAAAAAAAAAAAAAAAAAAAAAAAAAAAAAAAAAAAAAAAAAAAAAAAAAAAAAAAAAAAAAAAAAAAAAAAAAAAAAAAAAAAAAAAAAAAAAAAAAAAAAAAAAAAAAAAAAAAAAAAAAAAAAAAAAAAAAAAAAAAAAAAAAAAAAAAAAAAAAAAAAAAAAAAAAAAAAAAAAAAAAAAAAAAAAAAAAAAAAAAAAAAAAAAAAAAAAAAAAAAAAAAAAAAAAAAAAAAAAAAAAAAAAAAAAAAAAAAAAAAAAAAAAAAAAAAAAAAAAAAAAAAAAAAAAAAAAAAAAAAAAAAAAAAAAAAAAAAAAAAAAAAAAAAAAAAAAAAAAAAAAAAAAAAAAAAAAAAAAAAAAAAAAAAAAAAAAAAAAAAAAAAAAAAAAAAAAAAAAAAAAAAAAAAAAAAAAAAAAAAAAAAAAAAAAAAAAAAAAAAAAAAAAAAAAAAAAAAAAAAAAAAAAAAAAAAAAAAAAAAAAAAAAAAAAAAAAAAAAAAAAAAAAAAAAAAAAAAAAAAAAAAAAAAAAAAAAAAAAAAAAAAAAAAAAAAAAAAAAAAAAAAAAAAAAAAAAAAAAAAAAAAAAAAAAAAAAAAAAAAAAAAAAAAAAAAAAAAAAAAAAAAAAAAAAAAAAAAAAAAAAAAAAAAAAAAAAAAAAAAAAAAAAAAAAAAAAAAAAAAAAAAAAAAAAAAAAAAAAAAAAAAAAAAAAAAAAAAAAAAAAAAAAAAAAAAAAAAAAAAAAAAAAAAAAAAAAAAAAAAAAAAAAAAAAAAAAAAAAAAAAAAAAAAAAAAAAAAAAAAAAAAAAAAAAAAAAAAAAAAAAAAAAAAAAAAAAAAAAAAAAAAAAAAAAAAAAAAAAAAAAAAAAAAAAAAAAAAAAAAAAAAAAAAAAAAAAAAAAAAAAAAAAAAAAAAAAAAAAAAAAAAAAAAAAAAAAAAAAAAAAAAAAAAAAAAAAAAAAAAAAAAAAAAAAAAAAAAAAAAAAAAAAAAAAAAAAAAAAAAAAAAAAAAAAAAAAAAAAAAAAAAAAAAAAAAAAAAAAAAAAAAAAAAAAAAAAAAAAAAAAAAAAAAAAAAAAAAAAAAAAAAAAAAAAAAAAAAAAAAAAAAAAAAAAAAAAAAAAAAAAAAAAAAAAAAAAAAAAAAAAAAAAAAAAAAAAAAAAAAAAAAAAAAAAAAAAAAAAAAAAAAAAAAAAAAAAAAAAAAAAAAAAAAAAAAAAAAAAAAAAAAAAAAAAAAAAAAAAAAAAAAAAAAAAAAAAAAAAAAAAAAAAAAAAAAAAAAAAAAAAAAAAAAAAAAAAAAAAAAAAAAAAAAAAAAAAAAAAAAAAAAAAAAAAAAAAAAAAAAAAAAAAAAAAAAAAAAAAAAAAAAAAAAAAAAAAAAAAAAAAAAAAAAAAAAAAAAAAAAAAAAAAAAAAAAAAAAAAAAAAAAAAAAAAAAAAAAAAAAAAAAAAAAAAAAAAAAAAAAAAAAAAAAAAAAAAAAAAAAAAAAAAAAAAAAAAAAAAAAAAAAAAAAAAAAAAAAAAAAAAAAAAAAAAAAAAAAAAAAAAAAAAAAAAAAAAAAAAAAAAAAAAAAAAAAAAAAAAAAAAAAAAAAAAAAAAAAAAAAAAAAAAAAAAAAAAAAAAAAAAAAAAAAAAAAAAAAAAAAAAAAAAAAAAAAAAAAAAAAAAAAAAAAAAAAAAAAAAAAAAAAAAAAAAAAAAAAAAAAAAAAAAAAAAAAAAAAAAAAAAAAAAAAAAAAAAAAAAAAAAAAAAAAAAAAAAAAAAAAAAAAAAAAAAAAAAAAAAAAAAAAAAAAAAAAAAAAAAAAAAAAAAAAAAAAAAAAAAAAAAAAAAAAAAAAAAAAAAAAAAAAAAAAAAAAAAAAAAAAAAAAAAAAAAAAAAAAAAAAAAAAAAAAAAAAAAAAAAAAAAAAAAAAAAAAAAAAAAAAAAAAAAAAAAAAAAAAAAAAAAAAAAAAAAAAAAAAAAAAAAAAAAAAAAAAAAAAAAAAAAAAAAAAAAAAAAAAAAAAAAAAAAAAAAAAAAAAAAAAAAAAAAAAAAAAAAAAAAAAAAAAAAAAAAAAAAAAAAAAAAAAAAAAAAAAAAAAAAAAAAAAAAAAAAAAAAAAAAAAAAAAAAAAAAAAAAAAAAAAAAAAAAAAAAAAAAAAAAAAAAAAAAAAAAAAAAAAAAAAAAAAAAAAAAAAAAAAAAAAAAAAAAAAAAAAAAAAAAAAAAAAAAAAAAAAAAAAAAAAAAAAAAAAAAAAAAAAAAAAAAAAAAAAAAAAAAAAAAAAAAAAAAAAAAAAAAAAAAAAAAAAAAAAAAAAAAAAAAAAAAAAAAAAAAAAAAAAAAAAAAAAAAAAAAAAAAAAAAAAAAAAAAAAAAAAAAAAAAAAAAAAAAAAAAAAAAAAAAAAAAAAAAAAAAAAAAAAAAAAAAAAAAAAAAAAAAAAAAAAAAAAAAAAAAAAAAAAAAAAAAAAAAAAAAAAAAAAAAAAAAAAAAAAAAAAAAAAAAAAAAAAAAAAAAAAAAAAAAAAAAAAAAAAAAAAAAAAAAAAAAAAAAAAAAAAAAAAAAAAAAAAAAAAAAAAAAAAAAAAAAAAAAAAAAAAAAAAAAAAAAAAAAAAAAAAAAAAAAAAAAAAAAAAAAAAAAAAAAAAAAAAAAAAAAAAAAAAAAAAAAAAAAAAAAAAAAAAAAAAAAAAAAAAAAAAAAAAAAAAAAAAAAAAAAAAAAAAAAAAAAAAAAAAAAAAAAAAAAAAAAAAAAAAAAAAAAAAAAAAAAAAAAAAAAAAAAAAAAAAAAAAAAAAAAAAAAAAAAAAAAAAAAAAAAAAAAAAAAAAAAAAAAAAAAAAAAAAAAAAAAAAAAAAAAAAAAAAAAAAAAAAAAAAAAAAAAAAAAAAAAAAAAAAAAAAAAAAAAAAAAAAAAAAAAAAAAAAAAAAAAAAAAAAAAAAAAAAAAAAAAAAAAAAAAAAAAAAAAAPZZAQAQ4N3s5sOC6fu3kVXkKkCiHqV9osfL2Q0W+EEKlqXMa6a0Kb1DRrpAwVnH6u3dWWE8QU/VnhqXqjRAboN/Hei+Ujw+U42vFtDLDJVtJpqB8HjU4tx0jH/Gy9oKY0iuGEaSYJw21FOiGY6fubZr8bnPVCuXsSjL+rahP8E5d7zkoAU0ArobQYa2iZjxkPBaFWC541HE41LJb1QYI8FXyrEhlBMe6DQBGgps23LM4aRj4uPiWan5pEinKkEp/KXZY9bBB4vsGpkRvpBBpZXmQY6ZxsLRrAIhWLC1/sckQdpR9g9zDI967OoWen/PzF0ri5ZXuW/M1WHMuSOZ0wvyetYV</c2pa:manifest></metadata><defs><style>.cls-1{fill:#fda223;}.cls-2{fill:#ffdc17;}.cls-3{fill:#3d6544;}.cls-4{fill:#fdc323;}.cls-5{fill:#47764f;}.cls-6{fill:#ffec82;}.cls-7{fill:#fdbd23;}.cls-8{fill:#ecb559;}.cls-9{fill:#212323;}.cls-10{fill:#c44241;}.cls-11{fill:#d19400;}.cls-12{fill:#b03735;}</style></defs><path class="cls-8" d="M268.03,218.8c7.94-15.19,24.41-26.67,41.48-25.11,17.07,1.57,32.12,18.9,28.15,35.57-3.76,15.79-20.82,24.32-36.54,28.39-3.33.86-7.17,1.53-9.96-.49-1.16-.84-1.98-2.06-2.78-3.26-8.12-12.18-16.25-24.35-20.35-35.11Z"/><path d="M315.13,261.3c-1.24-.42-2.35-1.25-3.1-2.46-1.68-2.73-.82-6.3,1.9-7.97,13.31-8.18,22-27.41,13.71-40.89-8.22-13.38-25.79-17.57-39.16-9.35-2.73,1.68-6.3.82-7.97-1.9-1.68-2.73-.82-6.3,1.9-7.97,18.82-11.57,43.55-5.67,55.11,13.15,5.58,9.07,6.46,20.33,2.49,31.71-3.62,10.39-10.91,19.55-20,25.13-1.52.94-3.31,1.08-4.88.56Z"/><path class="cls-8" d="M184.58,220.71c-15.77-13.79-35.04-28.42-53.45-22.58-15.31,4.86-24.22,24.59-20.25,42.28,3.96,17.7,19.32,31.67,73.7-19.71Z"/><path d="M132.03,262.15c-1.6.43-3.37.18-4.84-.84-17.4-12.16-27.62-35.88-14.6-54.52,12.66-18.11,37.68-22.54,55.79-9.89,2.62,1.83,3.26,5.45,1.43,8.07-1.83,2.63-5.45,3.26-8.07,1.43-12.87-8.99-30.65-5.84-39.64,7.03-8.87,12.68-1,29.47,11.74,38.37,2.62,1.83,3.27,5.45,1.43,8.07-.81,1.16-1.97,1.93-3.23,2.27Z"/><path class="cls-8" d="M258.92,260.3c-5.05,0-9.15-4.1-9.15-9.15s4.1-9.11,9.15-9.11,9.11,4.1,9.11,9.11-4.1,9.15-9.11,9.15ZM189.37,242.04c5.05,0,9.15,4.1,9.15,9.11s-4.1,9.15-9.15,9.15-9.11-4.1-9.11-9.15,4.1-9.11,9.11-9.11ZM314.83,238.5c-1.02-3.01-2.21-5.99-3.54-8.87-.35-.84-.77-1.68-1.19-2.52-8.48-17.07-22.15-31.16-38.98-40.24-.63-.35-1.3-.7-1.96-1.02-2.98-1.54-6.07-2.91-9.22-4.1h-.03c-10.38-3.96-21.59-6.13-33.37-6.13s-23.77,2.31-34.39,6.52c-2.56.98-5.01,2.07-7.43,3.29-.74.35-1.44.7-2.17,1.12-16.26,8.62-29.65,21.91-38.31,38.1-.28.49-.53.98-.77,1.51-.91,1.75-1.75,3.54-2.52,5.36-4.8,11.08-7.47,23.27-7.47,36.11,0,50.83,41.68,92.01,93.07,92.01s93.07-41.19,93.07-92.01c0-10.17-1.68-19.98-4.77-29.13"/><path d="M224.42,331.04s-.05,0-.08,0c-3.2-.04-5.76-2.68-5.72-5.88l.42-30.02c.05-3.2,2.74-5.72,5.88-5.71,3.2.04,5.76,2.68,5.72,5.88l-.42,30.03c-.04,3.17-2.63,5.72-5.8,5.72Z"/><path d="M244.71,279.17h-38.09c-3.2,0-5.8-2.6-5.8-5.8s2.59-5.8,5.8-5.8h38.09c3.2,0,5.8,2.6,5.8,5.8s-2.59,5.8-5.8,5.8Z"/><path d="M224.43,300.64c-1.67,0-3.32-.72-4.47-2.1l-17.81-21.47c-2.04-2.46-1.7-6.12.76-8.16,2.46-2.06,6.12-1.71,8.16.76l17.81,21.47c2.04,2.46,1.7,6.12-.76,8.16-1.08.9-2.39,1.34-3.7,1.34Z"/><path d="M226.9,300.64c-1.3,0-2.61-.44-3.7-1.34-2.46-2.04-2.81-5.7-.76-8.16l17.81-21.47c2.04-2.47,5.7-2.82,8.16-.76,2.47,2.04,2.81,5.7.76,8.16l-17.81,21.47c-1.15,1.38-2.8,2.1-4.47,2.1Z"/><path d="M224.63,335.28c-22.09,0-40.06-17.97-40.06-40.06,0-3.2,2.59-5.8,5.8-5.8s5.8,2.6,5.8,5.8c0,15.7,12.77,28.47,28.47,28.47s28.47-12.77,28.47-28.47c0-3.2,2.59-5.8,5.8-5.8s5.8,2.6,5.8,5.8c0,22.09-17.97,40.06-40.06,40.06Z"/><path d="M139.28,268.47c0-15.7,4.24-30.43,11.71-43.04v-.03c8.87-15.18,22.29-27.31,38.38-34.63,10.76-4.91,22.71-7.64,35.26-7.64,13.92,0,27.1,3.37,38.73,9.29,18.12,9.29,32.53,24.82,40.24,43.78,4.14,9.95,6.38,20.86,6.38,32.28,0,47.08-38.28,85.36-85.35,85.36s-85.35-38.28-85.35-85.36ZM316.47,237.52c-1.05-3.23-2.28-6.34-3.72-9.39-.42-1.02-.91-2-1.4-2.98-8.45-16.79-21.59-30.81-37.72-40.28-.67-.42-1.37-.84-2.03-1.19-2.98-1.68-6.1-3.19-9.25-4.52-11.6-4.91-24.36-7.64-37.72-7.64-12.13,0-23.73,2.24-34.42,6.35-3.12,1.16-6.13,2.49-9.08,4-.7.35-1.44.7-2.14,1.09-15.81,8.48-29.02,21.21-38.07,36.67-1.19,2-2.28,4.07-3.3,6.17h-.03c-.84,1.68-1.61,3.37-2.31,5.12-4.91,11.57-7.61,24.26-7.61,37.58,0,53.46,43.5,96.96,96.96,96.96s96.96-43.5,96.96-96.96c0-10.83-1.79-21.24-5.12-30.95Z"/><path class="cls-9" d="M268.03,251.15c0,5.05-4.1,9.15-9.11,9.15s-9.15-4.1-9.15-9.15,4.1-9.11,9.15-9.11,9.11,4.1,9.11,9.11Z"/><path class="cls-9" d="M198.52,251.15c0,5.05-4.1,9.15-9.15,9.15s-9.11-4.1-9.11-9.15,4.1-9.11,9.11-9.11,9.15,4.1,9.15,9.11Z"/><path class="cls-12" d="M407.05,239.9c-1.41-.22-2.75,1.95-4.08,2.34-4.11-21.1-12.84-45.31-27.64-61.33-12.89-13.96-25.8-20.06-44.36-12.36-10.77,4.47-18.31,14.91-23.03,25.21-5.56-3.99-22.13-9.97-29.09-12.12-3.91-15.02-11.96-29.6-15.03-44.85-1.13-5.63-2.48-18.7.63-23.01,2.09-2.9,23.82-4.12,34.5-6.3,32.99-6.73,58.74-10.89,83.88,26.45,27.47,40.79,27.56,87.76,24.22,105.96Z"/><path class="cls-10" d="M405.71,238.95c-5.72-40.73-30.09-81.43-60.3-80.42-16.53.55-35.53,12.69-39.65,27.99-7.07-3.53-17.2-7.15-22.65-8.96-6.44-19.59-19.28-46.35-15.61-65.87,12.56-7.19,38.44-11.53,54.16-11.35,77.34.88,94.47,73.44,86.72,139.36-.17,1.42-.95-4.53-1.15-3.11-.05,0-1.48,2.37-1.53,2.38Z"/><circle class="cls-2" cx="408.39" cy="254.42" r="20.09" transform="translate(-38.47 432.83) rotate(-53.69)"/><path class="cls-6" d="M424.25,258.59c-.93,3.53-2.94,6.49-5.59,8.61-1.96,1.57-10.47-4.04-3.8-15.21,4.17-6.98-6.67-14.59-2.29-13.44,8.76,2.3,13.99,11.27,11.69,20.03Z"/><path class="cls-1" d="M400.58,216.21c.54.49,6.11,1.27,9.41-.97.25-6.79-.53-17.4-.53-17.4-2.92,6.15-14.02,4.57-14.02,4.57,2.06,5,5.14,13.8,5.14,13.8Z"/><path class="cls-1" d="M383.12,180.84c5.62,1.5,21.4-5.79,22.78-9.31-3.55-15.45-7.73-24.44-11.2-30.21-4.32,5.47-20.98,19.16-30.24,22.21,10.59,6.19,18.67,17.31,18.67,17.31Z"/><path class="cls-10" d="M87.34,109.29c-42.7,21.85-54.18,70.13-45.79,133.06,1.01-.17,1.48-.51,2.91-.48,1.82.03,2.54,0,4.36.48,4.58-24.35,18.84-61.04,41.94-73.21,21.49-11.33,44.6,3.82,53.09,24.24,2.03-1.53,8.05-4.15,10.67-5.33,7.88-3.58,21.74-9.25,30.11-11.47-.01-19.98,3.03-39.44,8.49-58.62-27.6-18.51-75.19-24.32-105.78-8.66Z"/><path class="cls-1" d="M78.31,114.62s23.79,2.51,31.62,42.33c16.46.19,29.65,14.18,29.65,14.18,10.42-17.44,19.35-53.63,16.84-67.85-35.64-9-64.53,1.2-78.11,11.34Z"/><path class="cls-12" d="M89.67,161.76c-34.89,16.85-44.53,79.37-43.26,79.65.25.05,2.11.86,2.41.94,4.58-24.35,18.84-61.04,41.94-73.21,21.49-11.33,44.6,3.82,53.09,24.24,2.03-1.53,5.44-3.89,8.05-5.08-4.18-8.39-25.7-44.18-62.23-26.55Z"/><path class="cls-1" d="M39.69,224.64s4.51-.73,8.99,2.3c1.67-6.46,3.98-13.98,3.98-13.98-5.68-4.22-13.65-3.36-13.65-3.36-.21,4.47.68,15.03.68,15.03Z"/><path class="cls-1" d="M41.01,178.9s12.83.7,23.41,7.9c7.07-11.88,13.88-17.3,13.88-17.3-7.43-13.83-29.69-18.16-29.69-18.16-4.6,9.08-7.61,27.56-7.61,27.56Z"/><path class="cls-1" d="M281.8,105.82c11.48,6.67,34.89,39.33,28.01,72.07,8.38-12.96,23.99-19.37,37.06-19.39,9.56-7.34,3.91-49.06-11.03-57.29-30.85-3.73-54.04,4.6-54.04,4.6Z"/><circle class="cls-2" cx="44.41" cy="260.62" r="20.09"/><path class="cls-6" d="M60.81,260.62c0,3.65-1.19,7.03-3.21,9.75-1.49,2.02-11.16-1.24-7.55-13.74,2.25-7.81-10.16-12.41-5.64-12.41,9.06,0,16.4,7.34,16.4,16.4Z"/><path class="cls-3" d="M361.16,90.49c-12.98-28.33-35.33-39.32-65.6-44.95-57.77-10.75-87.41,10.84-104.93,64.27-1.3,3.98-1.2,4.05-2.19,8.12-5.24,21.55-11.87,42.73-11,64.94,5.83-1.79,3.6-.18,9.59-1.41,27.58-5.68,50.52-6.09,78.18-1.41,6.68,1.13,13.59,2.33,20.12,4.08-5-16.53-14.56-32.38-18.63-49.19-1.5-6.2-5.03-26.57-1.76-31.5,7.83-43.39,57.35-38.75,84.11-15.66,0,0,7.48,7.65,12.66,17.54,3.53-1.9,2.06-6.8,6.01-7.02.79-.04-3.21-1.37-2.55-1.24-1.27-2.7-2.78-3.88-4.01-6.57Z"/><path class="cls-5" d="M277.28,177.96c-3.28-.64-7.47-1.76-11.03-2.36-15.94-2.7-30.03-4.05-44.21-3.5-11.48.44-21.9,1.52-34.76,4.17-3.47.71-8.2,1.57-11.72,2.52-.24-20.2,1.78-39.9,6.08-57.59.9-3.7,1.91-7.66,3.19-11.56,14.64-44.64,44.68-70.08,84.59-71.62,7.96-.31,16.37.35,24.99,1.95,29.87,5.56,61.15,28.85,72.75,54.18.2.44.38.92.56,1.43-1.4.51-2.7,1.15-3.91,1.82-4.97-7.85-10.34-13.38-10.62-13.66l-.17-.18-.19-.16c-14.09-12.16-33.7-20.51-50.93-18.63-61.56,6.72-40.88,71.27-40.82,71.53,2.35,9.71,6.4,19.02,10.32,28.02,1.76,4.04,4.33,9.75,5.87,13.64Z"/><path class="cls-4" d="M176.34,154.44c20.47-7.68,65.62-15.89,90.83-.05-8.89-17.74-9.47-41.95-9.47-41.95-12.35-7.68-52.5-23.37-71.39-7.12-8.72,25.39-9.97,49.12-9.97,49.12Z"/><path class="cls-4" d="M208.84,66.24c10.94-3.76,50.59-6.39,57.77,15.99,9.62-13.73,29.74-16.66,29.74-16.66-6.73-9.06-23.86-27.86-46.6-24.67-27,7.26-40.9,25.34-40.9,25.34Z"/><path class="cls-4" d="M325.35,51.62c2.45,7.74-4.26,14.8-4.26,14.8,10.66,1.92,20.54,8.26,27.66,13.68,4.79-3.15,4.23-6.7,4.23-6.7-6.39-8.43-19.53-17.6-27.63-21.78Z"/><circle class="cls-2" cx="373.35" cy="115.86" r="22.34" transform="translate(79.45 373.61) rotate(-58.49)"/><path class="cls-6" d="M391.15,119.82c-.88,3.97-2.99,7.34-5.84,9.81-2.11,1.83-11.81-4.04-4.88-16.74,4.33-7.93-8.04-15.93-3.12-14.83,9.83,2.18,16.03,11.93,13.85,21.76Z"/><path d="M300.86,225.29c-1.45,0-2.89-.35-4.16-1.01-9.25-4.77-34.77-15.86-71.99-15.9-37.21.04-62.73,11.13-71.98,15.9-1.28.66-2.72,1.01-4.16,1.01-3.83,0-7.16-2.32-8.3-5.78-1.44-4.38-4.26-12.72-6.94-19.36-1.51-3.74,0-7.95,3.62-9.99,31.95-18.13,68.83-20.83,87.97-20.83s55.66,2.71,87.59,20.84c3.61,2.05,5.13,6.25,3.62,9.99-2.69,6.65-5.5,14.98-6.94,19.36-1.14,3.46-4.48,5.78-8.3,5.78h0Z"/><path class="cls-7" d="M313.2,193.38c.58-1.45.02-3.09-1.39-3.89-30.73-17.45-66.75-20.55-86.66-20.55s-56.3,3.09-87.05,20.55c-1.4.8-1.97,2.45-1.39,3.89,2.76,6.82,5.62,15.27,7.21,20.09.64,1.94,2.98,2.83,4.86,1.86,9.39-4.84,36.64-16.84,76.18-16.88,39.54.04,66.78,12.04,76.18,16.88,1.88.97,4.22.08,4.86-1.86,1.59-4.82,4.45-13.27,7.21-20.09Z"/><ellipse class="cls-11" cx="152.53" cy="200.13" rx="5.5" ry="5.2"/><ellipse class="cls-11" cx="176.08" cy="193.48" rx="5.5" ry="5.2"/><ellipse class="cls-11" cx="200.65" cy="188.28" rx="5.5" ry="5.2"/><ellipse class="cls-11" cx="298.26" cy="200.13" rx="5.5" ry="5.2"/><ellipse class="cls-11" cx="274.72" cy="193.48" rx="5.5" ry="5.2"/><ellipse class="cls-11" cx="250.14" cy="188.28" rx="5.5" ry="5.2"/><ellipse class="cls-11" cx="226.26" cy="187.21" rx="5.5" ry="5.2"/><path class="cls-11" d="M308.05,195.9c-.38-.2-38.05-19.6-81.79-19.6s-81.21,17.34-81.58,17.51l-1.47-2.79c.38-.18,38.47-17.84,83.05-17.84s83.01,19.79,83.39,19.99l-1.59,2.73Z"/></svg>