<?xml version="1.0" encoding="UTF-8"?><svg id="pirate" xmlns="http://www.w3.org/2000/svg" viewBox="0 0 450 450"><defs><style>.cls-1{fill:none;stroke:#000;stroke-linecap:round;stroke-linejoin:round;stroke-width:11px;}.cls-2{fill:#d32a28;}.cls-3{fill:#ecb559;}.cls-4{fill:#212323;}.cls-5{fill:#fff;}</style></defs><path class="cls-3" d="M258.49,220.51c-5.05,0-9.15-4.1-9.15-9.15s4.1-9.11,9.15-9.11,9.11,4.1,9.11,9.11-4.1,9.15-9.11,9.15ZM188.94,202.24c5.05,0,9.15,4.1,9.15,9.11s-4.1,9.15-9.15,9.15-9.11-4.1-9.11-9.15,4.1-9.11,9.11-9.11ZM314.4,198.7c-1.02-3.01-2.21-5.99-3.54-8.87-.35-.84-.77-1.68-1.19-2.52-8.48-17.07-22.15-31.16-38.98-40.24-.63-.35-1.3-.7-1.96-1.02-2.98-1.54-6.07-2.91-9.22-4.1h-.03c-10.38-3.96-21.59-6.13-33.37-6.13s-23.77,2.31-34.39,6.52c-2.56.98-5.01,2.07-7.43,3.29-.74.35-1.44.7-2.17,1.12-16.26,8.62-29.65,21.91-38.31,38.1-.28.49-.53.98-.77,1.51-.91,1.75-1.75,3.54-2.52,5.36-4.8,11.08-7.47,23.27-7.47,36.11,0,50.83,41.68,92.01,93.07,92.01s93.07-41.19,93.07-92.01c0-10.17-1.68-19.98-4.77-29.13"/><path class="cls-3" d="M199.78,165.92c-11.62-17.43-26.4-36.58-45.7-35.75-16.05.69-29.8,17.41-30.59,35.53-.79,18.12,10.38,35.62,76.29.22Z"/><path class="cls-3" d="M254.22,173.73c2.71-16.93,14.68-33.04,31.37-36.98,16.69-3.93,36.46,7.72,37.98,24.8,1.44,16.17-12.03,29.68-25.64,38.52-2.88,1.87-6.32,3.73-9.6,2.7-1.37-.43-2.54-1.33-3.67-2.21-11.57-8.97-23.14-17.94-30.45-26.83Z"/><path d="M244.28,239.38h-38.09c-3.2,0-5.8-2.6-5.8-5.8s2.59-5.8,5.8-5.8h38.09c3.2,0,5.8,2.6,5.8,5.8s-2.59,5.8-5.8,5.8Z"/><path d="M224,260.84c-1.67,0-3.32-.72-4.47-2.1l-17.81-21.47c-2.04-2.46-1.7-6.12.76-8.16,2.46-2.06,6.12-1.71,8.16.76l17.81,21.47c2.04,2.46,1.7,6.12-.76,8.16-1.08.9-2.39,1.34-3.7,1.34Z"/><path d="M226.47,260.84c-1.3,0-2.61-.44-3.7-1.34-2.46-2.04-2.81-5.7-.76-8.16l17.81-21.47c2.04-2.47,5.7-2.82,8.16-.76,2.47,2.04,2.81,5.7.76,8.16l-17.81,21.47c-1.15,1.38-2.8,2.1-4.47,2.1Z"/><path d="M138.24,192.2c-1.66,0-3.3-.71-4.45-2.08-13.62-16.29-17.3-41.85.14-56.44,16.94-14.17,42.26-11.92,56.44,5.02,2.05,2.45,1.73,6.11-.73,8.17-2.45,2.06-6.11,1.73-8.17-.73-10.07-12.04-28.06-13.64-40.1-3.57-11.87,9.93-8.66,28.19,1.31,40.11,2.05,2.45,1.73,6.11-.73,8.17-1.09.91-2.41,1.35-3.72,1.35Z"/><path d="M312.38,199.08c-1.31,0-2.63-.44-3.72-1.35-2.46-2.05-2.78-5.71-.73-8.17,10.02-11.98,12.16-32.97.02-43.13-12.04-10.07-30.03-8.48-40.11,3.57-2.06,2.46-5.71,2.78-8.16.73-2.46-2.05-2.78-5.71-.73-8.17,14.17-16.95,39.49-19.2,56.44-5.02,8.17,6.83,12.58,17.23,12.43,29.28-.14,11-4.14,22-10.99,30.18-1.15,1.37-2.79,2.08-4.45,2.08Z"/><path d="M138.85,228.67c0-15.7,4.24-30.43,11.71-43.04v-.03c8.87-15.18,22.29-27.31,38.38-34.63,10.76-4.91,22.71-7.64,35.26-7.64,13.92,0,27.1,3.37,38.73,9.29,18.12,9.29,32.53,24.82,40.24,43.78,4.14,9.95,6.38,20.86,6.38,32.28,0,47.08-38.28,85.36-85.35,85.36s-85.35-38.28-85.35-85.36ZM316.05,197.72c-1.05-3.23-2.28-6.34-3.72-9.39-.42-1.02-.91-2-1.4-2.98-8.45-16.79-21.59-30.81-37.72-40.28-.67-.42-1.37-.84-2.03-1.19-2.98-1.68-6.1-3.19-9.25-4.52-11.6-4.91-24.36-7.64-37.72-7.64-12.13,0-23.73,2.24-34.42,6.35-3.12,1.16-6.13,2.49-9.08,4-.7.35-1.44.7-2.14,1.09-15.81,8.48-29.02,21.21-38.07,36.67-1.19,2-2.28,4.07-3.3,6.17h-.03c-.84,1.68-1.61,3.37-2.31,5.12-4.91,11.57-7.61,24.26-7.61,37.58,0,53.46,43.5,96.96,96.96,96.96s96.96-43.5,96.96-96.96c0-10.83-1.79-21.24-5.12-30.95Z"/><path class="cls-4" d="M267.6,211.36c0,5.05-4.1,9.15-9.11,9.15s-9.15-4.1-9.15-9.15,4.1-9.11,9.15-9.11,9.11,4.1,9.11,9.11Z"/><path class="cls-4" d="M198.09,211.36c0,5.05-4.1,9.15-9.15,9.15s-9.11-4.1-9.11-9.15,4.1-9.11,9.11-9.11,9.15,4.1,9.15,9.11Z"/><line class="cls-1" x1="224.21" y1="254.07" x2="224.21" y2="271.94"/><path d="M265.04,285.25c-.49,8.04-5.64,14.92-12.74,17.94-2.29,1-4.76,1.56-7.35,1.66-1.68.06-3.3-.06-4.87-.38-9.81-1.93-19.85-1.96-29.66-.02-1.6.33-3.24.46-4.93.4-1.99-.08-3.92-.44-5.74-1.04-7.92-2.65-13.81-9.92-14.33-18.55-.44-7.13,2.7-13.54,7.78-17.64,0,0,.02-.02.03-.03,3.59-2.86,8.14-4.58,13.08-4.58,1.39,0,2.75.14,4.08.4,9.83,1.93,19.86,1.93,29.69,0,1.33-.25,2.67-.4,4.06-.4,2.24,0,4.41.35,6.43,1.01,2.43.77,4.68,2.01,6.64,3.57.03.02.05.03.05.03,5.09,4.09,8.22,10.51,7.77,17.64Z"/><path d="M244.15,274c1.06,0,2.07.16,3,.46.03.01.06.02.09.03,1.1.35,2.15.92,3.11,1.69.06.05.11.09.17.14,2.45,2.05,3.73,5.05,3.53,8.27-.22,3.68-2.6,7.01-6.06,8.48-.03.01-.05.02-.08.03-1.05.46-2.19.71-3.38.76-.14,0-.28,0-.42,0-.65,0-1.27-.06-1.85-.18-.02,0-.04,0-.06-.01-5.63-1.11-11.36-1.67-17.04-1.67s-11.34.56-16.88,1.65c-.03,0-.07.01-.1.02-.58.12-1.19.18-1.86.18-.14,0-.28,0-.4,0-.92-.04-1.84-.2-2.68-.48-3.86-1.29-6.61-4.82-6.85-8.8-.2-3.27,1.15-6.33,3.7-8.39.05-.04.1-.08.15-.12,1.26-.97,3.3-2.05,6.06-2.05.64,0,1.3.06,2,.2,5.58,1.09,11.27,1.64,16.93,1.64s11.35-.55,16.93-1.64c.7-.13,1.35-.2,1.98-.2M244.15,263c-1.39,0-2.73.14-4.06.4-4.91.96-9.88,1.45-14.85,1.45s-9.93-.48-14.85-1.45c-1.33-.25-2.69-.4-4.08-.4-4.95,0-9.5,1.72-13.08,4.58-.02.02-.03.03-.03.03-5.07,4.09-8.22,10.51-7.78,17.64.52,8.63,6.42,15.9,14.33,18.55,1.82.6,3.75.96,5.74,1.04.28.01.56.02.84.02,1.4,0,2.76-.13,4.09-.41,4.88-.97,9.81-1.44,14.74-1.44s9.99.49,14.92,1.46c1.3.26,2.65.4,4.03.4.28,0,.55,0,.83-.02,2.59-.09,5.06-.66,7.35-1.66,7.1-3.02,12.25-9.89,12.74-17.94.44-7.13-2.69-13.54-7.77-17.64,0,0-.02-.02-.05-.03-1.96-1.56-4.2-2.8-6.64-3.57-2.02-.66-4.19-1.01-6.43-1.01h0Z"/><path class="cls-5" d="M256.21,272.13s-5.06,9.05-30.97,9.05-30.97-9.05-30.97-9.05c0,0,.02-.02.03-.03,3.47-2.86,7.87-4.58,12.65-4.58,1.34,0,2.66.14,3.94.4,9.5,1.93,19.21,1.93,28.71,0,1.28-.25,2.58-.4,3.93-.4,2.17,0,4.26.35,6.22,1.01,4.77,1.75,6.08,3.35,6.42,3.57.03.02.05.03.05.03Z"/><path class="cls-2" d="M194.26,295.28s5.06-4.16,30.97-4.16c25.92,0,30.97,4.16,30.97,4.16,0,0-.02.02-.03.03-3.47,2.86-7.87,4.58-12.65,4.58-1.34,0-2.66-.14-3.94-.4-9.5-1.93-19.21-1.93-28.71,0-1.28.25-2.58.4-3.93.4-2.17,0-4.26-.35-6.22-1.01-4.77-1.75-6.08-3.35-6.42-3.57-.03-.02-.05-.03-.05-.03Z"/></svg>