<?xml version="1.0" encoding="UTF-8"?><svg id="focusbear" xmlns="http://www.w3.org/2000/svg" viewBox="0 0 450 450"><metadata><c2pa:manifest xmlns:c2pa="http://c2pa.org/manifest">AAA0RGp1bWIAAAAeanVtZGMycGEAEQAQgAAAqgA4m3EDYzJwYQAAADQeanVtYgAAAEdqdW1kYzJtYQARABCAAACqADibcQN1cm46dXVpZDoxZGZjZjI4My1hMjEwLTRjMTAtOGE4ZC01YmNjODA3YTExOTkAAAABtGp1bWIAAAApanVtZGMyYXMAEQAQgAAAqgA4m3EDYzJwYS5hc3NlcnRpb25zAAAAANdqdW1iAAAAJmp1bWRjYm9yABEAEIAAAKoAOJtxA2MycGEuYWN0aW9ucwAAAACpY2JvcqFnYWN0aW9uc4GjZmFjdGlvbmtjMnBhLmVkaXRlZG1zb2Z0d2FyZUFnZW50bUFkb2JlIEZpcmVmbHlxZGlnaXRhbFNvdXJjZVR5cGV4U2h0dHA6Ly9jdi5pcHRjLm9yZy9uZXdzY29kZXMvZGlnaXRhbHNvdXJjZXR5cGUvY29tcG9zaXRlV2l0aFRyYWluZWRBbGdvcml0aG1pY01lZGlhAAAArGp1bWIAAAAoanVtZGNib3IAEQAQgAAAqgA4m3EDYzJwYS5oYXNoLmRhdGEAAAAAfGNib3KlamV4Y2x1c2lvbnOBomVzdGFydBiyZmxlbmd0aBlFsGRuYW1lbmp1bWJmIG1hbmlmZXN0Y2FsZ2ZzaGEyNTZkaGFzaFggO26qhMIo0IGmUvt/gBE5FvM3qoB/xzDW8kMBSSr1sHtjcGFkSQAAAAAAAAAAAAAAAgtqdW1iAAAAJGp1bWRjMmNsABEAEIAAAKoAOJtxA2MycGEuY2xhaW0AAAAB32Nib3KoaGRjOnRpdGxlb0dlbmVyYXRlZCBJbWFnZWlkYzpmb3JtYXRtaW1hZ2Uvc3ZnK3htbGppbnN0YW5jZUlEeCx4bXA6aWlkOmE2ZTRkOTg5LTMzNDEtNDlkOC1hZWZiLTIxYjc2NjkxNmViMG9jbGFpbV9nZW5lcmF0b3J4NkFkb2JlX0lsbHVzdHJhdG9yLzI5LjMgYWRvYmVfYzJwYS8wLjcuNiBjMnBhLXJzLzAuMjUuMnRjbGFpbV9nZW5lcmF0b3JfaW5mb4G/ZG5hbWVxQWRvYmUgSWxsdXN0cmF0b3JndmVyc2lvbmQyOS4z/2lzaWduYXR1cmV4GXNlbGYjanVtYmY9YzJwYS5zaWduYXR1cmVqYXNzZXJ0aW9uc4KiY3VybHgnc2VsZiNqdW1iZj1jMnBhLmFzc2VydGlvbnMvYzJwYS5hY3Rpb25zZGhhc2hYIEppwb3/qN5BMHi+JO3M+DE6wdFklTRWcaANawazN9SvomN1cmx4KXNlbGYjanVtYmY9YzJwYS5hc3NlcnRpb25zL2MycGEuaGFzaC5kYXRhZGhhc2hYIPUMsFE9bYbIxSCuMxla7tzwyk+rNgnNiz4u1EyhmUnkY2FsZ2ZzaGEyNTYAADAQanVtYgAAAChqdW1kYzJjcwARABCAAACqADibcQNjMnBhLnNpZ25hdHVyZQAAAC/gY2JvctKEWQzvogE4JBghglkGPTCCBjkwggQhoAMCAQICEBWN/yesI9K4JUtOYzceHZ4wDQYJKoZIhvcNAQELBQAwdTELMAkGA1UEBhMCVVMxIzAhBgNVBAoTGkFkb2JlIFN5c3RlbXMgSW5jb3Jwb3JhdGVkMR0wGwYDVQQLExRBZG9iZSBUcnVzdCBTZXJ2aWNlczEiMCAGA1UEAxMZQWRvYmUgUHJvZHVjdCBTZXJ2aWNlcyBHMzAeFw0yNDEwMTUwMDAwMDBaFw0yNTEwMTUyMzU5NTlaMIGrMRMwEQYDVQQDDApBZG9iZSBDMlBBMSgwJgYDVQQLDB9Db250ZW50IEF1dGhlbnRpY2l0eSBJbml0aWF0aXZlMRMwEQYDVQQKDApBZG9iZSBJbmMuMREwDwYDVQQHDAhTYW4gSm9zZTETMBEGA1UECAwKQ2FsaWZvcm5pYTELMAkGA1UEBhMCVVMxIDAeBgkqhkiG9w0BCQEWEWNhaS1vcHNAYWRvYmUuY29tMIIBIjANBgkqhkiG9w0BAQEFAAOCAQ8AMIIBCgKCAQEAwxDBgdB9PXLpMXPw5oNgYkFWDPP1aSfth9TZPINOtOQlhp1v4h+hMxZWFjkZ3RJRuoSBrsSSYBaEfiDMKisi/sOxuFHKBV//l1rv3SrjrixANXIlqjGdIYydaMaFa/5ovFz/m4+SUz0ccYzqw+vSAzuRySGnpgm8Gmj+SEJcL/GIHzqU9bUy3NsizY2oY28yj32rbkOqeADSM51OqIJKloEBFFexzMunzpU+K2sLqheoR8FJMaR0fGXa/gqRzhkiBFhwUhLPS9s6+TCnz09UZMlXbdG/iFKj3UPFUDjqh0wtFgcz24DrUlaWeiltKHouymBHuirzvmOG0VtSPepxOQIDAQABo4IBjDCCAYgwDAYDVR0TAQH/BAIwADAOBgNVHQ8BAf8EBAMCB4AwHgYDVR0lBBcwFQYJKoZIhvcvAQEMBggrBgEFBQcDBDCBjgYDVR0gBIGGMIGDMIGABgkqhkiG9y8BAgMwczBxBggrBgEFBQcCAjBlDGNZb3UgYXJlIG5vdCBwZXJtaXR0ZWQgdG8gdXNlIHRoaXMgTGljZW5zZSBDZXJ0aWZpY2F0ZSBleGNlcHQgYXMgcGVybWl0dGVkIGJ5IHRoZSBsaWNlbnNlIGFncmVlbWVudC4wXQYDVR0fBFYwVDBSoFCgToZMaHR0cDovL3BraS1jcmwuc3ltYXV0aC5jb20vY2FfN2E1YzNhMGM3MzExNzQwNmFkZDE5MzEyYmMxYmMyM2YvTGF0ZXN0Q1JMLmNybDA3BggrBgEFBQcBAQQrMCkwJwYIKwYBBQUHMAGGG2h0dHA6Ly9wa2ktb2NzcC5zeW1hdXRoLmNvbTAfBgNVHSMEGDAWgBRXKXoyTcz+5DVOwB8kc85zU6vfajANBgkqhkiG9w0BAQsFAAOCAgEAqrl6FLQ+c9LYaf0igyTgErNL9XmmieiT3ohKFevJ3BN7kWkZD1znbVw3XnX5tgQaKq+AiSCldNxYEKqU+Rq9Lr26GGglBSA0s/Ds2kw+2LlnTmojAHCH3CvVRbhGHHrashmnfgwmF1TSkaWk7NxEhbt9wQoiEMkLSQeM4S4Cu+176FzEdy+zzkDkRWqeSOQO/qG2WRto/vIq30ECf6v6FtazJI1CWIqhBK5oJioSNbLsCVJhar3Uca9D11ujeZW4k2jPCsnzriTmFqVftd3k2SXUQg7wQcQcXfKBItWZt8ztn0IYoZzJa1x9l9dvXKAJvNsDoz4uDerS8z9rzLsEQvzL1yPbTp4+/6mTTAWsoaDtmkZgm3X+sffPX3XzMFmfzIHiYfUja5nKK2bs4P71tit/1U/FD2xdlpzZSupRqCMGz+UTeXI8IrN5ZR/+F8rSsmRAStjnggz/wDucwcDlJbY4/RKq3BrAi4LamLMIfwo/dbL55TDlIOd7HCfmSgabc1WO0Kji3LW/VZnP9VG8WiUG+WqtN1OQIAZmFUOWdXQGLag+I1OaZ1BXJDNsJiXcg2TGNBSEPo44Akfn9MzFGKyB5UurMN4NH0qlamhrhKiV0+b73Fjx330P/frxBmzx5NpAQhNKksx+F4z1S8Ay1o2TBIkkeAFbDzy8f/FxuytZBqUwggahMIIEiaADAgECAhAMqLZUe4nm0gaJdc2Lm4niMA0GCSqGSIb3DQEBCwUAMGwxCzAJBgNVBAYTAlVTMSMwIQYDVQQKExpBZG9iZSBTeXN0ZW1zIEluY29ycG9yYXRlZDEdMBsGA1UECxMUQWRvYmUgVHJ1c3QgU2VydmljZXMxGTAXBgNVBAMTEEFkb2JlIFJvb3QgQ0EgRzIwHhcNMTYxMTI5MDAwMDAwWhcNNDExMTI4MjM1OTU5WjB1MQswCQYDVQQGEwJVUzEjMCEGA1UEChMaQWRvYmUgU3lzdGVtcyBJbmNvcnBvcmF0ZWQxHTAbBgNVBAsTFEFkb2JlIFRydXN0IFNlcnZpY2VzMSIwIAYDVQQDExlBZG9iZSBQcm9kdWN0IFNlcnZpY2VzIEczMIICIjANBgkqhkiG9w0BAQEFAAOCAg8AMIICCgKCAgEAtx8uvb0Js1xIbP4Mg65sAepReCWkgD6Jp7GyiGTa9ol2gfn5HfOV/HiYjZiOz+TuHFU+DXNad86xEqgVeGVMlvIHGe/EHcKBxvEDXdlTXB5zIEkfl0/SGn7J6vTX8MNybfSi95eQDUOZ9fjCaq+PBFjS5ZfeNmzi/yR+MsA0jKKoWarSRCFFFBpUFQWfAgLyXOyxOnXQOQudjxNj6Wu0X0IB13+IH11WcKcWEWXM4j4jh6hLy29Cd3EoVG3oxcVenMF/EMgD2tXjx4NUbTNB1/g9+MR6Nw5Mhp5k/g3atNExAxhtugC+T3SDShSEJfs2quiiRUHtX3RhOcK1s1OJgT5s2s9xGy5/uxVpcAIaK2KiDJXW3xxN8nXPmk1NSVu/mxtfapr4TvSJbhrU7UA3qhQY9n4On2sbH1X1Tw+7LTek8KCA5ZDghOERPiIp/Jt893qov1bE5rJkagcVg0Wqjh89NhCaBA8VyRt3ovlGyCKdNV2UL3bn5vdFsTk7qqmp9makz1/SuVXYxIf6L6+8RXOatXWaPkmucuLE1TPOeP7S1N5JToFCs80l2D2EtxoQXGCR48K/cTUR5zV/fQ+hdIOzoo0nFn77Y8Ydd2k7/x9BE78pmoeMnw6VXYfXCuWEgj6p7jpbLoxQMoWMCVzlg72WVNhJFlSw4aD8fc6ezeECAwEAAaOCATQwggEwMBIGA1UdEwEB/wQIMAYBAf8CAQAwNQYDVR0fBC4wLDAqoCigJoYkaHR0cDovL2NybC5hZG9iZS5jb20vYWRvYmVyb290ZzIuY3JsMA4GA1UdDwEB/wQEAwIBBjAUBgNVHSUEDTALBgkqhkiG9y8BAQcwVwYDVR0gBFAwTjBMBgkqhkiG9y8BAgMwPzA9BggrBgEFBQcCARYxaHR0cHM6Ly93d3cuYWRvYmUuY29tL21pc2MvcGtpL3Byb2Rfc3ZjZV9jcHMuaHRtbDAkBgNVHREEHTAbpBkwFzEVMBMGA1UEAxMMU1lNQy00MDk2LTMzMB0GA1UdDgQWBBRXKXoyTcz+5DVOwB8kc85zU6vfajAfBgNVHSMEGDAWgBSmHOFtVCRMqI9Icr9uqYzV5Owx1DANBgkqhkiG9w0BAQsFAAOCAgEAcc7lB4ym3C3cyOA7ZV4AkoGV65UgJK+faThdyXzxuNqlTQBlOyXBGFyevlm33BsGO1mDJfozuyLyT2+7IVxWFvW5yYMV+5S1NeChMXIZnCzWNXnuiIQSdmPD82TEVCkneQpFET4NDwSxo8/ykfw6Hx8fhuKz0wjhjkWMXmK3dNZXIuYVcbynHLyJOzA+vWU3sH2T0jPtFp7FN39GZne4YG0aVMlnHhtHhxaXVCiv2RVoR4w1QtvKHQpzfPObR53Cl74iLStGVFKPwCLYRSpYRF7J6vVS/XxW4LzvN2b6VEKOcvJmN3LhpxFRl3YYzW+dwnwtbuHW6WJlmjffbLm1MxLFGlG95aCz31X8wzqYNsvb9+5AXcv8Ll69tLXmO1OtsY/3wILNUEp4VLZTE3wqm3n8hMnClZiiKyZCS7L4E0mClbx+BRSMH3eVo6jgve41/fK3FQM4QCNIkpGs7FjjLy+ptC+JyyWqcfvORrFV/GOgB5hD+G5ghJcIpeigD/lHsCRYsOa5sFdqREhwIWLmSWtNwfLZdJ3dkCc7yRpm3gal6qRfTkYpxTNxxKyvKbkaJDoxR9vtWrC3iNrQd9VvxC3TXtuzoHbqumeqgcAqefWF9u6snQ4Q9FkXzeuJArNuSvPIhgBjVtggH0w0vm/lmCQYiC/Y12GeCxfgYlL33buiZnNpZ1RzdKFpdHN0VG9rZW5zgaFjdmFsWQ45MIIONTADAgEAMIIOLAYJKoZIhvcNAQcCoIIOHTCCDhkCAQMxDzANBglghkgBZQMEAgEFADCBggYLKoZIhvcNAQkQAQSgcwRxMG8CAQEGCWCGSAGG/WwHATAxMA0GCWCGSAFlAwQCAQUABCDc5/9smcKAiqbsYOZ9F/Nnx2kpltWx0LlNUV9acWIcOgIQPhi9OQrwf9cefORyEknl2RgPMjAyNTAzMDkwNjI5NDhaAgkA8GjeiDiQdFugggvAMIIFCjCCAvKgAwIBAgIQDAsvx3p4z7rtZVZUwZokAzANBgkqhkiG9w0BAQsFADBjMQswCQYDVQQGEwJVUzEXMBUGA1UEChMORGlnaUNlcnQsIEluYy4xOzA5BgNVBAMTMkRpZ2lDZXJ0IFRydXN0ZWQgRzQgUlNBNDA5NiBTSEEyNTYgVGltZVN0YW1waW5nIENBMB4XDTI0MTEyMDAwMDAwMFoXDTM2MDIxOTIzNTk1OVowWzELMAkGA1UEBhMCVVMxETAPBgNVBAoTCERpZ2lDZXJ0MTkwNwYDVQQDEzBFQ0MyNTZfU0hBMjU2X1RpbWVzdGFtcF9SZXNwb25kZXJfQWRvYmVfTk9WXzIwMjQwWTATBgcqhkjOPQIBBggqhkjOPQMBBwNCAATQ/B6F+IGYpiqQQLxOfqkUmeTmSRWZzxSCtwM82siW/SbXazktRyEWmwIVs+8PJjhV9C4fUJ23IGRxsfzJM8leo4IBizCCAYcwDgYDVR0PAQH/BAQDAgeAMAwGA1UdEwEB/wQCMAAwFgYDVR0lAQH/BAwwCgYIKwYBBQUHAwgwIAYDVR0gBBkwFzAIBgZngQwBBAIwCwYJYIZIAYb9bAcBMB8GA1UdIwQYMBaAFLoW2W1NhS9zKXaaL3WMaiCPnshvMB0GA1UdDgQWBBTs0RxvfOegTeQxP4cACNSt1H02uzBaBgNVHR8EUzBRME+gTaBLhklodHRwOi8vY3JsMy5kaWdpY2VydC5jb20vRGlnaUNlcnRUcnVzdGVkRzRSU0E0MDk2U0hBMjU2VGltZVN0YW1waW5nQ0EuY3JsMIGQBggrBgEFBQcBAQSBgzCBgDAkBggrBgEFBQcwAYYYaHR0cDovL29jc3AuZGlnaWNlcnQuY29tMFgGCCsGAQUFBzAChkxodHRwOi8vY2FjZXJ0cy5kaWdpY2VydC5jb20vRGlnaUNlcnRUcnVzdGVkRzRSU0E0MDk2U0hBMjU2VGltZVN0YW1waW5nQ0EuY3J0MA0GCSqGSIb3DQEBCwUAA4ICAQCi7MEg8nkvLauLI7cAj21DgnMErh0mntCt4c4tsW9yJQZdZv1n8E1dueayb6IiZ8mYambImrTeuVKwGqUSITZTiVhtFRP3zRD9DpFk+Ex4P010IStH/eD1lgK6bVfaY0gvzcIRQP3CwIzqBZAE81c5QINjPs81cvJLOFKd/cX7zOhoQvrziNDy15UNT5fuURe2fioANQsRNYOmVXAdg2TK7OktYD+EH/D8gWr7nHQhRJMuD54GNjiZnNPnYXz6F3j7Bu2aVlirvQGAAsrW27Lqhg9ksW5+aL+g9/lyqRoMrWLSy4KDQaztPB+PKskecO1R7dbJbw7UBFVl+GbGaUc4x6HvVLNNL5hHjiLrf9A4zxe52e9ZqpSU7kDu7dsRXvm+uLLMXjHFSx/j0stIcxnQHwOL4A5RRuUH1Xw1wz2CiGvIHNcoYrkqfkb6TsKJU7ntDqNKFKZ349sBErTdXwVoId4zS/cV/A5rO1Kw5aNO/zUTCtQkbcMg88XGWqImaYmIHhIvHaE1nRdPWCa0QhrxvioeP45p4/zqd/JrVbNsoEuEBSRIPB3+ViLaoFlimZRUePzwKYvyTrd6g72mVtF4Prbbvy1kqCUmsZDMFqn33DR0N8Qzqkzir3bufNyI5k95Rq3NXcbfNYDx9qZ8gjCu4NHtSxAdJKswzb9gi6jyFTCCBq4wggSWoAMCAQICEAc2N7ckVHzYR6z9KGYqXlswDQYJKoZIhvcNAQELBQAwYjELMAkGA1UEBhMCVVMxFTATBgNVBAoTDERpZ2lDZXJ0IEluYzEZMBcGA1UECxMQd3d3LmRpZ2ljZXJ0LmNvbTEhMB8GA1UEAxMYRGlnaUNlcnQgVHJ1c3RlZCBSb290IEc0MB4XDTIyMDMyMzAwMDAwMFoXDTM3MDMyMjIzNTk1OVowYzELMAkGA1UEBhMCVVMxFzAVBgNVBAoTDkRpZ2lDZXJ0LCBJbmMuMTswOQYDVQQDEzJEaWdpQ2VydCBUcnVzdGVkIEc0IFJTQTQwOTYgU0hBMjU2IFRpbWVTdGFtcGluZyBDQTCCAiIwDQYJKoZIhvcNAQEBBQADggIPADCCAgoCggIBAMaGNQZJs8E9cklRVcclA8TykTepl1Gh1tKD0Z5Mom2gsMyD+Vr2EaFEFUJfpIjzaPp985yJC3+dH54PMx9QEwsmc5Zt+FeoAn39Q7SE2hHxc7Gz7iuAhIoiGN/r2j3EF3+rGSs+QtxnjupRPfDWVtTnKC3r07G1decfBmWNlCnT2exp39mQh0YAe9tEQYncfGpXevA3eZ9drMvohGS0UvJ2R/dhgxndX7RUCyFobjchu0CsX7LeSn3O9TkSZ+8OpWNs5KbFHc02DVzV5huowWR0QKfAcsW6Th+xtVhNef7Xj3OTrCw54qVI1vCwMROpVymWJy71h6aPTnYVVSZwmCZ/oBpHIEPjQ2OAe3VuJyWQmDo4EbP29p7mO1vsgd4iFNmCKseSv6De4z6ic/rnH1pslPJSlRErWHRAKKtzQ87fSqEcazjFKfPKqpZzQmiftkaznTqj1QPgv/CiPMpC3BhIfxQ0z9JMq++bPf4OuGQq+nUoJEHtQr8FnGZJUlD0UfM2SU2LINIsVzV5K6jzRWC8I41Y99xh3pP+OcD5sjClTNfpmEpYPtMDiP6zj9NeS3YSUZPJjAw7W4oiqMEmCPkUEBIDfV8ju2TjY+Cm4T72wnSyPx4JduyrXUZ14mCjWAkBKAAOhFTuzuldyF4wEr1GnrXTdrnSDmuZDNIztM2xAgMBAAGjggFdMIIBWTASBgNVHRMBAf8ECDAGAQH/AgEAMB0GA1UdDgQWBBS6FtltTYUvcyl2mi91jGogj57IbzAfBgNVHSMEGDAWgBTs1+OC0nFdZEzfLmc/57qYrhwPTzAOBgNVHQ8BAf8EBAMCAYYwEwYDVR0lBAwwCgYIKwYBBQUHAwgwdwYIKwYBBQUHAQEEazBpMCQGCCsGAQUFBzABhhhodHRwOi8vb2NzcC5kaWdpY2VydC5jb20wQQYIKwYBBQUHMAKGNWh0dHA6Ly9jYWNlcnRzLmRpZ2ljZXJ0LmNvbS9EaWdpQ2VydFRydXN0ZWRSb290RzQuY3J0MEMGA1UdHwQ8MDowOKA2oDSGMmh0dHA6Ly9jcmwzLmRpZ2ljZXJ0LmNvbS9EaWdpQ2VydFRydXN0ZWRSb290RzQuY3JsMCAGA1UdIAQZMBcwCAYGZ4EMAQQCMAsGCWCGSAGG/WwHATANBgkqhkiG9w0BAQsFAAOCAgEAfVmOwJO2b5ipRCIBfmbW2CFC4bAYLhBNE88wU86/GPvHUF3iSyn7cIoNqilp/GnBzx0H6T5gyNgL5Vxb122H+oQgJTQxZ822EpZvxFBMYh0MCIKoFr2pVs8Vc40BIiXOlWk/R3f7cnQU1/+rT4osequFzUNf7WC2qk+RZp4snuCKrOX9jLxkJodskr2dfNBwCnzvqLx1T7pa96kQsl3p/yhUifDVinF2ZdrM8HKjI/rAJ4JErpknG6skHibBt94q6/aesXmZgaNWhqsKRcnfxI2g55j7+6adcq/Ex8HBanHZxhOACcS2n82HhyS7T6NJuXdmkfFynOlLAlKnN36TU6w7HQhJD5TNOXrd/yVjmScsPT9rp/Fmw0HNT7ZAmyEhQNC3EyTN3B14OuSereU0cZLXJmvkOHOrpgFPvT87eK1MrfvElXvtCl8zOYdBeHo46Zzh3SP9HSjTx/no8Zhf+yvYfvJGnXUsHicsJttvFXseGYs2uJPU5vIXmVnKcPA3v5gA3yAWTyf7YGcWoWa63VXAOimGsJigK+2VQbc61RWYMbRiCQ8KvYHZE/6/pNHzV9m8BPqC3jLfBInwAM1dwvnQI38AC+R2AibZ8GV2QqYphwlHK+Z/GqSFD/yYlvZVVCsfgPrA8g4r5db7qS9EFUrnEw4d2zc4GqEr9u3WfPwxggG4MIIBtAIBATB3MGMxCzAJBgNVBAYTAlVTMRcwFQYDVQQKEw5EaWdpQ2VydCwgSW5jLjE7MDkGA1UEAxMyRGlnaUNlcnQgVHJ1c3RlZCBHNCBSU0E0MDk2IFNIQTI1NiBUaW1lU3RhbXBpbmcgQ0ECEAwLL8d6eM+67WVWVMGaJAMwDQYJYIZIAWUDBAIBBQCggdEwGgYJKoZIhvcNAQkDMQ0GCyqGSIb3DQEJEAEEMBwGCSqGSIb3DQEJBTEPFw0yNTAzMDkwNjI5NDhaMCsGCyqGSIb3DQEJEAIMMRwwGjAYMBYEFPcTAlRkG5zO0lEtYsW/nymEjPz4MC8GCSqGSIb3DQEJBDEiBCDVimuK+5M+PBBzzGtyuM6ngzIJABvFBtTxoxy4bONxRTA3BgsqhkiG9w0BCRACLzEoMCYwJDAiBCC5eiZoHRjpuXxjPvhIOWRVdZeW2lBDRCyPjM3lJ+AAqTAKBggqhkjOPQQDAgRHMEUCIB7/1onVmjgQvDqD/boigzTnhutu/gF8vjVPDy163ehLAiEAuvAEKtc848FQIr41oLzWN7vqEsnt8qmI5WL5ysmu9DRjcGFkWROEAAAAAAAAAAAAAAAAAAAAAAAAAAAAAAAAAAAAAAAAAAAAAAAAAAAAAAAAAAAAAAAAAAAAAAAAAAAAAAAAAAAAAAAAAAAAAAAAAAAAAAAAAAAAAAAAAAAAAAAAAAAAAAAAAAAAAAAAAAAAAAAAAAAAAAAAAAAAAAAAAAAAAAAAAAAAAAAAAAAAAAAAAAAAAAAAAAAAAAAAAAAAAAAAAAAAAAAAAAAAAAAAAAAAAAAAAAAAAAAAAAAAAAAAAAAAAAAAAAAAAAAAAAAAAAAAAAAAAAAAAAAAAAAAAAAAAAAAAAAAAAAAAAAAAAAAAAAAAAAAAAAAAAAAAAAAAAAAAAAAAAAAAAAAAAAAAAAAAAAAAAAAAAAAAAAAAAAAAAAAAAAAAAAAAAAAAAAAAAAAAAAAAAAAAAAAAAAAAAAAAAAAAAAAAAAAAAAAAAAAAAAAAAAAAAAAAAAAAAAAAAAAAAAAAAAAAAAAAAAAAAAAAAAAAAAAAAAAAAAAAAAAAAAAAAAAAAAAAAAAAAAAAAAAAAAAAAAAAAAAAAAAAAAAAAAAAAAAAAAAAAAAAAAAAAAAAAAAAAAAAAAAAAAAAAAAAAAAAAAAAAAAAAAAAAAAAAAAAAAAAAAAAAAAAAAAAAAAAAAAAAAAAAAAAAAAAAAAAAAAAAAAAAAAAAAAAAAAAAAAAAAAAAAAAAAAAAAAAAAAAAAAAAAAAAAAAAAAAAAAAAAAAAAAAAAAAAAAAAAAAAAAAAAAAAAAAAAAAAAAAAAAAAAAAAAAAAAAAAAAAAAAAAAAAAAAAAAAAAAAAAAAAAAAAAAAAAAAAAAAAAAAAAAAAAAAAAAAAAAAAAAAAAAAAAAAAAAAAAAAAAAAAAAAAAAAAAAAAAAAAAAAAAAAAAAAAAAAAAAAAAAAAAAAAAAAAAAAAAAAAAAAAAAAAAAAAAAAAAAAAAAAAAAAAAAAAAAAAAAAAAAAAAAAAAAAAAAAAAAAAAAAAAAAAAAAAAAAAAAAAAAAAAAAAAAAAAAAAAAAAAAAAAAAAAAAAAAAAAAAAAAAAAAAAAAAAAAAAAAAAAAAAAAAAAAAAAAAAAAAAAAAAAAAAAAAAAAAAAAAAAAAAAAAAAAAAAAAAAAAAAAAAAAAAAAAAAAAAAAAAAAAAAAAAAAAAAAAAAAAAAAAAAAAAAAAAAAAAAAAAAAAAAAAAAAAAAAAAAAAAAAAAAAAAAAAAAAAAAAAAAAAAAAAAAAAAAAAAAAAAAAAAAAAAAAAAAAAAAAAAAAAAAAAAAAAAAAAAAAAAAAAAAAAAAAAAAAAAAAAAAAAAAAAAAAAAAAAAAAAAAAAAAAAAAAAAAAAAAAAAAAAAAAAAAAAAAAAAAAAAAAAAAAAAAAAAAAAAAAAAAAAAAAAAAAAAAAAAAAAAAAAAAAAAAAAAAAAAAAAAAAAAAAAAAAAAAAAAAAAAAAAAAAAAAAAAAAAAAAAAAAAAAAAAAAAAAAAAAAAAAAAAAAAAAAAAAAAAAAAAAAAAAAAAAAAAAAAAAAAAAAAAAAAAAAAAAAAAAAAAAAAAAAAAAAAAAAAAAAAAAAAAAAAAAAAAAAAAAAAAAAAAAAAAAAAAAAAAAAAAAAAAAAAAAAAAAAAAAAAAAAAAAAAAAAAAAAAAAAAAAAAAAAAAAAAAAAAAAAAAAAAAAAAAAAAAAAAAAAAAAAAAAAAAAAAAAAAAAAAAAAAAAAAAAAAAAAAAAAAAAAAAAAAAAAAAAAAAAAAAAAAAAAAAAAAAAAAAAAAAAAAAAAAAAAAAAAAAAAAAAAAAAAAAAAAAAAAAAAAAAAAAAAAAAAAAAAAAAAAAAAAAAAAAAAAAAAAAAAAAAAAAAAAAAAAAAAAAAAAAAAAAAAAAAAAAAAAAAAAAAAAAAAAAAAAAAAAAAAAAAAAAAAAAAAAAAAAAAAAAAAAAAAAAAAAAAAAAAAAAAAAAAAAAAAAAAAAAAAAAAAAAAAAAAAAAAAAAAAAAAAAAAAAAAAAAAAAAAAAAAAAAAAAAAAAAAAAAAAAAAAAAAAAAAAAAAAAAAAAAAAAAAAAAAAAAAAAAAAAAAAAAAAAAAAAAAAAAAAAAAAAAAAAAAAAAAAAAAAAAAAAAAAAAAAAAAAAAAAAAAAAAAAAAAAAAAAAAAAAAAAAAAAAAAAAAAAAAAAAAAAAAAAAAAAAAAAAAAAAAAAAAAAAAAAAAAAAAAAAAAAAAAAAAAAAAAAAAAAAAAAAAAAAAAAAAAAAAAAAAAAAAAAAAAAAAAAAAAAAAAAAAAAAAAAAAAAAAAAAAAAAAAAAAAAAAAAAAAAAAAAAAAAAAAAAAAAAAAAAAAAAAAAAAAAAAAAAAAAAAAAAAAAAAAAAAAAAAAAAAAAAAAAAAAAAAAAAAAAAAAAAAAAAAAAAAAAAAAAAAAAAAAAAAAAAAAAAAAAAAAAAAAAAAAAAAAAAAAAAAAAAAAAAAAAAAAAAAAAAAAAAAAAAAAAAAAAAAAAAAAAAAAAAAAAAAAAAAAAAAAAAAAAAAAAAAAAAAAAAAAAAAAAAAAAAAAAAAAAAAAAAAAAAAAAAAAAAAAAAAAAAAAAAAAAAAAAAAAAAAAAAAAAAAAAAAAAAAAAAAAAAAAAAAAAAAAAAAAAAAAAAAAAAAAAAAAAAAAAAAAAAAAAAAAAAAAAAAAAAAAAAAAAAAAAAAAAAAAAAAAAAAAAAAAAAAAAAAAAAAAAAAAAAAAAAAAAAAAAAAAAAAAAAAAAAAAAAAAAAAAAAAAAAAAAAAAAAAAAAAAAAAAAAAAAAAAAAAAAAAAAAAAAAAAAAAAAAAAAAAAAAAAAAAAAAAAAAAAAAAAAAAAAAAAAAAAAAAAAAAAAAAAAAAAAAAAAAAAAAAAAAAAAAAAAAAAAAAAAAAAAAAAAAAAAAAAAAAAAAAAAAAAAAAAAAAAAAAAAAAAAAAAAAAAAAAAAAAAAAAAAAAAAAAAAAAAAAAAAAAAAAAAAAAAAAAAAAAAAAAAAAAAAAAAAAAAAAAAAAAAAAAAAAAAAAAAAAAAAAAAAAAAAAAAAAAAAAAAAAAAAAAAAAAAAAAAAAAAAAAAAAAAAAAAAAAAAAAAAAAAAAAAAAAAAAAAAAAAAAAAAAAAAAAAAAAAAAAAAAAAAAAAAAAAAAAAAAAAAAAAAAAAAAAAAAAAAAAAAAAAAAAAAAAAAAAAAAAAAAAAAAAAAAAAAAAAAAAAAAAAAAAAAAAAAAAAAAAAAAAAAAAAAAAAAAAAAAAAAAAAAAAAAAAAAAAAAAAAAAAAAAAAAAAAAAAAAAAAAAAAAAAAAAAAAAAAAAAAAAAAAAAAAAAAAAAAAAAAAAAAAAAAAAAAAAAAAAAAAAAAAAAAAAAAAAAAAAAAAAAAAAAAAAAAAAAAAAAAAAAAAAAAAAAAAAAAAAAAAAAAAAAAAAAAAAAAAAAAAAAAAAAAAAAAAAAAAAAAAAAAAAAAAAAAAAAAAAAAAAAAAAAAAAAAAAAAAAAAAAAAAAAAAAAAAAAAAAAAAAAAAAAAAAAAAAAAAAAAAAAAAAAAAAAAAAAAAAAAAAAAAAAAAAAAAAAAAAAAAAAAAAAAAAAAAAAAAAAAAAAAAAAAAAAAAAAAAAAAAAAAAAAAAAAAAAAAAAAAAAAAAAAAAAAAAAAAAAAAAAAAAAAAAAAAAAAAAAAAAAAAAAAAAAAAAAAAAAAAAAAAAAAAAAAAAAAAAAAAAAAAAAAAAAAAAAAAAAAAAAAAAAAAAAAAAAAAAAAAAAAAAAAAAAAAAAAAAAAAAAAAAAAAAAAAAAAAAAAAAAAAAAAAAAAAAAAAAAAAAAAAAAAAAAAAAAAAAAAAAAAAAAAAAAAAAAAAAAAAAAAAAAAAAAAAAAAAAAAAAAAAAAAAAAAAAAAAAAAAAAAAAAAAAAAAAAAAAAAAAAAAAAAAAAAAAAAAAAAAAAAAAAAAAAAAAAAAAAAAAAAAAAAAAAAAAAAAAAAAAAAAAAAAAAAAAAAAAAAAAAAAAAAAAAAAAAAAAAAAAAAAAAAAAAAAAAAAAAAAAAAAAAAAAAAAAAAAAAAAAAAAAAAAAAAAAAAAAAAAAAAAAAAAAAAAAAAAAAAAAAAAAAAAAAAAAAAAAAAAAAAAAAAAAAAAAAAAAAAAAAAAAAAAAAAAAAAAAAAAAAAAAAAAAAAAAAAAAAAAAAAAAAAAAAAAAAAAAAAAAAAAAAAAAAAAAAAAAAAAAAAAAAAAAAAAAAAAAAAAAAAAAAAAAAAAAAAAAAAAAAAAAAAAAAAAAAAAAAAAAAAAAAAAAAAAAAAAAAAAAAAAAAAAAAAAAAAAAAAAAAAAAAAAAAAAAAAAAAAAAAAAAAAAAAAAAAAAAAAAAAAAAAAAAAAAAAAAAAAAAAAAAAAAAAAAAAAAAAAAAAAAAAAAAAAAAAAAAAAAAAAAAAAAAAAAAAAAAAAAAAAAAAAAAAAAAAAAAAAAAAAAAAAAAAAAAAAAAAAAAAAAAAAAAAAAAAAAAAAAAAAAAAAAAAAAAAAAAAAAAAAAAAAAAAAAAAAAAAAAAAAAAAAAAAAAAAAAAAAAAAAAAAAAAAAAAAAAAAAAAAAAAAAAAAAAAAAAAAAAAAAAAAAAAAAAAAAAAAAAAAAAAAAAAAAAAAAAAAAAAAAAAAAAAAAAAAAAAAAAAAAAAAAAAAAAAAAAAAAAAAAAAAAAAAAAAAAAAAAAAAAAAAAAAAAAAAAAAAAAAAAAAAAAAAAAAAAAAAAAAAAAAAAAAAAAAAAAAAAAAAAAAAAAAAAAAAAAAAAAAAAAAAAAAAAAAAAAAAAAAAAAAAAAAAAAAAAAAAAAAAAAAAAAAAAAAAAAAAAAAAAAAAAAAAAAAAAAAAAAAAAAAAAAAAAAAAAAAAAAAAAAAAAAAAAAAAAAAAAAAAAAAAAAAAAAAAAAAAAAAAAAAAAAAAAAAAAAAAAAAAAAAAAAAAAAAAAAAAAAAAAAAAAAAAAAAAAAAAAAAAAAAAAAAAAAAAAAAAAAAAAAAAAAAAAAAAAAAAAAAAAAAAAAAAAAAAAAAAAAAAAAAAAAAAAAAAAAAAAAAAAAAAAAAAAAAAAAAAAAAAAAAAAAAAAAAAAAAAAAAAAAAAAAAAAAAAAAAAAAAAAAAAAAAAAAAAAAAAAAAAAAAAAAAAAAAAAAAAAAAAAAAAAAAAAAAAAAAAAAAAAAAAAAAAAAAAAAAAAAAAAAAAAAAAAAAAAAAAAAAAAAAAAAAAAAAAAAAAAAAAAAAAAAAAAAAAAAAAAAAAAAAAAAAAAAAAAAAAAAAAAAAAAAAAAAAAAAAAAAAAAAAAAAAAAAAAAAAAAAAAAAAAAAAAAAAAAAAAAAAAAAAAAAAAAAAAAAAAAAAAAAAAAAAAAAAAAAAAAAAAAAAAAAAAAAAAAAAAAAAAAAAAAAAAAAAAAAAAAAAAAAAAAAAAAAAAAAAAAAAAAAAAAAAAAAAAAAAAAAAAAAAAAAAAAAAAAAAAAAAAAAAAAAAAAAAAAAAAAAAAAAAAAAAAAAAAAAAAAAAAAAAAAAAAAAAAAAAAAAAAAAAAAAAAAAAAAAAAAAAAAAAAAAAAAAAAAAAAAAAAAAAAAAAAAAAAAAAAAAAAAAAAAAAAAAAAAAAAAAAAAAAAAAAAAAAAAAAAAAAAAAAAAAAAAAAAAAAAAAAAAAAAAAAAAAAAAAAAAAAAAAAAAAAAAAAAAAAAAAAAAAAAAAAAAAAAAAAAAAAAAAAAAAAAAAAAAAAAAAAAAAAAAAAAAAAAAAAAAAAAAAAAAAAAAAAAAAAAAAAAAAAAAAAAAAAAAAAAAAAAAAAAAAAAAAAAAAAAAAAAAAAAAAAAAAAAAAAAAAAAAAAAAAAAAAAAAAAAAAAAAAAAAAAAAAAAAAAAAAAAAAAAAAAAAAAAAAAAAAAAAAAAAAAAAAAAAAAAAAAAAAAAAAAAAAAAAAAAAAAAAAAAAAAAAAAAAAAAAAAAAAAAAAAAAAAAAAAAAAAAAAAAAAAAAAAAAAAAAAAAAAAAAAAAAAAAAAAAAAAAAAAAAAAAAAAAAAAAAAAAAAAAAAAAAAAAAAAAAAAAAAAAAAAAAAAAAAAAAAAAAAAAAAAAAAAAAAAAAAAAAAAAAAAAAAAAAAAAAAAAAAAAAAAAAAAAAAAAAAAAAAAAAAAAAAAAAAAAAAAAAAAAAAAAAAAAAAAAAAAAAAAAAAAAAAAAAAAAAAAAAAAAAAAAAAAAAAAAAAAAAAAAAAAAAAAAAAAAAAAAAAAAAAAAAAAAAAAAAAAAAAAAAAAAAAAAAAAAAAAAAAAAAAAAAAAAAAAAAAAAAAAAAAAAAAAAAAAAAAAAAAAAAAAAAAAAAAAAAAAAAAAAAAAAAAAAAAAAAAAAAAAAAAAAAAAAAAAAAAAAAAAAAAAAAAAAAAAAAAAAAAAAAAAAAAAAAAAAAAAAAAAAAAAAAAAAAAAAAAAAAAAAAAAAAAAAAAAAAAAAAAAAAAAAAAAAAAAAAAAAAAAAAAAAAAAAAAAAAAAAAAAAAAAAAAAAAAAAAAAAAAAAAAAAAAAAAAAAAAAAAAAAAAAAAAAAAAAAAAAAAAAAAAAAAAAAAAAAAAAAAAAAAAAAAAAAAAAAAAAAAAAAAAAAAAAAAAAAAAAAAAAAAAAAAAAAAAAAAAAAAAAAAAAAAAAAAAAAAAAAAAAAAAAAAAAAAAAAAAAAAPZZAQANVb43EycLlr5dhGM2esTe1GWebDqEMVJIEW3cSgHzftXi9vET2E+kg3twViGpjWy4BdWciRF1Yhomzi26RM4mdRmPZQ6VhjcfGW+EAF3XHst3zveHKosjjVKypPBgKh+M79SvJmZ9jka7tZwvTy3bz/8pF87u92AQ5fP8ujaTOlf2lgRAQYLTgvNpnjZ4aX06bokSsOmeqrq/nupsodYENCXXMgQvr9SVvX9JiGmVOuVrliaDhRKklT+3UtetNFb3UyGkfOGOjQroYO6yMDAQSUKTI7gvOQ2htvWpBD0Em2gGFgu63vL+A5RiAUeLWVZmA2K9858twG6a3y5nY0SF</c2pa:manifest></metadata><defs><style>.cls-1{fill:#40434f;}.cls-2{stroke:#000;stroke-linecap:round;stroke-linejoin:round;stroke-width:11px;}.cls-3{fill:#0f0f11;}.cls-4{fill:#fdbd23;}.cls-5{fill:#2b2d35;}.cls-6{fill:#d32a28;}.cls-7{fill:#ecb559;}.cls-8{fill:#212323;}.cls-9{fill:#fff;}.cls-10{fill:#b50b18;}.cls-11{fill:#7a7e8a;}.cls-12{fill:#fde12c;}.cls-13{fill:#fdf7c7;}</style></defs><path class="cls-7" d="M268.03,218.8c7.94-15.19,24.41-26.67,41.48-25.11,17.07,1.57,32.12,18.9,28.15,35.57-3.76,15.79-20.82,24.32-36.54,28.39-3.33.86-7.17,1.53-9.96-.49-1.16-.84-1.98-2.06-2.78-3.26-8.12-12.18-16.25-24.35-20.35-35.11Z"/><path d="M315.13,261.3c-1.24-.42-2.35-1.25-3.1-2.46-1.68-2.73-.82-6.3,1.9-7.97,13.31-8.18,22-27.41,13.71-40.89-8.22-13.38-25.79-17.57-39.16-9.35-2.73,1.68-6.3.82-7.97-1.9-1.68-2.73-.82-6.3,1.9-7.97,18.82-11.57,43.55-5.67,55.11,13.15,5.58,9.07,6.46,20.33,2.49,31.71-3.62,10.39-10.91,19.55-20,25.13-1.52.94-3.31,1.08-4.88.56Z"/><path class="cls-7" d="M184.58,220.71c-15.77-13.79-35.04-28.42-53.45-22.58-15.31,4.86-24.22,24.59-20.25,42.28,3.96,17.7,19.32,31.67,73.7-19.71Z"/><path d="M132.03,262.15c-1.6.43-3.37.18-4.84-.84-17.4-12.16-27.62-35.88-14.6-54.52,12.66-18.11,37.68-22.54,55.79-9.89,2.62,1.83,3.26,5.45,1.43,8.07-1.83,2.63-5.45,3.26-8.07,1.43-12.87-8.99-30.65-5.84-39.64,7.03-8.87,12.68-1,29.47,11.74,38.37,2.62,1.83,3.27,5.45,1.43,8.07-.81,1.16-1.97,1.93-3.23,2.27Z"/><path class="cls-7" d="M258.92,260.3c-5.05,0-9.15-4.1-9.15-9.15s4.1-9.11,9.15-9.11,9.11,4.1,9.11,9.11-4.1,9.15-9.11,9.15ZM189.37,242.04c5.05,0,9.15,4.1,9.15,9.11s-4.1,9.15-9.15,9.15-9.11-4.1-9.11-9.15,4.1-9.11,9.11-9.11ZM314.83,238.5c-1.02-3.01-2.21-5.99-3.54-8.87-.35-.84-.77-1.68-1.19-2.52-8.48-17.07-22.15-31.16-38.98-40.24-.63-.35-1.3-.7-1.96-1.02-2.98-1.54-6.07-2.91-9.22-4.1h-.03c-10.38-3.96-21.59-6.13-33.37-6.13s-23.77,2.31-34.39,6.52c-2.56.98-5.01,2.07-7.43,3.29-.74.35-1.44.7-2.17,1.12-16.26,8.62-29.65,21.91-38.31,38.1-.28.49-.53.98-.77,1.51-.91,1.75-1.75,3.54-2.52,5.36-4.8,11.08-7.47,23.27-7.47,36.11,0,50.83,41.68,92.01,93.07,92.01s93.07-41.19,93.07-92.01c0-10.17-1.68-19.98-4.77-29.13"/><path d="M224.42,331.04s-.05,0-.08,0c-3.2-.04-5.76-2.68-5.72-5.88l.42-30.02c.05-3.2,2.74-5.72,5.88-5.71,3.2.04,5.76,2.68,5.72,5.88l-.42,30.03c-.04,3.17-2.63,5.72-5.8,5.72Z"/><path d="M244.71,279.17h-38.09c-3.2,0-5.8-2.6-5.8-5.8s2.59-5.8,5.8-5.8h38.09c3.2,0,5.8,2.6,5.8,5.8s-2.59,5.8-5.8,5.8Z"/><path d="M224.43,300.64c-1.67,0-3.32-.72-4.47-2.1l-17.81-21.47c-2.04-2.46-1.7-6.12.76-8.16,2.46-2.06,6.12-1.71,8.16.76l17.81,21.47c2.04,2.46,1.7,6.12-.76,8.16-1.08.9-2.39,1.34-3.7,1.34Z"/><path d="M226.9,300.64c-1.3,0-2.61-.44-3.7-1.34-2.46-2.04-2.81-5.7-.76-8.16l17.81-21.47c2.04-2.47,5.7-2.82,8.16-.76,2.47,2.04,2.81,5.7.76,8.16l-17.81,21.47c-1.15,1.38-2.8,2.1-4.47,2.1Z"/><path d="M139.28,268.47c0-15.7,4.24-30.43,11.71-43.04v-.03c8.87-15.18,22.29-27.31,38.38-34.63,10.76-4.91,22.71-7.64,35.26-7.64,13.92,0,27.1,3.37,38.73,9.29,18.12,9.29,32.53,24.82,40.24,43.78,4.14,9.95,6.38,20.86,6.38,32.28,0,47.08-38.28,85.36-85.35,85.36s-85.35-38.28-85.35-85.36ZM316.47,237.52c-1.05-3.23-2.28-6.34-3.72-9.39-.42-1.02-.91-2-1.4-2.98-8.45-16.79-21.59-30.81-37.72-40.28-.67-.42-1.37-.84-2.03-1.19-2.98-1.68-6.1-3.19-9.25-4.52-11.6-4.91-24.36-7.64-37.72-7.64-12.13,0-23.73,2.24-34.42,6.35-3.12,1.16-6.13,2.49-9.08,4-.7.35-1.44.7-2.14,1.09-15.81,8.48-29.02,21.21-38.07,36.67-1.19,2-2.28,4.07-3.3,6.17h-.03c-.84,1.68-1.61,3.37-2.31,5.12-4.91,11.57-7.61,24.26-7.61,37.58,0,53.46,43.5,96.96,96.96,96.96s96.96-43.5,96.96-96.96c0-10.83-1.79-21.24-5.12-30.95Z"/><path d="M280.85,242.69c0,6.02-3.88,25.54-23.73,25.54-11.33,0-21.53-17.96-21.53-23.98s5.92-7.53,21.55-7.53c5.98,0,23.71,0,23.71,5.97Z"/><path class="cls-8" d="M198.52,251.15c0,5.05-4.1,9.15-9.15,9.15s-9.11-4.1-9.11-9.15,4.1-9.11,9.11-9.11,9.15,4.1,9.15,9.11Z"/><path class="cls-3" d="M315.5,214.53c-28.86-11.42-61.99-14.78-93.04-14.74-25.07.03-50.41,2.71-74.46,9.83-4.44,1.31-9.47,2.85-13.36,5.22,2.25-12.11,38.11-16.23,48.06-17.2,30.45-2.97,62.66-2.74,93.04.92,8.58,1.03,37.96,5.58,39.77,15.97Z"/><path class="cls-1" d="M225,95.57c-11.99,0-20.07,2.24-23.98,4.28.19.33.27.95.3.99,2.21-1.91,3.91,2.36,5.91,3.6,4.42,2.74,9.91,9.09,17.77,8.76,7.87.33,13.31-5.54,17.73-8.29,1.99-1.24,3.74-5.98,5.95-4.08.03-.04.11-.66.3-.99-3.84-2.17-12.8-4.28-23.98-4.28Z"/><path class="cls-5" d="M241.27,104.08c-7.66,6.54-23.03,6.91-33,.03-1.93-1.33-4.88-5.33-7.08-3.43.22.33.33.52.34.54,3.71,13.67,13.37,22.05,23.46,23.38,10.1-1.33,19.76-9.71,23.46-23.38.01-.02.13-.21.34-.54-2.21-1.91-5.75,1.87-7.54,3.39Z"/><path class="cls-4" d="M393.91,168.47c-4.6-2.58-34.02,7.56-48.51,2.54-13.29-4.6-24.26-20.6-29.48-32.94-3.82-9.02-6.9-15.96-11.51-24.45-7-12.89-29.71-35.52-45.26-28.88-6.64,2.83-7.94,8.62-10.17,14.64-.65,1.96-6.34,16.96-16.16,20.98-2.08.85-4.76,1.6-7.81,1.74-3.05-.14-5.73-.88-7.81-1.74-9.82-4.02-15.52-19.02-16.16-20.98-2.23-6.02-3.54-11.81-10.17-14.64-15.55-6.64-38.26,15.99-45.26,28.88-4.61,8.49-7.69,15.44-11.51,24.45-5.22,12.34-16.19,28.34-29.48,32.94-14.5,5.02-43.91-5.12-48.51-2.54-3.64,2.04-2.58,4.6-2.76,7.37-.29,4.41,1.99,7.73,2.35,8.61,5.16-12.29,21.31-3.04,31.47-2.42,14.78.9,32.2,1.35,41.62-10.95,5.64-3.95,12.98-26.92,16.13-33.51,5.55-11.62,11.27-23.38,20.53-32.69,5.14-5.17,13.4-15.91,20.86-13.78,7.99,2.28,10.56,15.1,13.82,21.8,2.44,5.01,3.64,12.36,8.36,15.57,2.93,3.4,9.85,4.5,16.53,3.95,6.68.55,13.61-.55,16.53-3.95,4.72-3.21,5.92-10.55,8.36-15.57,3.26-6.7,5.83-19.52,13.82-21.8,7.46-2.13,15.72,8.61,20.86,13.78,9.26,9.31,14.98,21.07,20.53,32.69,3.15,6.59,10.49,29.56,16.13,33.51,9.41,12.3,26.83,11.85,41.62,10.95,10.16-.62,26.31-9.86,31.47,2.42.36-.88,1.91-5.95,2.35-8.61.46-2.74.87-5.33-2.76-7.37Z"/><path class="cls-5" d="M391.44,176.29c-7.18-4.04-19.33,1.61-27.47,1.7-27.79.32-35.83-3.36-55.73-42.07-5.89-11.45-10.53-22.38-19.79-31.69-5.14-5.17-17.28-15.27-24.74-13.14-7.99,2.28-10.74,15.3-14.1,21.95-5.26,10.4-14.68,17.07-24.61,17.31-9.93-.25-19.35-6.91-24.61-17.31-3.36-6.65-6.11-19.67-14.1-21.95-7.46-2.13-19.59,7.97-24.74,13.14-9.26,9.31-13.9,20.24-19.79,31.69-19.9,38.7-27.94,42.39-55.73,42.07-8.14-.09-20.29-5.74-27.47-1.7-3.14,1.76-4.12,5.81-2.52,9.03,11.3,22.75,35.62,35.96,60.39,39.04,5.84.73,12.21.28,17.81.92.78.09.79.21,1.38.61-.23-1.24-.2-2.45-.31-3.68-.13-1.44-.56-6.02-.31-7.37,2.25-12.11,38.11-16.23,48.06-17.2,13.73-1.34,27.82-2.02,41.94-2.04,14.12.02,28.2.7,41.94,2.04,9.95.97,45.81,5.09,48.06,17.2.25,1.34-.18,5.93-.31,7.37-.11,1.23-.08,2.44-.31,3.68.59-.41.6-.52,1.38-.61,5.6-.64,11.97-.2,17.81-.92,24.77-3.08,49.09-16.29,60.39-39.04,1.6-3.23.62-7.27-2.52-9.03Z"/><path class="cls-1" d="M184.08,102.61c.99,8.23-2.75,22.91,4.18,37.8,3.54,7.6-1.15,17.81-5.65,24.88-16.89,26.49-83.79,60.3-116.69,25.44-8.65-9.16-2.14-9.96,7.52-9.67,77.02,16.25,57.98-57.41,103.62-82.1,2.96-1.6,6.62.31,7.02,3.66Z"/><path class="cls-11" d="M175.54,107.67c5.53.35,1.99,15.32,3.51,25.83.46,3.18-.17,3.22-1.27.92-8.15-17.02,1.75-32.48-23.89,4.57-1.86-7.98,14.04-30.48,21.65-31.32Z"/><path class="cls-1" d="M264.32,102.61c-.99,8.23,2.75,22.91-4.18,37.8-3.54,7.6,1.15,17.81,5.65,24.88,16.89,26.49,83.79,60.3,116.69,25.44,8.65-9.16,2.14-9.96-7.52-9.67-77.02,16.25-57.98-57.41-103.62-82.1-2.96-1.6-6.62.31-7.02,3.66Z"/><path class="cls-11" d="M272.86,107.67c-5.53.35-1.99,15.32-3.51,25.83-.46,3.18.17,3.22,1.27.92,8.15-17.02-1.75-32.48,23.89,4.57,1.86-7.98-14.04-30.48-21.65-31.32Z"/><path d="M315.5,222.18c-.03-.3.05-.63,0-.92-28.86-11.42-61.99-14.78-93.04-14.74-25.07.03-50.41,2.71-74.46,9.83-4.44,1.31-9.47,2.85-13.36,5.22-.25,1.34.18,5.93.31,7.37.11,1.23.08,2.44.31,3.68.18.97.77,2.11,1.38,1.84,4.96-2.21,26.07-4.27,32.55-4.91,18.69-1.86,38.47-2.58,57.27-2.46,24.09.16,50.71,1.5,74.46,5.22,3.62.57,10.84.87,14.1,2.18.32.13.12-.46.22-1.54.21-2.23.49-8.56.27-10.77Z"/><path class="cls-10" d="M206.72,215.5l-12.51.11c2.31.72,8.08.1,12.51-.11Z"/><path class="cls-10" d="M206.72,215.5l3.39-.03c-.94-.05-2.1-.03-3.39.03Z"/><path class="cls-6" d="M315.5,215.45c-.03-.3.05-.63,0-.92-28.86-11.42-61.99-14.78-93.04-14.74-25.07.03-50.41,2.71-74.46,9.83-4.44,1.31-9.47,2.85-13.36,5.22-.25,1.34-.22,13.73.38,13.46,4.96-2.21,27.69-4.83,34.16-5.48,18.69-1.86,38.47-2.58,57.27-2.46,24.09.16,50.71,1.5,74.46,5.22,3.62.57,11.15,1.75,14.4,3.06.32.13.36-2.17.46-3.25.21-2.23-.05-7.73-.28-9.94Z"/><path class="cls-6" d="M182.24,208.08c-.1.55-.6.21-.92.31.36-.13.51-.2.92-.31Z"/><path class="cls-6" d="M181.32,208.39l-.92.15c.22-.32.67-.06.92-.15Z"/><rect class="cls-4" x="212.44" y="203.27" width="25.13" height="15.09" rx="2.17" ry="2.17"/><path class="cls-12" d="M212.44,213.07v-7.63c0-1.2.97-2.17,2.17-2.17h20.79c1.2,0,2.17.97,2.17,2.17l-25.13,7.63Z"/><path class="cls-13" d="M212.44,209.63v-4.19c0-1.2.97-2.17,2.17-2.17h10.49l-12.66,6.36Z"/><path class="cls-9" d="M237.95,155.1c-.53,3.21-2.23,4.52-6.26,6.83-3.46,1.98-12.75,8.32-14.91,9.56-4.03,2.31-6.02,3.11-9.06,1.94-3.04-1.17-9.18-.41-7.1,3.22,2.08,3.63,5.17,3.16,5.17,3.16,0,0-1.97,2.43.1,6.06,2.08,3.63,5.84-1.28,6.38-4.49.53-3.21,2.23-4.52,6.25-6.82,3.46-1.98,12.75-8.33,14.91-9.56,4.03-2.31,6.02-3.11,9.06-1.94,3.04,1.17,9.18.41,7.1-3.22s-5.17-3.16-5.17-3.16c0,0,1.97-2.43-.1-6.06-2.08-3.63-5.84,1.28-6.38,4.49Z"/><path class="cls-9" d="M242.79,173.23c-3.07,1.07-5.04.2-8.99-2.23-3.39-2.09-13.4-7.22-15.52-8.52-3.95-2.44-5.61-3.8-6.03-7.03-.43-3.23-4.03-8.26-6.23-4.7-2.19,3.56-.3,6.05-.3,6.05,0,0-3.08-.57-5.27,2.99-2.19,3.56,3.92,4.52,6.99,3.45,3.07-1.07,5.03-.2,8.98,2.23,3.39,2.09,13.41,7.22,15.53,8.53,3.95,2.44,5.61,3.81,6.03,7.03.43,3.23,4.03,8.26,6.23,4.7s.3-6.05.3-6.05c0,0,3.08.57,5.27-2.99,2.19-3.56-3.92-4.52-6.99-3.45Z"/><polygon points="189.39 226.67 316.61 272.74 315.2 261.38 205.89 223.21 189.39 226.67"/><path class="cls-2" d="M250.95,328.68c0,4.47-11.98,7.59-26.75,7.59s-26.75-1.88-26.75-7.59c0-4.41,11.98-15.62,26.75-15.62s26.75,10.43,26.75,15.62Z"/></svg>