<?xml version="1.0" encoding="UTF-8"?><svg id="focusbear" xmlns="http://www.w3.org/2000/svg" viewBox="0 0 450 450"><defs><style>.cls-1{fill:none;}.cls-2{fill:#571253;}.cls-3{fill:#ff7ad5;}.cls-4{fill:#ffa8dd;}.cls-5{fill:#b48331;}.cls-6{fill:#d32a28;}.cls-7{fill:#ca45a0;}.cls-8{fill:#fffb00;opacity:.4;}.cls-9{fill:#fff;}.cls-10{fill:#f6b243;stroke:#241f20;stroke-linecap:round;stroke-linejoin:round;stroke-width:5.42px;}.cls-11{fill:#712c6d;}.cls-12{fill:#241f20;}.cls-13{fill:#271146;}.cls-14{fill:#ff7ed5;}.cls-15{fill:#732c6e;}</style></defs><path class="cls-1" d="M139.52,191.03s-.08-.08-.12-.12c.06.06.11.12.17.19-.02-.02-.03-.05-.05-.07Z"/><path class="cls-15" d="M255.49,169.84h-.47c-.04,2.72.02,5.41.29,7.7,0-.02,0-.03,0-.05-.05-2.67.02-5.24.18-7.65Z"/><path class="cls-15" d="M164.74,248.94c.05-1.82.27-3.64.71-5.46,1.48-6.16,2.3-10.12,3.08-13.27-2.84,7.16-4.03,12.67-3.79,18.74Z"/><path class="cls-15" d="M289.95,264.44c.71-1.2,1.37-2.37,1.99-3.52-2.54,3.69-4.94,7.64-7.12,11.57,2.89-4.82,5.07-7.95,5.13-8.04Z"/><path class="cls-15" d="M286.98,218.75c-.15-.48-.3-.94-.46-1.4,4.03,15.23,2.14,24.39-2.62,34.56.21-.38.42-.77.63-1.15,6.52-12.06,4.93-24.06,2.45-32.01Z"/><path class="cls-15" d="M255.65,173.06c.09-1.08.18-2.16.28-3.22h-.12c-.07,1.06-.12,2.13-.16,3.22Z"/><path class="cls-15" d="M262.21,298.68c-.15,1.08-.27,2.19-.36,3.34,1.61-9.4,5.55-18.87,10.27-28.28-.8,1.39-1.58,2.76-2.33,4.11-2.64,5.52-5.64,12.85-7.59,20.82Z"/><path class="cls-15" d="M175.5,169.84c.09,2.41.3,4.89.67,7.42,0,0,0,0,0,0-.27-2.58-.44-5.05-.5-7.41h-.16Z"/><path class="cls-15" d="M314.09,259.05c-5.64,8.52-9.25,15.81-11.5,21.18,5.1-9.29,8.91-16.32,11.5-21.18Z"/><path class="cls-15" d="M282.12,169.84h-.75c-.2,2.05-.4,3.27-.4,3.27.43-1,.81-2.1,1.15-3.27Z"/><path class="cls-15" d="M168.16,184.23c.92.83,2.19-5.94,3.46-14.39h-4.44c-.17,4.54.04,9.46.97,14.39Z"/><path class="cls-15" d="M150.87,264.63c-.69-5.11-.25-10.19,1.36-15.35-2.08,5.33-2.81,10.21-1.36,15.35Z"/><path class="cls-15" d="M177.35,169.84h-1.4c.06,2,.19,4.09.39,6.24.2-1.27.55-3.49,1.01-6.24Z"/><path class="cls-15" d="M174.96,321.43c.42-3.38-.24-6.86-1.62-10.53.58,3.7,1.63,7.1,1.62,10.53Z"/><path class="cls-15" d="M182.32,201.31c-.55,1.19-1.17,2.49-1.88,3.92,3.6-6.65,7.12-14.65,8.65-25.07-1.29,7.13-3.39,14.42-6.75,21.13,0,.01-.01.02-.02.03Z"/><path class="cls-15" d="M288.74,169.84h-.17c-.35,2.08-.81,4.28-1.38,6.61.55-2.1,1.09-4.26,1.55-6.61Z"/><path class="cls-15" d="M317.91,331.37s-.02,0-.02,0c0,0,.01,0,.01,0h0Z"/><path class="cls-15" d="M180.99,169.84h-.71c-.07,2.22-.12,4.47-.12,6.68.26-2.2.54-4.45.83-6.68Z"/><path class="cls-15" d="M153.52,342.44c-.16-.05-.3-.1-.42-.15.12.04.26.09.42.15Z"/><path class="cls-15" d="M167.35,334.61c-2.98,2.38-7.04,4.89-12.54,7.62,1.38-.4,2.69-.88,3.94-1.45,3.16-1.43,5.95-3.44,8.6-6.17Z"/><path class="cls-15" d="M187.85,344.21c0,.16.02.32.03.48-.01-.16-.03-.32-.03-.48Z"/><path class="cls-15" d="M139.3,190.79c-.5-.51-.97-1.06-1.44-1.61.47.56.95,1.11,1.44,1.61Z"/><path class="cls-15" d="M165.95,343.57c-.36.04-.69.06-1.04.08.35-.02.7-.05,1.04-.08Z"/><path class="cls-15" d="M136.63,187.63s-.04-.05-.05-.07c.02.02.04.05.05.07Z"/><path class="cls-15" d="M173.87,341.81c-2.8.94-5.43,1.5-7.8,1.76,3.37-.32,5.88-.99,7.8-1.76Z"/><path class="cls-15" d="M288.68,349.58c-.23-.06-.59-.17-1.03-.31-.47-.01-.94-.04-1.4-.07,1.5.33,2.43.38,2.43.38Z"/><path class="cls-15" d="M158.79,343.56c-.41-.05-.8-.1-1.17-.15.37.06.76.11,1.17.15Z"/><path class="cls-15" d="M162.45,343.77c.18,0,.35-.01.53-.02-.22,0-.46.02-.67.02.05,0,.09,0,.14,0Z"/><path class="cls-15" d="M162.04,343.76c-.46,0-.91-.02-1.34-.04.43.02.88.04,1.34.04Z"/><path class="cls-15" d="M160.43,343.71c-.47-.03-.92-.07-1.36-.11.44.05.89.08,1.36.11Z"/><path class="cls-15" d="M254.64,273.5c1.62-2.06,2.91-3.99,3.97-5.83-.62.91-1.06,1.41-1.07,1.43-.05.07-1.2,1.72-2.9,4.41Z"/><path class="cls-15" d="M182.96,238.1c0-3.17.32-6.26.93-9.19-.6,2.62-.99,5.68-.93,9.19Z"/><path class="cls-15" d="M323.99,206.18c.29.32.55.62.77.87-.25-.29-.51-.58-.77-.87Z"/><path class="cls-15" d="M195.69,205.13c-3.52,6.08-4.85,8.17-5.97,10.14.2-.28.4-.57.62-.84,2.16-2.76,3.91-5.95,5.36-9.3Z"/><path class="cls-15" d="M325.13,207.47c.06.07.14.16.19.22-.06-.07-.13-.15-.19-.22Z"/><path class="cls-15" d="M288.68,349.58c-4.88,2.07-9.56,3.1-13.96,3.3,5.96.42,10.16-.98,13.96-3.3Z"/><path class="cls-15" d="M241.94,332.03c.98,2.48,2.24,4.86,3.87,7.05h0s0,0,0,0c1.43,1.93,3.15,3.71,5.17,5.3-3.87-3.45-6.94-7.72-9.04-12.35Z"/><path class="cls-15" d="M132.73,181.34c-1.68-3.37-3.02-7.09-3.95-11.1.64,3.52,2.06,7.43,3.95,11.1Z"/><path class="cls-15" d="M192.63,327.48c1.83-3.22,3.98-6.34,6.12-9.43-1.35,1.95-3.35,4.69-4.93,7.34-.43.72-.83,1.43-1.19,2.1Z"/><path class="cls-15" d="M262.93,244.4s0-.02,0-.03c0-4.66-3.99-13.85-6.53-19.25.85,2.08,1.81,4.32,2.93,6.78,2,4.38,3.09,8.61,3.6,12.5Z"/><path class="cls-15" d="M198.98,274.47c-1.36-1.74-2.88-3.49-4.55-5.27,1.29,1.64,2.79,3.42,4.55,5.27Z"/><path class="cls-15" d="M146.45,184.42s-.76-7.47.8-14.58h-1.36c-.55,2.99-1.11,8.5.55,14.58Z"/><path class="cls-15" d="M147.79,177.26s.26-3.33,1.22-7.42h-1.04c-.3,2.08-.41,4.55-.18,7.42Z"/><path class="cls-15" d="M156.19,343.15c-.33-.07-.65-.14-.94-.21.29.07.61.14.94.21Z"/><path class="cls-15" d="M188.11,339.16c-.24,1.52-.34,3.08-.27,4.67-.09-2.97.39-5.82,1.27-8.56,0,.03-.02.06-.03.08-.41,1.29-.74,2.55-.97,3.81Z"/><path class="cls-15" d="M187.34,351.23c.58.43,1.08.77,1.46,1.01-.21-.15-.43-.31-.68-.5-.24-.16-.51-.33-.78-.51Z"/><path class="cls-15" d="M190.35,332c.03-.08.07-.16.1-.23,0,.02-.02.03-.03.05-.03.06-.05.12-.07.18Z"/><path class="cls-15" d="M154.26,342.67c-.23-.07-.44-.13-.62-.19.18.06.39.13.62.19Z"/><path class="cls-15" d="M163.16,176.65c.04-2.15.22-4.41.55-6.81h-.39c0,.09-.02.18-.02.26-.09,2.25-.15,4.6-.14,6.55Z"/><path class="cls-15" d="M245.41,339.02c-2.64-3.63-4.51-7.99-5.58-13.02-.01-.05-.03-.1-.04-.15-1.02-4.1-1.3-8.4-1.02-12.73.02-.77.05-1.55.1-2.34.21-3.4,1.08-7.12,2.33-10.89,2.63-8.93,6.96-17.28,11.36-23.57,2.67-4.42,4.67-7.31,4.74-7.39,0-.02,2.48-2.8,4.07-7.37,1.57-4.77,1.63-9.08,1.59-13.74-.25-4.75-1.31-10.16-3.89-15.81-1.78-3.9-3.18-7.27-4.31-10.28-.27-.54-.43-.85-.43-.85-.25-.81-.48-1.6-.72-2.39-1.28-3.81-2.12-7.05-2.75-10.14-4.47-18.4-4.67-31.04-4-38.52h-43.5c-.42,8.35-1.83,25.15-6.57,33.38-1.59,4.11-3.63,8.06-6.23,11.39-1.07,1.37-2.01,2.84-2.83,4.36-.14.26-.28.55-.44.86-4.62,9.23-4.97,20.73-2.32,30.89.83,2.89,1.95,5.96,3.43,9.24.08.15.15.31.23.46.01.02.02.05.04.07.15.29.31.58.47.86.49.88,1.25,2.16,2.32,3.74.91,1.29,1.89,2.5,2.92,3.59,2.86,3.01,5.27,5.96,7.23,8.85,6.17,8.08,10.33,20.26,2.21,32.88-.09.14-.18.27-.27.41-.03.04-.05.08-.08.12-1.41,2.32-3.02,4.66-4.7,7.1-2.14,3.09-4.29,6.21-6.12,9.43-1.18,2.17-1.97,3.88-2.02,3.98-1.68,9.06,18.17,28.2,34.29,29.61,1.79-4.15,1.9-9.49,8.57-13.36,3.88-2.25,9.3-4.62,12.07-8.26-.09-.15-.19-.3-.28-.44l.15.02Z"/><path class="cls-15" d="M152.7,342.14s-.09-.04-.09-.04c0,0,.04.02.09.04Z"/><path class="cls-15" d="M153.05,342.28c-.12-.05-.22-.08-.29-.11.07.03.17.07.29.11Z"/><path class="cls-15" d="M155.15,342.91c-.27-.07-.51-.13-.74-.2.23.06.47.13.74.2Z"/><path class="cls-15" d="M271.1,333.22c-1.59-5.9-1.9-13.57-.98-24.14.28-3.2,1.06-6.63,2.16-10.11-.02.06-.04.09-.04.09,2-12.13,5.08-21.88,16.47-43.3,9.97-18.75.81-34.11-1.64-37.66.06.18.12.36.18.54,2.5,8,4.1,20.09-2.47,32.25-1.3,2.4-2.66,4.87-3.98,7.26-1.6,2.9-3.2,5.8-4.77,8.72.06-.06.11-.12.16-.18.18-.2.38-.41.59-.64.13-.14.25-.27.37-.4.28-.31.57-.62.84-.91.46-.5.81-.88,1.07-1.16.17-.18.31-.33.41-.44.24-.26.21-.23,0,0-.09.1-.23.25-.41.44-.29.31-.66.72-1.07,1.16-.25.27-.53.58-.84.91-.12.13-.25.27-.37.4-.19.2-.38.41-.59.64-.06.06-.11.12-.16.18-6.81,12.68-12.87,25.54-14.34,38.24-.11,4.48.26,9.52,1.23,15.36.47,2.81,1.11,5.34,1.87,7.63.76,2.08,1.55,3.97,2.35,5.66,5.01,9.75,12.54,13.5,17.24,14.93.77.11,1.55.18,2.32.22-1.16-.44-2.65-1.11-4.22-2.08-5.78-2.15-9.5-6.6-11.39-13.62ZM273.08,276s-7.77,17.62-7.65,32.58c0,0,4.25-24.76,14.21-39.67,0,0-15.89,31.74-10.59,61.21,0,0-14.27-17.55,4.02-54.12Z"/><path class="cls-15" d="M323.43,331.39c-.14,0-.28,0-.42,0-.71,0-1.46,0-2.25,0-.08,0-.15,0-.23,0-.45,0-.9,0-1.37,0-.09,0-.18,0-.26,0,2.77.85,5.73,1.26,8.84,1.19-.03,0-.05,0-.09-.02-1.25-.23-2.5-.64-3.72-1.16h-.04c-.15,0-.31,0-.46,0Z"/><path class="cls-15" d="M175.47,341.62c.55-.15,1.63-.55,2.99-1.5-.01-.08-.03-.17-.04-.25-.66.59-1.7,1.19-2.95,1.75Z"/><path class="cls-15" d="M189.76,333.42c-.03.07-.05.14-.08.21.03-.07.05-.14.08-.21Z"/><path class="cls-15" d="M290.34,287.61c-.58,11.9,1.93,16.59,1.93,16.59-2.05-23.2,9.54-32.8,9.54-32.8-11.21,19.05-6.59,31.64-6.59,31.64-1.59-18.11,15.36-40.14,19.54-45.27,2.47-4.62,3.66-6.91,3.68-6.96,8.73-22.28,2.95-32.6-4.79-42-1.85-1.76-5.25-5.28-8.29-10.05-4.63-6.64-5.93-13.23-6.17-17.77-.01-.22-.02-.44-.03-.66-.01-.38-.02-.75-.02-1.1,0-.15,0-.3,0-.46,0-.55.03-1.05.06-1.49,0,0,0-.02,0-.03.19-2.59.4-5.05.58-7.42h-3.07c-.29,5.14-1.06,10.97-2.74,16.85-2.56,9,1.27,16.9,4.95,21.95,3.99,5.48,7.9,7.98,8.68,8.9.35.41,1.49,1.6,2.78,3.57,6.02,8.19,5.42,16.44,1.89,25.52-1.42,4.05-3.45,8.35-6.14,12.35-12.42,18.43-19.62,23.86-20.05,42.13,0,.07-.14,7.48,3.75,15.46,3.16,6.49,9.03,13.94,19.54,15.04,1.4.15,2.88.18,4.44.09,0,0-1.16.35-1.73.35-.97,0-1.9-.05-2.79-.15-10.6-1.13-16.53-8.66-19.72-15.21-3.91-8.03-3.77-15.49-3.78-15.57.44-18.35,7.65-23.82,20.1-42.3,1.42-2.1,2.64-4.29,3.69-6.48-5.9,10.88-16.4,23.66-16.4,23.66l12.14-22.25c-10.89,14.33-20.61,32.39-20.61,32.39,6.1-15.47,8.4-17.68,13.28-27.43,4.88-9.75,13.83-24.84,2.32-39.07-10.37-12.82-9.98-18.47-9.98-18.47,2.37,7.98,9.36,13.69,9.36,13.69-7.47-9.31-7.18-18.08-6.76-21.24-.13-2.23.08-4.56.77-7,1.67-5.85,2.44-11.65,2.73-16.77h-7.4c-.53,2.74-1.18,5.21-1.81,7.64-.52,1.97-1.01,3.87-1.41,5.8-1.78,11.54.22,18.77,3.03,24.1,1.52,2.22,3.05,4.51,4.84,7.46,0,0,0,.01.01.02.63.9,1.29,2.04,1.93,3.37,2.19,4.16,4.1,9.4,4.22,16.07.59,7.89-.83,16.8-6.58,24.75-.01.01-.02.03-.03.05-.91,1.78-1.91,3.62-3.04,5.52-.1.14-5.08,7.32-10.03,16.75-2.42,4.87-4.38,9.26-5.75,12.45-2.04,5.23-3.58,10.53-4,15.31-1.86,21.33,1.37,32.5,10.78,36.87-3.57-2.56-7.89-7.27-8.38-15.27-.08-1.32-.1-2.67-.08-4.04-.6-2.19-1.02-4.67-1.19-7.48,0,0,3.85-31.12,12.24-37.02l.24,19.5s-.86,4.77-.81,11.08c.73,3.09,1.81,6.08,3.37,8.73,7.86,13.36,22.02,17.73,35.25,10.91-1.36-.24-2.67-.59-3.93-1.02h0c-37.3-.1-27.56-43.76-27.56-43.76Z"/><path class="cls-15" d="M157.53,343.4c-.39-.06-.76-.13-1.11-.2.35.07.72.14,1.11.2Z"/><path class="cls-15" d="M139.57,191.1c4.59,5.22,8.16,20.77-1.04,33.51-8.68,12.01-17.89,26.6-20.41,43.73-1.39,9.47-.06,24.17,8.27,34.46,5.68,7.01,13.66,10.89,23.7,11.53h.08s.04.07.04.07c.26.45,6.37,11.12,2.09,16.12-.02.04-3.26,4.94-11.15,5.71,2.46.31,7.89.6,11.76-2,2.25-1.51,3.66-3.78,4.2-6.75l.29.03c0,.12-.79,11.75-9.03,15.57,1.01-.14,2.59-.43,4.13-.98l.06-.02.05.02s.05.02.09.04c.02,0,.03.01.05.02.07.03.17.07.29.11.02,0,.04.01.06.02.12.04.26.09.42.15.04.01.07.02.11.04.18.06.39.13.62.19.05.01.1.03.15.04.23.06.47.13.74.2.03,0,.06.02.1.03.29.07.61.14.94.21.08.02.16.03.23.05.35.07.72.14,1.11.2.03,0,.06,0,.09.01.37.06.76.11,1.17.15.09.01.19.02.28.03.43.05.89.08,1.36.11.09,0,.18,0,.26.01.43.02.88.04,1.34.04.09,0,.18,0,.27,0,.22,0,.45-.01.67-.02.67-.02,1.32-.05,1.94-.09.34-.03.68-.04,1.04-.08.04,0,.08,0,.12-.01,2.37-.26,5-.81,7.8-1.76,1.71-.68,2.98-1.44,3.99-2.11.25-.17.51-.35.77-.55-.25-1.35-.25-2.77.07-4.23,2.2-9.84,13.22-17.79,4-39.25-1.91-4.44-3.92-8.59-5.89-12.54,3.77,8.88,10.56,27.85,5.06,38.71,0,0-2.03,7.14-6.76,11.46-2.42,2.67-5.35,4.7-8.67,5.98-1.55.6-4.93,1-4.93,1,1.72-.26,3.36-.7,4.92-1.31,2.55-.99,4.86-2.43,6.88-4.27.4-.5,12.11-15.39,1.76-31.89-10.53-16.78-26.02-36.06-21.18-51.22,3.26-10.23,10.24-20.55,13.2-31.47-.83,2.41-1.98,4.99-3.57,7.83,0,.02-.02.03-.03.05-1.43,2.98-3.19,6.17-5.37,9.6-.27.43-.52.85-.78,1.27-1.06,1.92-2.05,3.75-2.92,5.52-3.63,7.99-4.24,15.14-3.05,21.81,3.93,11.04,18.66,32.23,21.57,42.96,2.22,5.19,3.15,10.01,1.82,14.69-.5,2.95-2.06,5.96-5.6,9.22-3.16,3.68-6.48,6.26-10.32,8-1.26.57-4.03,1.17-4.03,1.17,0,0,16.53-17.67,1.34-40.11-14.81-21.89-20.74-31.17-14.92-48.08-5.45,9.22-8.21,19.49-2.68,33.44.04.08,4.5,9.04,14.38,23.08,2.78,3.34,4,7.46,4.52,10.68.49,3,.08,5.24.08,5.24,0-.05.12-2.27-.38-5.27-.52-3.16-1.72-7.2-4.45-10.47-9.91-14.07-14.37-23.05-14.41-23.13-3.34-8.42-3.96-15.75-1.96-23.08,1.13-4.16,3.08-8.06,5.35-11.74,0-.02.01-.03.02-.05,0,0,.07-.11.21-.32.19-.3.37-.59.56-.89,2.52-4.05,10.54-17.68,13.67-31.72.03-.33.07-.65.09-.95.21-2.44.19-3.95.18-4,0,0,.21,1.05.17,2.75.79-4.27,1.08-8.53.57-12.52-1.52-11.94-3.24-24.03-1.98-35.24h-1.29c-2.28,10.4-2.1,21-1.17,29.62,1.11,10.34,3.19,29.6-14.14,51.3-15.09,18.89-8.66,38.8,2.66,51.89,1.3,1.51,2.67,2.93,4.08,4.24,0,0-3.11-2.66-4.42-4.18-5.41-6.3-9.13-13.54-10.65-20.86-2.28-10.98.52-21.79,8.1-31.28,17.26-21.61,15.19-40.78,14.08-51.09-.93-8.63-1.12-19.23,1.16-29.65h-2.48c-1.05,4.97-1.61,11.19-.79,18.51,0,0,4.78,22.82,1.12,31.29,0,0,2.25-12.28-2.58-27.21,0,0,2.86,14.13,1.76,21.91,0,0-.05-12.61-4.16-23.12-2.05-7.31-3.56-14.61-1.05-21.38h-2.95c-1.32,4.11-1.79,8.8-.81,14.1l2.21,14.35s-1.59-6.18-5.93-9.86c-4.07-4.65-7.97-14.46-8.63-18.59h-.14c0,.13,0,.26,0,.4,0,0-.05-.14-.12-.4h-.3c.02.13.03.27.06.4.93,4.01,2.27,7.73,3.95,11.1,1.14,2.21,2.44,4.33,3.85,6.23.02.02.04.05.05.07.4.54.81,1.05,1.23,1.55.47.55.94,1.1,1.44,1.61.04.04.07.08.11.12.04.04.08.08.12.12.02.02.03.05.05.07ZM146.44,214.42c-1.85,9.75-9.78,21.78-11.69,24.57,4.27-6.16,11.07-14.63,11.07-14.63-3.17,7.29-14.31,21.88-14.31,21.88l11.59-12.37c-3.02,5.47-14.21,15.39-16.63,28.39-2.42,13,1.06,27.82,1.06,27.82-2.42-6.64-3.78-20.14-3.78-20.14-.76,15.39,4.23,26.63,4.23,26.63-3.93-6.05-6.35-16.3-6.35-16.3.15,14.23,11.27,26.64,11.27,26.64-8.79-6-14.2-21.13-13.53-36.24.67-15.11,7.56-27.9,14.96-36.8,7.41-8.9,12.32-20.59,12.1-19.45Z"/><path class="cls-15" d="M306.75,197.72l8.31,12.35c7.19,9.1,12.01,19.55,3.66,40.86-.02.05-1,1.94-3.02,5.73h0c-2.58,4.85-6.86,12.81-13.02,24.01-.63,1.15-1.18,2.36-1.68,3.59-.8,2.19-1.29,3.81-1.55,4.78-.07.3-.16.59-.23.88,0,.04-.01.06-.02.08,0,.04-.01.08-.02.12-4.36,24.3,11.64,36.78,17.01,40.23.88.38,1.78.73,2.71,1.01.09,0,.17,0,.26,0,.39,0,.85,0,1.37,0,.08,0,.15,0,.23,0,.68,0,1.44,0,2.25,0,.14,0,.28,0,.42,0,.15,0,.31,0,.46,0h.04c-5.24-2.23-9.79-6.42-9.79-6.42,0,0,0,0,.01,0-.98-.61-1.95-1.33-2.9-2.19-.05-.05-3.34-3.24-6.19-9.05-2.43-4.95-4.99-12.8-4.03-22.81.08-.81.59-2.43.59-2.43-.12.83-.22,1.64-.3,2.44-.96,9.96,1.58,17.75,4,22.67,2.82,5.76,6.08,8.93,6.11,8.96,6.55,5.97,13.65,5.37,17.69,4.69,2.89-.49,5.05-1.51,6.19-2.16-6.07,1.63-11.5-.33-13.61-1.28-.58-.26-1.46-.91-1.46-.91.37.12,1.43.41,1.87.48,3.24.52,8.08-.3,9.97-.67-16.46-2.75-22.53-17.53-22.59-17.68-6.69-19.31,2.54-37.93,11.33-51.99,10.71-17.14,13.28-27.28,9.45-37.42-.51-1.36-1.25-2.75-2.14-4.12,3.29,5.51,7.51,17.5-3.41,33.77,8.26-23.79-9.89-43.31-12.36-45.22,4.38,2.21,10.46,10.06,10.46,10.06-3.11-7.48-14.92-17.45-14.92-17.45.67.39,1.32.8,1.97,1.22-.61-.44-.98-.69-1.01-.71l-.03-.03c-6.25-7.88-6.77-15.1-5-23.29h-.44c-.75,7.28-1.29,20.39,3.34,27.88ZM309.54,272.89c-1.39,2.76-3.32,7.3-4.41,12.85-1.52,7.76-1.61,19,5.73,30.14.73,1.11,1.53,2.21,2.41,3.31,0,0-1.92-2.03-2.65-3.14-7.41-11.23-7.31-22.55-5.78-30.37,1.06-5.39,2.91-9.84,4.3-12.64,1-2.03,2.02-3.06,2.02-3.06-.02.03-.7,1.08-1.62,2.92Z"/><path class="cls-2" d="M282.36,288.26c-3.64,7.36-9.35,24.67-9.34,39.35,5.94,19.19,26.83,14.63,26.83,14.63-13.3-3.63-16.31-17.64-16.6-28.19-2.83-10.49-1.39-22.42-.89-25.78Z"/><path class="cls-2" d="M283.79,282.17c-8.39,5.89-12.24,37.02-12.24,37.02.18,2.81.59,5.29,1.19,7.48.23-15.11,6.24-32.67,9.78-39.38l.45-.85-.17.94c-.03.17-2.39,13.45.43,25.36-.05-6.3.81-11.08.81-11.08l-.24-19.5Z"/><path class="cls-11" d="M299.15,179.23c0-.16,0-.31,0-.46,0,.15,0,.3,0,.46Z"/><path class="cls-11" d="M299.76,175.17c-.03.14-2.61,13.1,7.39,25.49,1.23,1.52,2.51,3.01,3.74,4.44,1.42,1.65,2.84,3.29,4.17,4.98l-8.31-12.35c-4.63-7.49-4.1-20.6-3.34-27.88h-3.04c-.14,1.7-.34,3.47-.61,5.33Z"/><path class="cls-11" d="M157.35,238.86c-1.14,1.88-2.11,3.72-2.92,5.52.88-1.77,1.86-3.6,2.92-5.52Z"/><path class="cls-11" d="M165.6,223.12c-.6,1.55-1.3,3.17-2.1,4.86,0-.02.02-.03.03-.05,1.58-2.84,2.74-5.42,3.57-7.83.13-.46.24-.93.35-1.39-.53,1.67-1.17,3.13-1.84,4.41Z"/><path class="cls-11" d="M306.92,200.84c-.56-.69-1.07-1.38-1.55-2.08,3.05,4.77,6.44,8.29,8.29,10.05-.97-1.18-1.98-2.35-2.99-3.52-1.24-1.44-2.52-2.93-3.75-4.45Z"/><path class="cls-11" d="M299.2,181c-.01-.23-.02-.45-.03-.66,0,.22.02.44.03.66Z"/><path class="cls-11" d="M300.07,169.84h-.27c-.18,2.36-.39,4.83-.58,7.42,0,0,0,.02,0,.03.09-1.35.25-2.14.26-2.17.26-1.84.46-3.59.6-5.28Z"/><path class="cls-11" d="M169.16,333.06c3.55-3.26,5.1-6.28,5.6-9.22-.44,1.56-1.13,3.11-2.11,4.64-1.15,1.7-2.31,3.21-3.49,4.58Z"/><path class="cls-11" d="M172.41,328.32c1.45-2.26,2.26-4.55,2.55-6.89,0-3.42-1.05-6.83-1.62-10.53-2.04-5.4-5.64-11.19-9.63-17.61-.93-1.5-1.9-3.05-2.86-4.63-4.48-7.33-8.79-15.31-9.97-24.03-1.45-5.14-.72-10.02,1.36-15.35,1.22-3.9,3.09-7.83,5.65-11.85,2.9-4.56,5.06-8.69,6.66-12.45-1.79,2.85-3.46,4.3-3.46,4.3,7.76-10.36,4.2-27.18,4.2-27.18.47,22.27-11.59,34.92-11.59,34.92,0,0,11.58-17.73,7.61-38.95-2.35-12.55-3.22-21.13-2.89-28.23h-3.22c-1.27,11.21.46,23.3,1.98,35.24.51,4,.22,8.26-.57,12.52,0,.37-.02.77-.06,1.2-.5,5.89-2.37,17.23-9.25,26.41-2.17,2.89-4.25,5.8-6.04,8.83-5.82,16.91.11,26.2,14.92,48.08,15.19,22.44-1.34,40.11-1.34,40.11,5.5-2.73,9.56-5.24,12.54-7.62,1.73-1.78,3.4-3.85,5.06-6.3ZM159.9,301.46c-14.53-25.41-17.38-26.3-15.42-44.8,0,0-.57,12.93,8.49,25.51,8.85,12.28,19.34,29.89,18.83,39.01,0,.43-.05.65-.05.65.03-.21.04-.43.05-.65.04-1.78-.51-7.3-7.08-16.98,0,0,11.83,22.84-4.82,32.01,0,0,14.53-9.34,0-34.75Z"/><path class="cls-11" d="M139.88,172.89s.12-1.26.45-3.05h-.61c-.45,2.56-.81,5.93-.91,10.42,0,0-.91-4.69-.09-10.42h-.31c-.52,5.16.11,8.98.12,9.03,0,0-.84-3.26-.52-7.83.03-.39.07-.8.11-1.2h-5.27c-.94,7.04,5.09,17.33,5.09,17.33-4.17-5.85-5.83-11.98-5.83-11.98-.28-1.53-.4-3.34-.25-5.36h-.25c-.02.13-.05.27-.07.4,0,0-.03-.14-.06-.4h-2.17c.66,4.13,4.57,13.93,8.63,18.59,4.34,3.68,5.93,9.86,5.93,9.86l-2.21-14.35c-.98-5.3-.51-9.99.81-14.1h-1.78c-.31.99-.59,2.01-.8,3.05Z"/><path class="cls-11" d="M163.95,293.14c3.6,5.78,6.87,11.06,8.99,16.01-2.91-10.73-17.64-31.92-21.57-42.96,1.41,7.9,5.32,15.13,9.72,22.32.96,1.58,1.93,3.13,2.86,4.63Z"/><path class="cls-11" d="M156.13,219.81c-3.13,14.04-11.15,27.67-13.67,31.72,1.45-2.24,3-4.4,4.57-6.49,6.47-8.62,8.48-19.16,9.1-25.23Z"/><path class="cls-11" d="M161.35,188.27c-.66-6.84-.72-14.59-.7-18.42h-.94c-.07,10.33,1.63,18.42,1.63,18.42Z"/><path class="cls-11" d="M162.49,174.48c.05-1.78.14-3.3.25-4.64h-2c.48,13.33,3.12,23.89,3.12,23.89-1.61-8.66-1.49-14.76-1.38-19.25Z"/><path class="cls-11" d="M141.7,252.73s-.01.03-.02.05c.08-.12.15-.25.23-.37-.14.21-.21.32-.21.32Z"/><path class="cls-11" d="M179.87,339.01c-.25.23-.5.42-.74.61.39,1.89,1.14,3.51,2.06,4.89-.53-.99-.93-2.06-1.15-3.19-.2-.04-.27-.37-.15-1.11-.03-.39-.04-.79-.03-1.2Z"/><path class="cls-11" d="M188.42,348.21c-.27-1.2-.44-2.37-.53-3.52.06.95.19,1.91.38,2.89.05.21.09.42.15.63Z"/><path class="cls-11" d="M187.84,343.83c0,.13,0,.25.01.38,0-.13,0-.25-.01-.38Z"/><path class="cls-11" d="M180.04,341.32c-.07-.36-.12-.73-.15-1.11-.12.73-.06,1.07.15,1.11Z"/><path class="cls-11" d="M190,353.12c-.05-.12-.09-.23-.14-.35,0,0,0,0,0,0l.14.35Z"/><path class="cls-11" d="M188.8,352.24c.64.46,1.08.76,1.2.88l-.48-.43s-.28-.16-.72-.45Z"/><path class="cls-11" d="M188.11,339.16c-.5,2.72-.52,5.43.16,8.42-.19-.98-.32-1.94-.38-2.89-.01-.16-.03-.32-.03-.48,0-.13,0-.25-.01-.38-.06-1.59.03-3.15.27-4.67Z"/><path class="cls-11" d="M188.12,351.74c.24.18.47.35.68.5.44.28.71.44.72.45l.48.43-.14-.35c-.17-.09-.82-.45-1.74-1.03Z"/><path class="cls-11" d="M187.73,218.97c-.15.28-.3.57-.44.86.16-.31.31-.6.44-.86Z"/><path class="cls-11" d="M205.07,308.13c-.49.94-1.04,1.88-1.61,2.82.03-.04.05-.08.08-.12.09-.14.18-.27.27-.41,8.12-12.62,3.96-24.8-2.21-32.88,7.4,10.87,8.53,20.94,3.47,30.58Z"/><path class="cls-11" d="M184.96,250.72c.85,3.26,2.01,6.38,3.43,9.24-1.49-3.28-2.6-6.36-3.43-9.24Z"/><path class="cls-11" d="M189.09,180.16c-1.53,10.42-5.05,18.42-8.65,25.07-.76,1.53-1.62,3.19-2.58,4.99-4.12,8.24-7.19,14.58-9.33,19.98-.78,3.15-1.6,7.12-3.08,13.27-.44,1.83-.66,3.65-.71,5.46,0,.2.01.4.02.6.68,12.45,9.84,28.73,9.84,28.73,0,0,.93,1.85,2.21,4.85,1.97,3.95,3.98,8.11,5.89,12.54,9.22,21.46-1.8,29.42-4,39.25-.33,1.47-.32,2.88-.07,4.23,2.15-1.67,4.47-4.62,7.53-10.45.37-.93.72-1.93,1.06-3,0,0-.41,2.14-.77,3.06-1.93,4.92-4.18,7.98-6.17,9.88-.19.66-.31,1.17-.38,1.57.03.38.08.74.15,1.11,1.06.2,5.74-7.51,5.79-7.59l.55-1.04-.28,1.14c-2.54,10.29,1.58,16.3,3.09,18.07-2.22-5.86-2.19-11.75.07-17.97,2.08-5.71,5.72-10.97,9.24-16.06,2.36-3.41,4.59-6.64,6.3-9.89,5.5-10.48,3.59-21.5-5.83-33.52-1.76-1.86-3.26-3.64-4.55-5.27-.09-.1-.18-.2-.28-.3-6.1-6.43-10.12-16.1-11.01-26.52-.12-1.44-.18-2.86-.18-4.27-.06-3.52.33-6.58.93-9.19,1.07-5.15,3.05-9.82,5.82-13.65,1.13-1.96,2.45-4.06,5.97-10.14,4.1-9.52,5.62-20.41,6.18-26.91.3-3.48.33-5.71.33-5.78,0,0,.27,2.3-.03,5.79-.52,6.06-1.87,15.95-5.38,25,4.74-8.23,6.16-25.03,6.57-33.38h-12.92c-.28,3.34-.72,6.81-1.35,10.32ZM196.76,274.95c14.51,15.87,8.16,28.26,8.16,28.26,2.42-10.88-2.75-15.95-2.75-15.95,5.78,16.55-2.18,25.17-2.18,25.17,5.87-11.33-1.98-19.96-1.98-19.96,5.71,16.1-2.76,26.71-2.76,26.71,7.71-13.42-2.49-30.56-8.99-38.93-6.5-8.37-10.82-23.6-10.82-23.6-5.53-23.58,6.43-35.98,6.43-35.98-5.97,10.72-5.67,22.77-5.67,22.77.76-9.44,4.73-13.69,4.73-13.69-6.75,16.32,2.98,30.68,2.98,30.68-5.29-15.27-2.04-24.93-2.04-24.93-.53,11.79.38,23.57,14.89,39.44ZM196.96,182.06c-1.44,7.37-5.46,22.13-15.95,36.13-15.2,20.27-7.53,39.48-1.93,53.5.03.08,3.49,8.06,9.26,16.58,5.4,7.98,10.11,17.66,5.66,29.77-.47,1.28-1.98,3.78-1.98,3.78.69-1.34,1.26-2.65,1.72-3.93,4.37-11.97-.3-21.56-5.65-29.46-5.78-8.55-9.25-16.56-9.28-16.64-3.27-8.18-6.25-16.26-6.85-25.07-.72-10.45,2.17-19.85,8.82-28.72,10.44-13.92,14.44-28.59,15.89-35.95.58-2.97.75-4.75.76-4.81,0,0,.12,1.85-.46,4.81Z"/><path class="cls-11" d="M179.11,339.52s.02.07.03.11c.24-.19.48-.38.74-.61-.02.41,0,.8.03,1.2.07-.4.19-.91.38-1.57,1.99-1.9,4.24-4.96,6.17-9.88-1.93,4.92-5.35,8.86-7.34,10.76Z"/><path class="cls-11" d="M189.12,261.36c.72,1.31,1.49,2.57,2.32,3.74-1.06-1.58-1.83-2.87-2.32-3.74Z"/><path class="cls-11" d="M189.2,351.91c-1.51-1.77-5.64-7.78-3.09-18.07l.28-1.14-.55,1.04c-.04.08-4.73,7.78-5.79,7.59.22,1.13.62,2.2,1.15,3.19,2.7,4.02,6.88,6.08,8,7.4Z"/><path class="cls-11" d="M188.62,260.43s.02.05.04.07c-.01-.02-.03-.05-.04-.07Z"/><path class="cls-2" d="M178.29,328.31c4.29-7.88,4.67-17.88.99-26.09-6.17-13.77-10.53-22.23-10.58-22.31-6.88-12.48-9.54-22.2-8.62-31.5.86-8.69,4.83-16.71,10.96-26.84,1.21-1.99,2.3-3.86,3.32-5.65.44-.8.9-1.62,1.38-2.45,2.62-4.71,4.62-8.65,6.08-11.79l-.11.04c-3.07-8.93-4.77-17.12-5.55-24.47,0,0,0,0,0,0-.37-2.53-.58-5.01-.67-7.42h-3.87c-1.27,8.45-2.55,15.21-3.46,14.39-.93-4.93-1.14-9.85-.97-14.39h-3.48c-.34,2.4-.51,4.66-.55,6.81,0,.81.02,1.56.05,2.2.28,5.33,1.11,9.81,1.84,12.87.44,1.44.92,2.79,1.39,4.14.18.5.35,1.01.53,1.52.9,2.6,1.7,5.8,1.78,9.78.13,1.85.1,3.59-.04,5.21-.17,2.41-.67,4.96-1.62,7.74-2.96,10.92-9.94,21.24-13.2,31.47-4.83,15.16,10.66,34.45,21.18,51.22,10.35,16.49-1.36,31.39-1.76,31.89,1.95-1.77,3.63-3.91,4.98-6.38Z"/><path class="cls-2" d="M185.91,192.45c-.01.05-.88,3.01-3.59,8.86,0-.01.01-.02.02-.03,3.36-6.7,5.46-13.99,6.75-21.13.12-.84.22-1.7.32-2.57-.79,4.79-1.92,9.78-3.5,14.87Z"/><path class="cls-2" d="M164.74,248.94c-.24-6.07.94-11.57,3.79-18.74.86-3.49,1.67-5.97,3.24-9.29-.16.27-.32.53-.48.8-11.18,18.46-16.91,31.59-2.33,58.05.05.09,4.41,8.55,10.59,22.33,3.72,8.29,3.34,18.39-1,26.35-.98,1.8-2.14,3.41-3.44,4.84,4.74-4.32,6.76-11.46,6.76-11.46,5.5-10.86-1.28-29.83-5.06-38.71-6.44-12.93-12.34-23.58-12.07-34.17Z"/><path class="cls-2" d="M181.93,201.45c2.79-5.99,3.68-9.03,3.69-9.08,2.44-7.84,3.8-15.44,4.48-22.43,0-.03,0-.07,0-.1h-9.13c-.29,2.23-.57,4.48-.83,6.68,0-2.21.04-4.46.12-6.68h-2.93c-.46,2.76-.81,4.97-1.01,6.24.72,7.57,2.41,16.06,5.59,25.37Z"/><path class="cls-2" d="M167.44,218.71c-.11.47-.23.93-.35,1.39.95-2.78,1.45-5.32,1.62-7.74-.21,2.36-.67,4.47-1.27,6.34Z"/><path class="cls-2" d="M168.53,230.21c2.14-5.4,5.22-11.74,9.33-19.98-1.68,3.15-3.7,6.71-6.09,10.69-1.58,3.32-2.38,5.81-3.24,9.29Z"/><path class="cls-2" d="M174.36,215.92c.48-.84.94-1.65,1.38-2.45-.48.83-.94,1.65-1.38,2.45Z"/><path class="cls-2" d="M190.12,169.84s0,.07,0,.1c0-.03,0-.07,0-.1h0Z"/><path class="cls-2" d="M164.76,249.54c-.01-.2-.02-.4-.02-.6-.27,10.59,5.63,21.25,12.07,34.17-1.27-3-2.21-4.85-2.21-4.85,0,0-9.16-16.28-9.84-28.73Z"/><path class="cls-2" d="M189.41,177.59c-.1.87-.2,1.73-.32,2.57.63-3.51,1.07-6.97,1.35-10.32h-.02c-.24,2.51-.57,5.1-1.01,7.75Z"/><path class="cls-11" d="M254.03,346.81c5.18,3.67,11.47,5.97,18.52,6.1-3.7-.49-8.09-1.61-13.41-3.63-1.83-.69-3.52-1.53-5.11-2.47Z"/><path class="cls-11" d="M260.23,311.49s1,12.98,7.45,24.01c-1.72-3.29-3.34-7.36-4.85-12.37-2.09-6.96-2.19-14.01-.98-21.1.09-1.15.21-2.27.36-3.34-1.01,4.15-1.75,8.47-1.99,12.81Z"/><path class="cls-11" d="M272.13,273.75c1.01-2.01,2.05-4.01,3.12-6.01,0,0,0,0,0,0,0,0-2.49,3.93-5.45,10.13.75-1.36,1.53-2.72,2.33-4.11Z"/><path class="cls-11" d="M254.33,220.89s.16.31.43.85c-.42-1.13-.8-2.2-1.15-3.24.24.79.47,1.58.72,2.39Z"/><path class="cls-11" d="M265.66,198.78c-3.33-8.77-2.25-14.65-2.25-14.65.6,8.63,4.74,17.16,9.35,22.66,6.37,7.59,8.18,17.53,8.18,17.53-.6-8.61-7.28-18.56-7.28-18.56-10.74-14.81-8.44-26.89-8.44-26.89,1.06,14.1,8.71,22.86,8.71,22.86-9.58-20.33-6.44-31.88-6.44-31.88h-8.61c-1.42,19.16,6.78,28.93,6.78,28.93Z"/><path class="cls-11" d="M241.2,299.9c2.86-8.62,7.72-17.53,11.36-23.57-4.4,6.29-8.73,14.64-11.36,23.57Z"/><path class="cls-11" d="M280.17,281.35c-2.04,3.88-4.06,8.14-5.75,12.45,1.37-3.19,3.33-7.58,5.75-12.45Z"/><path class="cls-11" d="M293.27,259.04c5.74-7.95,7.17-16.86,6.58-24.75.12,6.71-1.57,14.87-6.61,24.79.01-.01.02-.03.03-.05Z"/><path class="cls-11" d="M253.29,189.78c-.7-8.96-.25-15.92.19-19.94h-1.21c-1.2,12.06,1.02,19.94,1.02,19.94Z"/><path class="cls-11" d="M291.94,260.92c12.24-22.67,7.2-36.36,2.18-44.79-2.54-4.26-4.52-7.13-6.61-10.18-2.64-3.84-5.64-8.19-10.35-16.22-3.51-5.99-4.33-13.35-4.11-19.89h-4.47c1.45,19.13,11.49,34.04,11.61,34.22.04.05,4.17,5.69,6.89,14.05,2.45,3.55,11.61,18.91,1.64,37.66-11.39,21.42-14.47,31.17-16.47,43.3,0,0,.01-.04.04-.09,3.03-9.66,8.48-19.73,12.54-26.49,2.19-3.92,4.58-7.88,7.12-11.57Z"/><path class="cls-11" d="M285.85,349.16c-.13.01-.27.02-.4.04-.41.04-.8.07-1.14.1-.27.02-.54.05-.83.07-.1,0-.19.02-.27.02-.07,0-.13.01-.19.02-.06,0-.11,0-.15.01-.03,0-.06,0-.09,0-.02,0-.04,0-.04,0-22.46,1.97-25.62-22.96-25.62-22.96,5.94,21.19,25.62,22.96,25.62,22.96.01,0,.03,0,.04,0,.02,0,.05,0,.09,0,.05,0,.1,0,.15-.01.06,0,.12-.01.19-.02.09,0,.18-.02.27-.02.23-.02.51-.05.83-.07.4-.03.78-.07,1.14-.1.13-.01.27-.02.4-.04-3.88-.33-7.77-1.44-11.47-4.67.23.28.4.49.52.64.05.07.1.12.13.17.03.04.05.07.07.09.05.06.05.06,0,0-.02-.02-.04-.05-.07-.09-.04-.04-.08-.1-.13-.17-.13-.16-.31-.38-.52-.64-1.69-1.48-3.34-3.42-4.93-5.91-2.31-2.67-6.71-8.1-9.23-13.42l2.7,8.43s-15.98-19.11,1.05-53.55l-3.75,14.54s5.13-16.11,15.02-26.84h0c1.73-3.25,3.52-6.5,5.3-9.72,1.11-2.01,2.24-4.07,3.35-6.1,4.76-10.18,6.65-19.33,2.62-34.56-2.69-7.85-6.53-13.07-6.57-13.12-.12-.18-10.21-15.16-11.66-34.39h-.79c.3,5.83,2.72,21.38,9.01,30.9,6.29,9.52,8.42,15.31,8.42,15.31,7,15.8.48,30.19.48,30.19,3.5-9.4.29-19.35.29-19.35,2.33,22.52-7.62,29.17-7.62,29.17,7.41-9.98,4.08-21.61,4.08-21.61.76,16.93-9.98,27.81-9.98,27.81,8.01-13,7.38-20.64,7.38-20.64,1.06-11.44-8.89-25-16.63-41.98-7.74-16.98-4.05-29.79-4.05-29.79h-2.95c-.1,1.06-.19,2.14-.28,3.22-.29,8.97.66,18.91,4.54,27.37,2.14,4.66,4.27,8.95,6.34,13.1,7.41,14.88,13.26,26.64,9.28,37.15-2.35,6.21-6.64,12.89-10.79,19.34-3.82,5.95-7.44,11.56-9.23,16.35-12.82,34.14-4.93,51.61,5.47,60.49,1.12.95,2.26,1.81,3.42,2.58,0,0-2.73-1.58-3.88-2.58-8.53-7.37-12.55-17.99-11.96-31.64.55-12.62,5-24.49,6.68-28.95,1.81-4.82,5.43-10.45,9.26-16.41,4.14-6.44,8.42-13.1,10.76-19.28,3.93-10.4-1.89-22.1-9.27-36.92-2.07-4.15-4.2-8.44-6.34-13.11-3.32-7.24-4.47-15.51-4.61-23.06,0,.02,0,.03,0,.05-.26-2.29-.33-4.98-.29-7.7h-.99v11.88c.52,10.35,7.19,23.94,12.29,34.32,3.22,6.57,5.82,12.93,5.82,12.93,8.35,18.32-2.11,30.44-2.11,30.44l-8.7,12.21c15.98-22.22,9.4-36.12,9.4-36.12,1.68,11.86-4.42,19.34-4.42,19.34,4.41-11.79,2.33-18.71-.32-26.75-3.06-9.29-8.54-18.07-8.54-18.07,1.22,4.83,6.25,14.97,6.25,14.97,8,23.58,2.92,24.54,2.92,24.54,3.56-5.35-4.97-25.19-4.97-25.19-7.68-15.08-9.5-24.57-9.5-24.57-2.89-16.73-.96-26.73-.11-29.95h-4.55c-.38,7.6-.36,15.65.75,21.45.65,3.39,1.1,6.26,1.53,9.03,1.18,7.59,2.17,13.85,6.62,24.79,2.55,5.39,6.53,14.59,6.53,19.25,0,.01,0,.02,0,.03.7,5.33.32,10.04-.32,13.62-.81,4.46-2.76,7.85-4,9.65-1.05,1.84-2.35,3.77-3.97,5.83-4.98,7.9-14.72,24.8-15.48,37.31-.41,6.68.07,14.34,2.79,21.22,2.09,4.63,5.17,8.9,9.04,12.35,2.32,1.82,5.04,3.4,8.27,4.62,6.33,2.4,11.32,3.58,15.47,3.87,4.41-.2,9.08-1.23,13.96-3.3,0,0-.93-.05-2.43-.38-.13,0-.26-.02-.4-.03ZM251.14,316.85c.75-18.35,3.27-23.69,10.19-36.82,0,0-17.49,39.88,2.65,65.05,0,0-13.59-9.88-12.84-28.23ZM246.71,292.37s-2.91,12.94-1.63,20.07c0,0,2.76-19.51,11.99-32.18,0,0-19.4,36.62-1.62,62.45,0,0-22.01-15.66-8.75-50.34Z"/><path class="cls-11" d="M271.67,341.15c.05.06.09.12.14.17.15.18.3.38.47.58,0,0,0,0,0,.01.1.12.2.24.3.37,3.76,4.21,7.77,5.85,11.8,6.43-4.7-1.43-12.24-5.18-17.24-14.93,1.24,2.61,2.54,4.77,3.87,6.57.1.13.34.42.65.8Z"/><path class="cls-11" d="M263.11,323.04c.55,1.82,1.11,3.5,1.69,5.07-.76-2.29-1.4-4.82-1.87-7.63-.97-5.85-1.33-10.89-1.23-15.36-.7,6.02-.37,12.01,1.41,17.92Z"/><path class="cls-11" d="M238.76,313.13c-.28,4.33,0,8.62,1.02,12.73.01.05.03.1.04.15-.83-3.9-1.2-8.19-1.06-12.88Z"/><path class="cls-11" d="M272.59,342.28c-.09-.12-.2-.24-.3-.37,0,0,0,0,0-.01-.15-.19-.3-.37-.47-.58-.05-.06-.09-.12-.14-.17-.21-.26-.42-.52-.65-.8.52.7,1.04,1.34,1.57,1.93Z"/><path class="cls-11" d="M262.95,247.83c.04,4.66-.02,8.97-1.59,13.74.39-1.11.72-2.31.96-3.61.5-2.77.84-6.23.63-10.13Z"/><path class="cls-11" d="M285.33,196.82c.27,1.8.68,3.72,1.26,5.8,0,0-1.1-2.83-1.56-5.81-1.15-7.74.29-13.23,1.91-19.4.08-.31.17-.63.25-.95.58-2.34,1.03-4.53,1.38-6.61h-6.46c-.33,1.16-.71,2.27-1.15,3.27,0,0,.2-1.22.4-3.27h-8.03c-.23,6.5.59,13.8,4.07,19.74,4.71,8.02,7.7,12.37,10.34,16.2.37.53.73,1.06,1.09,1.59-2.81-5.33-4.81-12.55-3.03-24.1-.85,4.09-1.26,8.3-.48,13.54Z"/><path class="cls-11" d="M295.62,218.22c-.65-1.33-1.3-2.47-1.93-3.37,0,0,0-.01-.01-.02.23.37.45.75.69,1.14.42.71.84,1.46,1.26,2.24Z"/><path class="cls-11" d="M247.96,191.35c-1.12-5.83-1.14-13.89-.76-21.51h-.33c-.67,7.47-.48,20.12,4,38.52-.55-2.67-.95-5.24-1.38-7.98-.43-2.77-.88-5.64-1.53-9.02Z"/><path class="cls-7" d="M181.87,235.51s-3.25,9.67,2.04,24.93c0,0-9.73-14.36-2.98-30.68,0,0-3.98,4.25-4.73,13.69,0,0-.31-12.05,5.67-22.77,0,0-11.96,12.4-6.43,35.98,0,0,4.32,15.23,10.82,23.6,6.5,8.37,16.7,25.5,8.99,38.93,0,0,8.47-10.61,2.76-26.71,0,0,7.85,8.63,1.98,19.96,0,0,7.97-8.62,2.18-25.17,0,0,5.17,5.06,2.75,15.95,0,0,6.35-12.39-8.16-28.26s-15.42-27.65-14.89-39.44Z"/><path class="cls-4" d="M134.76,238.99c-.14.2-.28.4-.41.6,0,0,.15-.21.41-.6Z"/><path class="cls-4" d="M119.38,270.66c-.67,15.11,4.75,30.24,13.53,36.24,0,0-11.11-12.41-11.27-26.64,0,0,2.42,10.26,6.35,16.3,0,0-4.99-11.24-4.23-26.63,0,0,1.36,13.5,3.78,20.14,0,0-3.48-14.82-1.06-27.82,2.42-13,13.6-22.92,16.63-28.39l-11.59,12.37s11.14-14.58,14.31-21.88c0,0-6.8,8.46-11.07,14.63-.26.39-.41.6-.41.6.13-.19.28-.4.41-.6,1.91-2.79,9.84-14.82,11.69-24.57.22-1.14-4.7,10.55-12.1,19.45-7.41,8.9-14.3,21.69-14.96,36.8Z"/><path class="cls-7" d="M129.15,170.24c0-.14,0-.26,0-.4h-.12c.07.26.12.4.12.4Z"/><path class="cls-7" d="M131.46,169.84c.03.26.06.4.06.4.02-.13.05-.26.07-.4h-.13Z"/><path class="cls-7" d="M132.09,175.2s1.66,6.12,5.83,11.98c0,0-6.03-10.29-5.09-17.33h-1c-.14,2.01-.03,3.83.25,5.36Z"/><path class="cls-2" d="M138.8,180.26c.11-4.49.46-7.86.91-10.42h-1.01c-.82,5.73.09,10.42.09,10.42Z"/><path class="cls-2" d="M139.88,172.89c.21-1.04.49-2.06.8-3.05h-.35c-.33,1.79-.45,3.05-.45,3.05Z"/><path class="cls-2" d="M147.79,177.26c-.23-2.87-.12-5.33.18-7.42h-.72c-1.56,7.11-.8,14.58-.8,14.58-1.67-6.07-1.11-11.58-.55-14.58h-.5c-2.51,6.76-1,14.07,1.05,21.38,4.1,10.51,4.16,23.12,4.16,23.12,1.1-7.78-1.76-21.91-1.76-21.91,4.83,14.93,2.58,27.21,2.58,27.21,3.67-8.46-1.12-31.29-1.12-31.29-.83-7.32-.26-13.54.79-18.51h-2.09c-.97,4.09-1.22,7.42-1.22,7.42Z"/><path class="cls-7" d="M273.94,201.73s-7.65-8.76-8.71-22.86c0,0-2.3,12.08,8.44,26.89,0,0,6.67,9.95,7.28,18.56,0,0-1.81-9.94-8.18-17.53-4.61-5.5-8.75-14.03-9.35-22.66,0,0-1.07,5.88,2.25,14.65,0,0-8.2-9.77-6.78-28.93,0,0-3.69,12.81,4.05,29.79,7.74,16.98,17.69,30.54,16.63,41.98,0,0,.63,7.64-7.38,20.64,0,0,10.73-10.88,9.98-27.81,0,0,3.33,11.64-4.08,21.61,0,0,9.95-6.65,7.62-29.17,0,0,3.2,9.95-.29,19.35,0,0,6.52-14.39-.48-30.19,0,0-2.14-5.79-8.42-15.31-6.29-9.52-8.7-25.07-9.01-30.9,0,0-3.14,11.56,6.44,31.88Z"/><path class="cls-7" d="M253.29,189.78s-2.22-7.88-1.02-19.94h-.22c-.84,3.21-2.78,13.21.11,29.95,0,0,1.81,9.49,9.5,24.57,0,0,8.53,19.84,4.97,25.19,0,0,5.09-.97-2.92-24.54,0,0-5.04-10.14-6.25-14.97,0,0,5.48,8.78,8.54,18.07,2.65,8.04,4.73,14.96.32,26.75,0,0,6.1-7.48,4.42-19.34,0,0,6.57,13.9-9.4,36.12l8.7-12.21s10.46-12.11,2.11-30.44c0,0-2.59-6.36-5.82-12.93-5.09-10.38-11.77-23.97-12.28-34.32v-11.88h-.56c-.44,4.02-.89,10.98-.19,19.94Z"/><path class="cls-7" d="M257.07,280.26c-9.23,12.67-11.99,32.18-11.99,32.18-1.29-7.13,1.63-20.07,1.63-20.07-13.26,34.69,8.75,50.34,8.75,50.34-17.78-25.83,1.62-62.45,1.62-62.45Z"/><path class="cls-7" d="M261.33,280.04c-6.93,13.13-9.45,18.47-10.19,36.82-.75,18.35,12.84,28.23,12.84,28.23-20.14-25.17-2.65-65.05-2.65-65.05Z"/><path class="cls-7" d="M288.85,348.9c.27-.02.53-.05.78-.07-.24.02-.5.04-.78.07Z"/><path class="cls-7" d="M292.69,348.56s.02,0,.03,0c0,0-.02,0-.03,0Z"/><path class="cls-7" d="M292.72,348.56s.01,0,0,0h0Z"/><path class="cls-7" d="M292.6,348.57s.07,0,.09,0c-.02,0-.05,0-.09,0Z"/><path class="cls-7" d="M292.05,348.62s.03,0,.04,0c-.01,0-.03,0-.04,0Z"/><path class="cls-7" d="M292.09,348.61c.16-.01.3-.03.4-.04-.1,0-.23.02-.4.04Z"/><path class="cls-7" d="M292.5,348.58s.08,0,.11,0c-.03,0-.07,0-.11,0Z"/><path class="cls-7" d="M289.63,348.83c.46-.04.87-.08,1.22-.11-.37.03-.78.07-1.22.11Z"/><path class="cls-7" d="M291.4,348.67s.04,0,.06,0c-.02,0-.04,0-.06,0Z"/><path class="cls-7" d="M290.95,348.71c.16-.01.32-.03.46-.04-.14.01-.3.03-.46.04Z"/><path class="cls-7" d="M291.46,348.67c.12-.01.23-.02.33-.03-.1,0-.21.02-.33.03Z"/><path class="cls-7" d="M291.79,348.64c.09,0,.18-.02.27-.02-.08,0-.17.01-.27.02Z"/><path class="cls-7" d="M288.85,348.9c-.36.03-.72.06-1.08.1h0c.39-.03.75-.07,1.08-.1Z"/><path class="cls-7" d="M290.85,348.72s.07,0,.1,0c-.03,0-.06,0-.1,0Z"/><path class="cls-7" d="M283.22,349.39c-.07,0-.14.01-.19.02.07,0,.13-.01.19-.02Z"/><path class="cls-7" d="M282.79,349.43s-.03,0-.04,0c0,0,.02,0,.04,0Z"/><path class="cls-7" d="M283.02,349.41c-.05,0-.1,0-.15.01.04,0,.09,0,.15-.01Z"/><path class="cls-7" d="M257.12,326.47s3.16,24.94,25.62,22.96c0,0-19.68-1.77-25.62-22.96Z"/><path class="cls-7" d="M284.31,349.3c-.31.03-.59.05-.83.07.28-.02.56-.05.83-.07Z"/><path class="cls-7" d="M285.45,349.2c-.36.03-.74.07-1.14.1.34-.03.73-.06,1.14-.1Z"/><path class="cls-7" d="M285.45,349.2c.14-.01.27-.02.4-.04h0c-.14.01-.27.02-.4.04Z"/><path class="cls-7" d="M283.48,349.37c-.09,0-.18.02-.27.02.08,0,.17-.01.27-.02Z"/><path class="cls-7" d="M282.87,349.42s-.07,0-.09,0c.03,0,.06,0,.09,0Z"/><path class="cls-7" d="M276.2,266.7c.21-.22.4-.44.59-.64-.21.23-.41.44-.59.64Z"/><path class="cls-7" d="M262.21,298.68c1.95-7.97,4.95-15.3,7.59-20.82-3.56,6.44-6.44,12.7-7.59,20.82Z"/><path class="cls-7" d="M276.79,266.06c.12-.13.24-.26.37-.4-.12.13-.24.26-.37.4Z"/><path class="cls-7" d="M278,264.75c.4-.44.77-.84,1.07-1.16-.26.28-.6.65-1.07,1.16Z"/><path class="cls-7" d="M276.2,266.7c-.05.06-.11.12-.16.18h0c.05-.06.11-.12.16-.18Z"/><path class="cls-7" d="M279.47,263.15c.21-.23.24-.26,0,0h0Z"/><path class="cls-7" d="M279.07,263.59c.18-.19.31-.34.41-.44-.1.11-.24.26-.41.44Z"/><path class="cls-7" d="M277.16,265.66c.31-.34.6-.65.84-.91-.28.3-.56.61-.84.91Z"/><path class="cls-7" d="M271.67,341.15c-.31-.39-.55-.68-.65-.8,0,0,0,0,0,0,.23.28.44.55.65.8Z"/><path class="cls-7" d="M272.59,342.28c-.1-.12-.2-.25-.3-.37.1.12.2.25.3.37t0,0Z"/><path class="cls-7" d="M272.29,341.9s0,0,0,.01c0,0,0,0,0-.01Z"/><polygon class="cls-7" points="275.25 267.73 275.25 267.73 275.25 267.73 275.25 267.73"/><path class="cls-7" d="M274.9,345.13c-.12-.15-.29-.36-.52-.64,0,0,0,0,0,0,.21.26.39.48.52.64Z"/><path class="cls-7" d="M271.81,341.32c.17.21.32.39.47.58-.17-.21-.33-.4-.47-.58Z"/><path class="cls-7" d="M271.67,341.15c.05.06.09.11.14.17-.04-.05-.09-.12-.14-.17Z"/><path class="cls-7" d="M260.23,311.49c.24-4.34.97-8.66,1.99-12.81,1.15-8.12,4.03-14.38,7.59-20.82,2.96-6.2,5.45-10.13,5.45-10.13-9.89,10.73-15.02,26.84-15.02,26.84l3.75-14.54c-17.02,34.44-1.05,53.55-1.05,53.55l-2.7-8.43c2.52,5.32,6.92,10.75,9.23,13.42-.6-.94-1.19-1.97-1.77-3.08-6.45-11.02-7.45-24.01-7.45-24.01Z"/><path class="cls-7" d="M274.9,345.13c.05.07.1.12.13.17-.04-.05-.08-.1-.13-.17Z"/><path class="cls-7" d="M275.11,345.38c.05.06.05.06,0,0h0Z"/><path class="cls-7" d="M275.04,345.29s.05.07.07.09c-.02-.02-.04-.05-.07-.09Z"/><path class="cls-7" d="M164.72,304.2c6.57,9.68,7.12,15.2,7.08,16.98.51-9.11-9.97-26.73-18.83-39.01-9.06-12.58-8.49-25.51-8.49-25.51-1.95,18.5.89,19.38,15.42,44.8,14.53,25.41,0,34.75,0,34.75,16.64-9.17,4.82-32.01,4.82-32.01Z"/><path class="cls-7" d="M171.8,321.18c-.01.22-.02.44-.05.65,0,0,.04-.22.05-.65Z"/><path class="cls-7" d="M279.65,268.91c-9.96,14.92-14.21,39.67-14.21,39.67-.12-14.96,7.65-32.58,7.65-32.58-18.29,36.57-4.02,54.12-4.02,54.12-5.3-29.47,10.59-61.21,10.59-61.21Z"/><path class="cls-3" d="M322.84,210.1s-6.07-7.85-10.46-10.06c2.46,1.91,20.61,21.43,12.36,45.22,10.93-16.26,6.7-28.26,3.41-33.77-.83-1.28-1.79-2.56-2.83-3.8-.05-.06-.13-.15-.19-.22-.12-.14-.24-.28-.36-.42-.22-.25-.48-.55-.77-.87-5.17-5.7-11.65-10.55-14.1-12.31-.65-.42-1.3-.83-1.97-1.22,0,0,11.81,9.97,14.92,17.45Z"/><path class="cls-7" d="M334.44,331.42s.04,0,0,0h0Z"/><path class="cls-7" d="M333.01,331.42c.25,0,.47,0,.66,0-.18,0-.41,0-.66,0Z"/><path class="cls-7" d="M334.41,331.42s.02,0,.03,0c0,0-.02,0-.03,0Z"/><path class="cls-7" d="M332.37,331.41c.24,0,.45,0,.64,0-.2,0-.41,0-.64,0Z"/><path class="cls-7" d="M331.18,331.41c.42,0,.82,0,1.18,0-.35,0-.74,0-1.18,0Z"/><path class="cls-7" d="M333.67,331.42c.17,0,.31,0,.42,0-.12,0-.26,0-.42,0Z"/><path class="cls-7" d="M334.19,331.42c.1,0,.17,0,.21,0-.05,0-.12,0-.21,0Z"/><path class="cls-7" d="M334.09,331.42s.07,0,.1,0c-.03,0-.06,0-.1,0Z"/><path class="cls-7" d="M326.76,331.4c-.69,0-1.43,0-2.23,0h0c.73,0,1.48,0,2.23,0Z"/><path class="cls-7" d="M327.55,331.4c.24,0,.48,0,.72,0-.23,0-.47,0-.72,0Z"/><path class="cls-7" d="M328.26,331.4s.05,0,.07,0c-.02,0-.05,0-.07,0Z"/><path class="cls-7" d="M330.2,331.41c.35,0,.68,0,.99,0-.31,0-.64,0-.99,0Z"/><path class="cls-7" d="M326.76,331.4c.27,0,.53,0,.79,0-.26,0-.52,0-.79,0Z"/><path class="cls-7" d="M329.31,331.4c.05,0,.11,0,.16,0-.05,0-.11,0-.16,0Z"/><path class="cls-7" d="M329.47,331.41c.25,0,.49,0,.72,0-.23,0-.47,0-.72,0Z"/><path class="cls-7" d="M328.33,331.4c.33,0,.66,0,.98,0-.31,0-.63,0-.98,0Z"/><path class="cls-7" d="M303.83,319.38c3.17,5.11,7.39,8.82,12.36,10.98-5.38-3.44-21.37-15.92-17.01-40.23-2.15,9.82-.57,20.82,4.65,29.25Z"/><path class="cls-7" d="M299.22,289.93s-.01.06-.02.08c0-.02.01-.05.02-.08Z"/><path class="cls-7" d="M323.43,331.39c.15,0,.31,0,.46,0-.16,0-.31,0-.46,0Z"/><path class="cls-7" d="M323.01,331.39c.14,0,.28,0,.42,0-.14,0-.28,0-.42,0Z"/><path class="cls-7" d="M301,284.27c-.62,1.54-1.14,3.14-1.55,4.78.26-.96.75-2.59,1.55-4.78Z"/><path class="cls-7" d="M303.58,319.54c-7.05-11.38-7.53-27.42-1.17-39,.06-.1.11-.2.17-.3,2.25-5.37,5.87-12.66,11.5-21.18.24-.44.46-.87.68-1.28-4.18,5.13-21.14,27.16-19.54,45.27,0,0-4.61-12.59,6.59-31.64,0,0-11.59,9.6-9.54,32.8,0,0-2.51-4.69-1.93-16.59,0,0-9.74,43.66,27.56,43.76,0,0-.01,0-.01,0-5.83-1.98-10.64-5.92-14.3-11.83Z"/><path class="cls-7" d="M320.76,331.38c.79,0,1.54,0,2.25,0-.81,0-1.57,0-2.25,0Z"/><path class="cls-7" d="M318.9,331.38h0c.08,0,.17,0,.26,0-.08,0-.17,0-.26,0Z"/><path class="cls-7" d="M320.53,331.38c.08,0,.15,0,.23,0-.08,0-.15,0-.23,0Z"/><path class="cls-7" d="M319.16,331.38c.47,0,.93,0,1.37,0-.52,0-.98,0-1.37,0Z"/><path class="cls-7" d="M314.38,231.85c-1.47-7.76-6.92-14.06-6.95-14.09-.03-.02-6.65-5.61-8.73-8.95-2.53-3.87-5.41-9.1-5.76-15.2-.42,3.16-.7,11.93,6.76,21.24,0,0-7-5.71-9.36-13.69,0,0-.39,5.65,9.98,18.47,11.51,14.23,2.56,29.32-2.32,39.07-4.88,9.75-7.18,11.96-13.28,27.43,0,0,9.71-18.06,20.61-32.39l-12.14,22.25s10.5-12.78,16.4-23.66c4.01-8.33,5.5-16.71,4.78-20.48Z"/><path class="cls-7" d="M312.29,246.63c3.53-9.09,4.13-17.33-1.89-25.52,1.56,2.38,3.35,5.92,4.27,10.66.57,2.93-.18,8.59-2.38,14.87Z"/><path class="cls-3" d="M304.85,285.67c-1.53,7.82-1.63,19.15,5.78,30.37.73,1.11,2.65,3.14,2.65,3.14-.88-1.1-1.68-2.21-2.41-3.31-7.34-11.14-7.25-22.37-5.73-30.14,1.09-5.55,3.02-10.09,4.41-12.85.93-1.84,1.61-2.9,1.62-2.92,0,0-1.02,1.03-2.02,3.06-1.38,2.8-3.24,7.25-4.3,12.64Z"/><path class="cls-13" d="M152.42,199.49c1.11,10.3,3.18,29.48-14.08,51.09-7.58,9.49-10.38,20.3-8.1,31.28,1.52,7.32,5.24,14.56,10.65,20.86,1.31,1.52,4.42,4.18,4.42,4.18-1.41-1.32-2.78-2.73-4.08-4.24-11.31-13.09-17.75-33-2.66-51.89,17.33-21.7,15.26-40.96,14.14-51.3-.93-8.62-1.11-19.22,1.17-29.62h-.3c-2.28,10.42-2.09,21.02-1.16,29.65Z"/><path class="cls-13" d="M150.87,264.63c.14.49.31,1.02.51,1.56-1.19-6.67-.58-13.82,3.05-21.81-.84,1.69-1.58,3.32-2.2,4.91-1.61,5.16-2.06,10.24-1.36,15.35Z"/><path class="cls-13" d="M173.34,310.9c1.38,3.66,2.05,7.15,1.62,10.53,0,.8-.06,1.6-.19,2.41,1.33-4.68.39-9.51-1.82-14.69.17.62.31,1.21.39,1.75,0,0,0,0,0,0Z"/><path class="cls-13" d="M158.13,237.58c2.18-3.43,3.95-6.62,5.37-9.6-2.21,3.96-4.3,7.55-6.15,10.87.25-.42.5-.84.78-1.27Z"/><path class="cls-13" d="M163.29,170.1c0-.09.02-.17.02-.26h-.01c0,.09,0,.17-.01.26Z"/><path class="cls-13" d="M158.75,340.78c-1.25.57-2.56,1.05-3.94,1.45,0,0,2.77-.6,4.03-1.17,3.85-1.74,7.16-4.32,10.32-8-.56.51-1.15,1.03-1.81,1.55-2.65,2.72-5.44,4.73-8.6,6.17Z"/><path class="cls-13" d="M160.84,288.66c.97,1.58,1.93,3.13,2.86,4.63,3.99,6.42,7.59,12.21,9.63,17.61,0,0,0,0,0,0-.08-.54-.22-1.13-.39-1.75-2.11-4.95-5.39-10.22-8.99-16.01-.93-1.5-1.9-3.05-2.86-4.63-4.39-7.19-8.31-14.42-9.72-22.32-.19-.54-.37-1.07-.51-1.56,1.19,8.72,5.49,16.7,9.97,24.03Z"/><path class="cls-13" d="M172.41,328.32c-1.66,2.44-3.33,4.52-5.06,6.3.66-.53,1.26-1.04,1.81-1.55,1.18-1.37,2.34-2.88,3.49-4.58.98-1.54,1.67-3.08,2.11-4.64.14-.81.19-1.61.19-2.41-.29,2.34-1.1,4.63-2.55,6.89Z"/><path class="cls-13" d="M164.54,224.97c-1.6,3.76-3.76,7.9-6.66,12.45-2.55,4.02-4.43,7.96-5.65,11.85.62-1.59,1.36-3.22,2.2-4.91.82-1.8,1.79-3.63,2.92-5.52,1.85-3.33,3.94-6.91,6.15-10.87.81-1.69,1.51-3.31,2.1-4.86-.35.67-.71,1.29-1.06,1.85Z"/><path class="cls-13" d="M168.75,207.16c-.08-3.98-.88-7.19-1.78-9.78-.18-.51-.35-1.01-.53-1.52-.47-1.34-.95-2.7-1.39-4.14.66,2.76,1.23,4.36,1.23,4.36,1.48,4.05,2.22,7.75,2.46,11.07Z"/><path class="cls-3" d="M136.33,264.52c-2,7.33-1.38,14.66,1.96,23.08.04.09,4.51,9.07,14.41,23.13,2.73,3.27,3.93,7.3,4.45,10.47.5,3,.38,5.22.38,5.27,0,0,.41-2.24-.08-5.24-.52-3.22-1.74-7.34-4.52-10.68-9.88-14.04-14.34-23-14.38-23.08-5.53-13.95-2.77-24.22,2.68-33.44.14-.42.29-.83.45-1.26-2.28,3.68-4.22,7.58-5.35,11.74Z"/><path class="cls-3" d="M156.41,214.85c0,.05.03,1.56-.18,4-.03.3-.06.63-.09.95.16-.73.31-1.47.45-2.2.04-1.71-.17-2.75-.17-2.75Z"/><path class="cls-3" d="M141.91,252.41c.13-.2.32-.5.56-.89-.19.29-.37.59-.56.89Z"/><path class="cls-3" d="M156.52,218.8c.04-.43.05-.83.06-1.2-.14.73-.29,1.47-.45,2.2-.62,6.07-2.63,16.61-9.1,25.23-1.57,2.09-3.12,4.25-4.57,6.49-.24.39-.43.68-.56.89-.08.12-.15.25-.23.37-.16.43-.3.84-.45,1.26,1.79-3.02,3.87-5.94,6.04-8.83,6.89-9.18,8.75-20.52,9.25-26.41Z"/><path class="cls-3" d="M176.16,177.26s.06-.43.18-1.17c-.2-2.16-.33-4.24-.39-6.24h-.29c.07,2.37.23,4.84.5,7.41Z"/><path class="cls-3" d="M176.34,176.08c-.12.74-.18,1.16-.18,1.17.78,7.35,2.48,15.54,5.55,24.47l.11-.04c.04-.08.07-.15.11-.23-3.18-9.31-4.87-17.8-5.59-25.37Z"/><path class="cls-3" d="M173.31,334.69c-2.02,1.84-4.34,3.28-6.88,4.27-1.56.61-3.2,1.05-4.92,1.31,0,0,3.38-.4,4.93-1,3.32-1.28,6.25-3.31,8.67-5.98-.57.52-1.17,1.01-1.82,1.43,0,0,.01-.02.02-.02Z"/><path class="cls-3" d="M179.49,206.95c.32-.56.63-1.14.95-1.72.71-1.43,1.33-2.73,1.88-3.92-.99,1.97-1.93,3.84-2.83,5.64Z"/><path class="cls-3" d="M177.86,210.22c.96-1.8,1.82-3.47,2.58-4.99-.32.58-.63,1.16-.95,1.72-.56,1.12-1.11,2.21-1.64,3.27Z"/><path class="cls-3" d="M182.32,201.31c2.7-5.84,3.57-8.81,3.59-8.86,1.58-5.09,2.71-10.08,3.5-14.87.17-1.52.31-3.08.38-4.71,0,0,.15-1.06.32-2.94-.68,6.99-2.04,14.59-4.48,22.43-.02.05-.91,3.09-3.69,9.08.02.06.04.12.06.18l-.16.06c-1.46,3.13-3.46,7.08-6.08,11.79,1.18-2.04,2.45-4.2,3.75-6.52.9-1.8,1.84-3.67,2.83-5.64Z"/><path class="cls-3" d="M179.55,302.09c-6.18-13.78-10.54-22.24-10.59-22.33-14.58-26.46-8.85-39.58,2.33-58.05.16-.27.32-.53.48-.8.64-1.34,1.4-2.81,2.34-4.55.08-.15.17-.3.25-.45-1.02,1.79-2.11,3.65-3.32,5.65-6.13,10.13-10.1,18.15-10.96,26.84-.92,9.3,1.74,19.01,8.62,31.5.04.08,4.4,8.54,10.58,22.31,3.68,8.21,3.3,18.21-.99,26.09-1.35,2.47-3.03,4.61-4.98,6.38,0,0-.02.02-.02.02.65-.42,1.25-.91,1.82-1.43,1.3-1.44,2.46-3.05,3.44-4.84,4.33-7.96,4.72-18.06,1-26.35Z"/><path class="cls-3" d="M175.74,213.47c-.44.79-.9,1.61-1.38,2.45-.08.15-.17.3-.25.45-.94,1.73-1.7,3.21-2.34,4.55,2.39-3.98,4.4-7.54,6.09-10.69.53-1.06,1.08-2.15,1.64-3.27-1.3,2.32-2.57,4.48-3.75,6.52Z"/><path class="cls-3" d="M189.41,177.59c.44-2.65.77-5.24,1.01-7.75h-.29s0,.07,0,.1c-.17,1.88-.32,2.94-.32,2.94-.08,1.63-.22,3.18-.38,4.71Z"/><path class="cls-3" d="M181.93,201.45c-.04.08-.07.15-.11.23l.16-.06c-.02-.06-.04-.12-.06-.18Z"/><path class="cls-3" d="M180.77,218.02c-6.65,8.87-9.53,18.26-8.82,28.72.6,8.82,3.58,16.89,6.85,25.07.03.08,3.5,8.09,9.28,16.64,5.34,7.9,10.02,17.49,5.65,29.46-.47,1.28-1.04,2.59-1.72,3.93,0,0,1.51-2.5,1.98-3.78,4.45-12.11-.27-21.79-5.66-29.77-5.76-8.52-9.22-16.51-9.26-16.58-5.6-14.02-13.27-33.23,1.93-53.5,10.5-14,14.51-28.76,15.95-36.13.58-2.95.46-4.81.46-4.81,0,.06-.17,1.84-.76,4.81-1.45,7.36-5.45,22.03-15.89,35.95Z"/><path class="cls-2" d="M138,171.04c-.32,4.57.52,7.83.52,7.83,0-.04-.64-3.87-.12-9.03h-.29c-.04.41-.08.81-.11,1.2Z"/><path class="cls-13" d="M286.04,349.14c.11,0,.22-.02.33-.03.21-.02.42-.04.62-.05.03,0,.05,0,.08,0-.12-.04-.22-.08-.35-.13-.77-.04-1.55-.11-2.32-.22.6.18,1.15.33,1.64.44Z"/><path class="cls-13" d="M264.8,328.11c.69,2.08,1.48,3.96,2.35,5.66-.81-1.69-1.59-3.58-2.35-5.66Z"/><path class="cls-13" d="M272.13,273.75c-4.73,9.4-8.66,18.87-10.27,28.28-.08,1-.13,2.03-.15,3.09,1.47-12.7,7.53-25.55,14.34-38.24,0,.01-.02.02-.03.03-1.32,2.4-2.63,4.65-3.88,6.84Z"/><path class="cls-13" d="M286.98,349.06c-.21.02-.42.04-.62.05-.11,0-.22.02-.33.03.07.02.14.03.21.05.47.03.94.06,1.4.07-.18-.06-.38-.13-.59-.21-.03,0-.05,0-.08,0Z"/><path class="cls-13" d="M286.52,217.35c.16.46.31.92.46,1.4,2.48,7.95,4.07,19.95-2.45,32.01-.21.38-.42.77-.63,1.15-1.97,4.22-4.43,8.61-7.17,13.68-.24.44-.48.88-.72,1.31,0,0,.02-.02.03-.03,1.57-2.92,3.17-5.83,4.77-8.72,1.32-2.39,2.68-4.85,3.98-7.26,6.57-12.15,4.97-24.24,2.47-32.25-.06-.19-.12-.36-.18-.54-.35-.51-.56-.77-.56-.77,0,0,0,.01,0,.02Z"/><path class="cls-13" d="M262.83,323.12c1.51,5.02,3.13,9.08,4.85,12.37.97,1.65,2.05,3.26,3.28,4.78,0,0,.02.03.06.07-1.33-1.8-2.63-3.96-3.87-6.57-.87-1.7-1.66-3.58-2.35-5.66-.58-1.58-1.14-3.26-1.69-5.07-1.78-5.91-2.11-11.9-1.41-17.92.03-1.06.08-2.09.15-3.09-1.21,7.09-1.11,14.14.98,21.1Z"/><path class="cls-13" d="M268.58,169.84h-.29c1.45,19.23,11.54,34.21,11.66,34.39.04.05,3.88,5.28,6.57,13.12,0,0,0-.01,0-.02,0,0,.21.27.56.77-2.72-8.36-6.85-13.99-6.89-14.05-.12-.18-10.16-15.08-11.61-34.22Z"/><path class="cls-13" d="M275.56,267.39c.07-.07.14-.16.23-.25.07-.08.15-.17.22-.24.24-.43.48-.87.72-1.31,2.74-5.07,5.2-9.46,7.17-13.68-1.11,2.03-2.24,4.09-3.35,6.1-1.78,3.23-3.57,6.47-5.3,9.72,0,0,.04-.04.11-.12.07-.08.13-.14.2-.22Z"/><path class="cls-13" d="M272.59,342.28c-.53-.59-1.05-1.23-1.57-1.93-.02-.03-.04-.05-.06-.07,0,0-.59-.64-1.51-1.7,1.59,2.5,3.24,4.43,4.93,5.91-.33-.41-.74-.91-1.15-1.42-.2-.24-.41-.5-.64-.79Z"/><path class="cls-13" d="M272.59,342.28c.21.26.43.53.64.79.49.6.87,1.07,1.15,1.42,3.69,3.23,7.59,4.35,11.47,4.67.06,0,.12-.01.18-.02-.49-.11-1.05-.26-1.64-.44-4.03-.58-8.05-2.21-11.8-6.43Z"/><path class="cls-13" d="M286.25,349.19c-.07-.02-.14-.03-.21-.05-.06,0-.12.01-.18.02.13.01.26.02.4.03Z"/><path class="cls-13" d="M275.56,267.39c-.08.09-.15.16-.2.22-.04.04-.07.08-.11.12-1.07,2-2.11,4-3.12,6.01,1.26-2.19,2.56-4.44,3.88-6.84-.08.09-.15.17-.22.24-.07.08-.15.16-.23.25Z"/><path class="cls-13" d="M286.36,349.12c.2-.02.41-.04.62-.05-.2.02-.41.04-.62.05Z"/><path class="cls-13" d="M286.36,349.12c-.11,0-.22.02-.33.03h0c.11,0,.22-.02.33-.03Z"/><path class="cls-13" d="M287.06,349.05s-.05,0-.08,0c.03,0,.05,0,.08,0h0Z"/><path class="cls-13" d="M285.85,349.16c.06,0,.12-.01.18-.02h0c-.06,0-.12.01-.18.02h0Z"/><path class="cls-13" d="M276.01,266.9s.02-.02.03-.03h0s-.02.02-.03.03h0Z"/><path class="cls-13" d="M276.01,266.9h0c-.07.08-.15.16-.22.24.07-.08.14-.16.22-.24Z"/><path class="cls-13" d="M273.23,343.07c-.21-.26-.43-.53-.64-.79t0,0c.23.29.45.55.64.79Z"/><path class="cls-13" d="M274.39,344.49s0,0,0,0c-.29-.35-.67-.82-1.15-1.42.42.51.82,1.01,1.15,1.42Z"/><path class="cls-13" d="M275.56,267.39c.08-.08.15-.17.23-.25-.08.09-.16.17-.23.25Z"/><path class="cls-13" d="M267.68,335.49c.58,1.12,1.17,2.14,1.77,3.08.92,1.06,1.51,1.7,1.51,1.7-1.23-1.51-2.32-3.12-3.28-4.78Z"/><path class="cls-13" d="M275.36,267.61c.05-.05.12-.13.2-.22-.07.07-.13.14-.2.22Z"/><path class="cls-13" d="M271.02,340.34s-.06-.07-.06-.07c.02.03.04.05.06.07,0,0,0,0,0,0Z"/><path class="cls-13" d="M275.36,267.61c-.07.08-.11.12-.11.12h0s.07-.08.11-.12Z"/><path class="cls-3" d="M255.49,169.84c-.15,2.41-.23,4.98-.18,7.65.1-1.46.22-2.95.34-4.43.03-1.09.09-2.16.16-3.22h-.32Z"/><path class="cls-3" d="M259.92,200.55c2.14,4.66,4.27,8.96,6.34,13.11,7.38,14.82,13.2,26.52,9.27,36.92-2.34,6.19-6.62,12.84-10.76,19.28-3.83,5.96-7.45,11.59-9.26,16.41-1.68,4.47-6.13,16.33-6.68,28.95-.59,13.65,3.43,24.27,11.96,31.64,1.16,1,3.88,2.58,3.88,2.58-1.15-.77-2.3-1.62-3.42-2.58-10.41-8.89-18.29-26.35-5.47-60.49,1.8-4.79,5.41-10.41,9.23-16.35,4.15-6.45,8.44-13.12,10.79-19.34,3.98-10.52-1.87-22.27-9.28-37.15-2.06-4.15-4.2-8.44-6.34-13.1-3.88-8.46-4.82-18.4-4.54-27.37-.12,1.48-.24,2.97-.34,4.43.14,7.55,1.29,15.82,4.61,23.06Z"/><path class="cls-13" d="M295.62,218.22c1.93,3.97,3.74,9.68,4.22,16.07-.12-6.67-2.03-11.91-4.22-16.07Z"/><path class="cls-13" d="M270.42,309.11c.42-4.78,1.96-10.08,4-15.31-1.23,2.86-1.98,4.76-2.14,5.17-1.09,3.48-1.88,6.91-2.16,10.11-.92,10.57-.61,18.24.98,24.14,1.89,7.02,5.62,11.48,11.39,13.62-.4-.25-.81-.52-1.22-.81-.03-.02-.05-.04-.08-.06-9.41-4.37-12.64-15.54-10.78-36.87Z"/><path class="cls-13" d="M288.84,207.38c1.54,2.92,3.31,5.27,4.84,7.46-1.79-2.95-3.32-5.24-4.84-7.46Z"/><path class="cls-13" d="M289.95,264.44c-.06.09-2.24,3.22-5.13,8.04-1.68,3.02-3.24,6.02-4.65,8.86,4.95-9.43,9.93-16.61,10.03-16.75,1.13-1.9,2.13-3.74,3.04-5.52-.44.6-.87,1.22-1.29,1.84-.62,1.15-1.28,2.32-1.99,3.52Z"/><path class="cls-13" d="M277.41,189.58c-3.48-5.94-4.3-13.24-4.07-19.74h-.29c-.23,6.54.6,13.9,4.11,19.89,4.71,8.03,7.71,12.38,10.35,16.22,2.09,3.04,4.07,5.91,6.61,10.18,5.03,8.44,10.07,22.12-2.18,44.79.43-.62.86-1.23,1.29-1.84,5.03-9.92,6.73-18.08,6.61-24.79-.48-6.39-2.29-12.1-4.22-16.07-.41-.78-.83-1.53-1.26-2.24-.24-.4-.46-.77-.69-1.14-1.52-2.19-3.3-4.54-4.84-7.46-.36-.53-.73-1.06-1.09-1.59-2.64-3.83-5.63-8.18-10.34-16.2Z"/><path class="cls-13" d="M272.28,298.97c.16-.41.91-2.31,2.14-5.17,1.69-4.31,3.71-8.57,5.75-12.45,1.41-2.84,2.97-5.84,4.65-8.86-4.05,6.76-9.51,16.83-12.54,26.49Z"/><path class="cls-3" d="M287.19,176.45s0,.01,0,.02c-.6,2.43-1.05,4.69-1.37,6.81.4-1.93.9-3.83,1.41-5.8.64-2.42,1.28-4.9,1.81-7.64h-.3c-.46,2.35-1,4.51-1.55,6.61Z"/><path class="cls-3" d="M287.19,176.45c-.08.32-.17.63-.25.95-1.62,6.17-3.06,11.66-1.91,19.4.45,2.98,1.56,5.81,1.56,5.81-.58-2.08-.99-4-1.26-5.8-.78-5.25-.37-9.45.48-13.54.33-2.12.77-4.38,1.37-6.81,0,0,0-.01,0-.02Z"/><path class="cls-3" d="M309.6,252.33c-1.06,2.19-2.28,4.38-3.69,6.48-12.45,18.48-19.67,23.95-20.1,42.3,0,.08-.13,7.54,3.78,15.57,3.19,6.55,9.12,14.07,19.72,15.21.9.1,1.83.15,2.79.15.57,0,1.73-.35,1.73-.35-1.57.09-3.04.06-4.44-.09-10.51-1.11-16.38-8.56-19.54-15.04-3.89-7.98-3.74-15.39-3.75-15.46.44-18.26,7.63-23.69,20.05-42.13,2.69-3.99,4.72-8.3,6.14-12.35-.05.13-.1.27-.16.4-.66,1.66-1.53,3.45-2.53,5.3Z"/><path class="cls-3" d="M293.71,186.61c-.69,2.43-.9,4.77-.77,7,.11-.8.22-1.24.22-1.24-.43,12.72,10.96,22.19,10.96,22.19,2.61,2.19,4.68,4.37,6.28,6.55-1.29-1.97-2.42-3.15-2.78-3.57-.78-.92-4.7-3.42-8.68-8.9-3.67-5.05-7.51-12.95-4.95-21.95,1.68-5.88,2.45-11.71,2.74-16.85h-.29c-.29,5.12-1.06,10.92-2.73,16.77Z"/><path class="cls-3" d="M304.12,214.56s-11.39-9.48-10.96-22.19c0,0-.11.45-.22,1.24.35,6.1,3.23,11.33,5.76,15.2,2.08,3.34,8.7,8.93,8.73,8.95.03.03,5.48,6.33,6.95,14.09.71,3.78-.77,12.16-4.78,20.48,1-1.84,1.87-3.63,2.53-5.3.05-.14.1-.27.16-.4,2.2-6.27,2.94-11.93,2.38-14.87-.92-4.74-2.71-8.27-4.27-10.66-1.6-2.18-3.67-4.36-6.28-6.55Z"/><path class="cls-3" d="M190.45,331.76c.05-.1.1-.2.16-.3,0-.02-.06.1-.12.22-.01.03-.02.05-.03.08Z"/><path class="cls-3" d="M190.42,331.82s.02-.03.03-.05c.01-.03.02-.05.03-.08-.02.04-.04.09-.06.13Z"/><path class="cls-3" d="M245.54,339.44s.07-.08.1-.12c-.03.04-.06.08-.1.12h0Z"/><path class="cls-3" d="M189.45,351.72c.13.35.27.7.41,1.05.03.01.04.02.04.02l-.31-1.08c-.5-1.22-.88-2.38-1.17-3.51.25,1.1.56,2.21.97,3.35.02.05.04.11.06.16Z"/><path class="cls-3" d="M139.57,191.1c-.06-.06-.11-.13-.17-.19-5.29-5.09-8.99-12.31-10.91-20.6,1.94,8.36,5.27,15.27,10.26,20.45,4.66,4.83,8.83,20.82-.46,33.68,9.26-12.81,5.55-28.11,1.28-33.34Z"/><path class="cls-3" d="M162.38,344.06c4.07.38,9.5-.85,13.09-2.44-.19.05-.34.08-.38.09-4.83,1.78-9.16,2.35-12.71,2.35Z"/><path class="cls-3" d="M190.61,331.47s0,0,0-.01c0-.03,0-.06.01-.08,0,.03,0,.06-.02.09Z"/><path class="cls-3" d="M182.87,347.02c-1.8-2.01-3.4-4.43-4.08-7.13-.11.08-.22.15-.33.23.66,4.89,5.71,8.98,8.87,11.11-1.32-.97-3.02-2.41-4.47-4.2Z"/><path class="cls-3" d="M190.72,331.15c.58-1.24,1.22-2.47,1.91-3.68.36-.67.76-1.37,1.19-2.1,1.57-2.65,3.58-5.38,4.93-7.34,1.68-2.43,3.29-4.77,4.7-7.1-6.64,9.97-13.81,18.5-15.34,28.21.23-1.26.56-2.52.97-3.81h0s.39-1.65,1.35-3.54c.07-.15.13-.3.2-.44,0,.03,0,.06-.01.08.05-.1.84-1.81,2.02-3.98-.69,1.21-1.33,2.44-1.91,3.68Z"/><path class="cls-3" d="M139.4,190.91s-.07-.08-.11-.12c-.49-.5-.96-1.05-1.44-1.61-.42-.5-.83-1.02-1.23-1.55-.02-.02-.04-.05-.05-.07-1.43-1.9-2.73-3.97-3.85-6.23-1.89-3.67-3.31-7.58-3.95-11.1-.03-.13-.05-.27-.07-.4h-.3c.03.15.05.31.09.46,1.92,8.3,5.62,15.51,10.91,20.6Z"/><path class="cls-3" d="M302.59,280.23c-.63,1.5-1.15,2.85-1.59,4.04.5-1.23,1.04-2.44,1.68-3.59,6.16-11.2,10.44-19.16,13.02-24.01-.55.81-1.09,1.6-1.61,2.38-2.6,4.86-6.4,11.89-11.5,21.18Z"/><path class="cls-3" d="M128.71,169.84c.02.13.04.27.07.4-.02-.13-.04-.26-.06-.4h-.02Z"/><path class="cls-3" d="M182.87,347.02c1.45,1.8,3.15,3.23,4.47,4.2.28.19.54.36.78.51-1.43-1.06-3.43-2.68-5.25-4.72Z"/><path class="cls-3" d="M178.72,339.59c-2.11,1.59-3.65,1.83-3.68,1.83h-.03c-.38.15-.75.26-1.13.39-1.92.77-4.43,1.43-7.8,1.76-.04,0-.08,0-.12.01-.34.03-.68.06-1.04.08-.67.05-1.31.08-1.94.09-.18,0-.35.01-.53.02-.05,0-.09,0-.14,0-.09,0-.18,0-.27,0-.46,0-.91-.02-1.34-.04-.09,0-.18,0-.26-.01-.47-.03-.92-.07-1.36-.11-.1-.01-.19-.02-.28-.03-.41-.05-.8-.1-1.17-.15-.03,0-.06,0-.09-.01-.39-.06-.76-.13-1.11-.2-.08-.02-.16-.03-.23-.05-.33-.07-.65-.14-.94-.21-.03,0-.06-.02-.1-.03-.27-.07-.51-.13-.74-.2-.05-.01-.1-.03-.15-.04-.23-.07-.44-.13-.62-.19-.04-.01-.07-.02-.11-.04-.16-.05-.3-.1-.42-.15-.02,0-.04-.01-.06-.02-.13-.05-.22-.08-.29-.11-.03-.01-.04-.01-.05-.02-.05-.02-.09-.04-.09-.04l-.05-.02-.06.02c-1.54.55-3.13.84-4.13.98,8.24-3.82,9.02-15.45,9.03-15.57l-.29-.03c-.54,2.97-1.95,5.24-4.2,6.75-3.87,2.6-9.3,2.3-11.76,2,7.89-.76,11.13-5.67,11.15-5.71,4.28-5-1.83-15.67-2.09-16.12l-.04-.07h-.08c-10.04-.64-18.02-4.52-23.7-11.54-8.33-10.28-9.66-24.99-8.27-34.46,2.52-17.14,11.73-31.72,20.41-43.73,9.21-12.74,5.64-28.29,1.04-33.51,4.27,5.23,7.98,20.53-1.28,33.34-8.7,12.04-17.94,26.66-20.46,43.86-1.4,9.52-.05,24.32,8.34,34.68,5.72,7.06,13.74,10.98,23.83,11.64.52.93,6.05,11.07,2.07,15.73-.03.05-3.56,5.38-12.25,5.68l-1.19.04,1.16.25c.08.02,8.05,1.67,13.28-1.84,1.73-1.16,2.98-2.75,3.73-4.75-.69,3.74-2.88,11.1-9.52,13.49l-1.01.36,1.07-.08s2.67-.21,5.2-1.1c.49.21,4.15,1.66,9.84,1.66,3.54,0,7.87-.57,12.71-2.35.05,0,.19-.04.38-.09,1.26-.56,2.29-1.16,2.95-1.75,0,.08.03.17.04.25.11-.08.21-.15.33-.23-.02-.1-.05-.2-.07-.3Z"/><path class="cls-3" d="M245.81,339.08s0,0,0,0h0c-1.63-2.19-2.89-4.57-3.87-7.05-.88-1.96-1.6-3.97-2.12-6.03,1.08,5.03,2.94,9.39,5.58,13.02l-.15-.02c.1.14.19.29.28.44.03-.04.07-.08.1-.12,2.26,3.02,5.07,5.51,8.4,7.49-1.06-.76-2.08-1.57-3.05-2.43-2.02-1.59-3.74-3.37-5.17-5.3Z"/><path class="cls-3" d="M299.15,178.78c0-.49.03-.99.06-1.49-.03.44-.05.94-.06,1.49Z"/><path class="cls-3" d="M327.66,332.55s.06.01.09.02c-3.11.07-6.07-.34-8.84-1.19-.01,0-.03,0-.04,0-.08,0-.17,0-.25,0-.31,0-.52,0-.63,0-.02,0-.05,0-.07,0,1.26.43,2.57.77,3.93,1.02-13.23,6.82-27.39,2.45-35.25-10.91-1.56-2.65-2.63-5.65-3.37-8.73,0,.42.01.86.03,1.29.72,2.68,1.72,5.27,3.09,7.59,3.86,6.56,9.23,11.1,15.52,13.14,6.47,2.09,13.81,1.23,20.56-2.28h-.02c1.35.21,2.75.34,4.19.38.41,0,1.17,0,1.73-.28.06-.02.08-.04.08-.04,0,0-1.33-.06-3.85-1.16-.2,0-.4,0-.6,0,1.22.52,2.48.93,3.72,1.16Z"/><path class="cls-3" d="M308.85,193.13l.03.03s.39.27,1.01.71c6.34,4.12,11.55,9.48,14.1,12.31.26.29.52.58.77.87.14.16.26.29.36.42.06.07.13.15.19.22.24.29.37.45.37.45,0,0,1.16,1.17,2.46,3.35.89,1.37,1.63,2.76,2.14,4.12,3.82,10.14,1.26,20.28-9.45,37.42-8.79,14.06-18.02,32.67-11.33,51.99.06.15,6.13,14.93,22.59,17.68-1.89.37-6.72,1.2-9.97.67-.44-.07-1.5-.36-1.87-.48,0,0,.88.65,1.46.91,2.1.95,7.53,2.91,13.61,1.28-1.14.65-3.29,1.67-6.19,2.16-4.04.68-11.14,1.29-17.69-4.69-.03-.03-3.29-3.2-6.11-8.96-2.41-4.92-4.95-12.71-4-22.67.08-.8.18-1.61.3-2.44,0,0-.52,1.62-.59,2.43-.96,10.02,1.6,17.86,4.03,22.81,2.85,5.8,6.14,9,6.19,9.05.95.86,1.92,1.58,2.9,2.19,0,0-.01,0-.01,0,0,0,4.54,4.19,9.79,6.42.2,0,.4,0,.6,0-2.11-.92-5.05-2.56-8.76-5.52,5.27,2.6,10.49,2.11,13.43,1.66,4.45-.75,7.18-2.76,7.21-2.78l.73-.55-.87.29c-6.12,2.05-11.74.21-14.13-.82,4.12.65,10.51-.78,10.81-.85l.78-.18-.79-.11c-16.9-2.37-23.1-17.47-23.16-17.62-6.64-19.19,2.55-37.73,11.3-51.73,5.32-8.5,8.5-15.11,10.03-20.78,1.65-6.15,1.48-11.52-.55-16.9-3.97-10.53-20.84-22.13-21.5-22.58-6.17-7.79-6.68-14.96-4.92-23.09h-.3c-1.77,8.19-1.24,15.41,5,23.29Z"/><path class="cls-3" d="M299.17,180.33c-.01-.36-.02-.73-.02-1.1,0,.35,0,.72.02,1.1Z"/><path class="cls-3" d="M287.66,349.26s0,0,0,0c.43.14.79.25,1.03.31-3.8,2.32-8,3.73-13.96,3.3-.73.03-1.45.04-2.16.03,1.53.2,2.95.31,4.26.31,5.48,0,9.18-1.61,12.31-3.57l.3-.19-.35-.08s-.51-.12-1.31-.38c-.03,0-.07,0-.1,0v.26Z"/><path class="cls-3" d="M318.45,250.81s-1.22,2.34-3.68,6.96c.58-.72.92-1.11.92-1.11,2.02-3.79,3-5.68,3.02-5.73,8.35-21.31,3.53-31.76-3.66-40.86,0,0-.54-.44-1.4-1.26,7.75,9.4,13.52,19.72,4.79,42Z"/><path class="cls-3" d="M305.37,198.76c-3.08-4.82-5.79-10.92-6.17-17.77.24,4.53,1.54,11.12,6.17,17.77Z"/><path class="cls-3" d="M272.82,330.71c.49,8,4.81,12.71,8.38,15.27.46.21.93.42,1.43.6l-.1.27s-.02,0-.03-.01c1.57.97,3.06,1.64,4.22,2.08.32.02.64.03.95.04v.03s.07,0,.1,0c-1.44-.48-3.87-1.45-6.33-3.2-3.53-2.51-7.84-7.16-8.32-15.1-.06-1.01-.09-2.05-.09-3.09-.1-.31-.2-.61-.28-.93-.02,1.37,0,2.72.08,4.04Z"/><path class="cls-3" d="M316.19,330.36c1.01.65,1.65.98,1.7,1,0,0,.02,0,.02,0,0,0,.03,0,.07,0,.22,0,.42,0,.63,0,.08,0,.16,0,.25,0,.01,0,.03,0,.04,0-.93-.29-1.83-.63-2.71-1.01Z"/><path class="cls-3" d="M188.66,260.5c.11.21.26.5.47.86-.16-.29-.31-.57-.47-.86Z"/><path class="cls-3" d="M164.91,343.66c-.62.04-1.26.07-1.94.09.62-.01,1.27-.04,1.94-.09Z"/><path class="cls-3" d="M188.62,260.43c-.08-.15-.15-.31-.23-.46.01.03.03.06.04.1,0,0,.06.13.18.37Z"/><path class="cls-3" d="M162.3,343.76c-.09,0-.18,0-.27,0,.09,0,.18,0,.27,0Z"/><path class="cls-3" d="M160.69,343.72c-.09,0-.18,0-.26-.01.09,0,.17,0,.26.01Z"/><path class="cls-3" d="M189.39,351.56c.02.05.04.11.06.16-.02-.05-.04-.11-.06-.16Z"/><path class="cls-3" d="M198.98,274.47s.01.01.02.02c.89.94,1.76,1.96,2.6,3.06-1.97-2.89-4.38-5.84-7.23-8.85-1.04-1.09-2.01-2.3-2.92-3.59.81,1.21,1.81,2.59,2.99,4.09,1.67,1.78,3.19,3.54,4.55,5.27Z"/><path class="cls-3" d="M238.86,310.79c-.05.79-.08,1.57-.1,2.34.28-4.43,1.16-8.9,2.43-13.23-1.25,3.77-2.12,7.49-2.33,10.89Z"/><path class="cls-3" d="M299.45,289.05c-.12.42-.19.72-.23.88.07-.3.15-.59.23-.88Z"/><path class="cls-3" d="M253.61,218.5c-1.06-3.56-1.97-6.93-2.75-10.14.63,3.09,1.46,6.33,2.75,10.14Z"/><path class="cls-3" d="M166.07,343.56s-.08,0-.12.01c.04,0,.08,0,.12-.01Z"/><path class="cls-3" d="M152.75,342.17s-.04-.02-.05-.02c.02,0,.03.01.05.02Z"/><path class="cls-3" d="M153.1,342.3s-.04-.01-.06-.02c.02,0,.04.01.06.02Z"/><path class="cls-3" d="M153.63,342.48s-.07-.03-.11-.04c.04.01.07.02.11.04Z"/><path class="cls-3" d="M177.86,339.7c-1.01.67-2.28,1.42-3.99,2.11.38-.13.75-.24,1.13-.38h.03s1.58-.25,3.68-1.84c-.03-.15-.06-.3-.09-.45-.26.2-.51.39-.77.55Z"/><path class="cls-3" d="M155.25,342.94s-.06-.02-.1-.03c.03,0,.06.02.1.03Z"/><path class="cls-3" d="M156.42,343.2c-.08-.02-.16-.03-.23-.05.08.02.15.03.23.05Z"/><path class="cls-3" d="M157.62,343.41s-.06,0-.09-.01c.03,0,.06,0,.09.01Z"/><path class="cls-3" d="M159.07,343.59c-.1,0-.19-.02-.28-.03.09.01.19.02.28.03Z"/><path class="cls-3" d="M154.41,342.72c-.05-.01-.1-.03-.15-.04.05.01.1.03.15.04Z"/><path class="cls-3" d="M254.64,273.5c1.7-2.69,2.85-4.34,2.9-4.41,0-.01.45-.52,1.07-1.43,1.23-2.15,2.12-4.16,2.76-6.1-1.59,4.56-4.06,7.35-4.07,7.37-.06.08-2.07,2.97-4.74,7.39.7-.99,1.39-1.94,2.09-2.83,0,0,0,0,0,0Z"/><path class="cls-3" d="M136.58,187.56c-1.41-1.9-2.72-4.02-3.85-6.23,1.13,2.25,2.42,4.33,3.85,6.23Z"/><path class="cls-3" d="M182.96,238.1c.07,3.69.64,7.9,2,12.62-2.64-10.15-2.3-21.66,2.32-30.89-1.02,1.99-2.46,5-3.39,9.08-.61,2.94-.92,6.02-.93,9.19Z"/><path class="cls-3" d="M190.33,214.43c-.21.27-.41.56-.62.84-.59,1.03-1.13,2.03-1.91,3.56-.02.05-.05.1-.08.15.82-1.53,1.76-2.99,2.83-4.36,2.6-3.33,4.64-7.27,6.23-11.39-.39.68-.76,1.31-1.1,1.91-1.44,3.35-3.2,6.54-5.36,9.3Z"/><path class="cls-3" d="M259.33,231.9c-1.13-2.47-2.09-4.7-2.93-6.78-.69-1.46-1.27-2.64-1.64-3.37,1.12,3.01,2.53,6.38,4.31,10.28,2.58,5.65,3.64,11.06,3.89,15.81,0-1.12-.02-2.26-.02-3.43-.51-3.9-1.6-8.12-3.6-12.5Z"/><path class="cls-3" d="M299.18,290.13s.01-.08.02-.12c0,.04-.01.06-.01.06,0,.02,0,.04,0,.06Z"/><path class="cls-3" d="M137.86,189.18c-.42-.5-.83-1.01-1.23-1.55.4.53.81,1.05,1.23,1.55Z"/><path class="cls-3" d="M283.22,312.75c-2.82-11.91-.46-25.19-.43-25.36l.17-.94-.45.85c-3.54,6.7-9.55,24.27-9.78,39.38.09.32.19.63.28.93-.01-14.67,5.7-31.98,9.34-39.35-.5,3.36-1.94,15.29.89,25.78-.01-.44-.02-.87-.03-1.29Z"/><path class="cls-3" d="M307.15,200.66c-10-12.39-7.42-25.35-7.39-25.49.27-1.86.46-3.63.61-5.33h-.29c-.14,1.68-.34,3.44-.6,5.28,0,.03-.16.82-.26,2.17-.04.5-.05,1-.06,1.49,0,.15,0,.3,0,.46,0,.37,0,.73.02,1.1,0,.22.02.44.03.66.38,6.84,3.09,12.94,6.17,17.77.48.69,1,1.39,1.55,2.08,1.23,1.52,2.51,3.01,3.75,4.45,1.01,1.17,2.01,2.34,2.99,3.52.86.82,1.4,1.26,1.4,1.26-1.33-1.69-2.74-3.32-4.17-4.98-1.24-1.44-2.52-2.92-3.74-4.44Z"/><path class="cls-3" d="M189.75,352.52l.1.25s0,0,0,0c-.14-.35-.28-.7-.41-1.05.1.27.19.53.3.8Z"/><path class="cls-3" d="M189.39,351.56c-.41-1.14-.73-2.26-.97-3.35-.05-.21-.1-.42-.15-.63.25,1.3.62,2.63,1.12,3.98Z"/><path class="cls-3" d="M179.13,339.62c-.12.09-.23.18-.34.27.68,2.7,2.28,5.12,4.08,7.13-.62-.77-1.2-1.61-1.67-2.51-.93-1.38-1.67-2.99-2.06-4.89Z"/><path class="cls-3" d="M189.71,215.27c-2.77,3.83-4.75,8.5-5.82,13.65.94-4.08,2.38-7.09,3.39-9.08.14-.29.29-.58.44-.86.02-.05.05-.1.08-.15.78-1.52,1.32-2.52,1.91-3.56Z"/><path class="cls-3" d="M202.2,172.43c0,.08-.03,2.3-.33,5.78-.56,6.5-2.08,17.39-6.18,26.91.35-.6.71-1.23,1.1-1.91,3.5-9.05,4.85-18.94,5.38-25,.3-3.48.03-5.79.03-5.79Z"/><path class="cls-3" d="M198.98,274.47c9.42,12.03,11.33,23.04,5.83,33.52-1.71,3.25-3.94,6.47-6.3,9.89-3.52,5.09-7.16,10.35-9.24,16.06-2.27,6.23-2.29,12.11-.07,17.97-1.12-1.31-5.31-3.37-8-7.4.48.9,1.05,1.74,1.67,2.51,1.82,2.03,3.82,3.65,5.25,4.72.91.58,1.56.94,1.74,1.03l-.1-.25c-.11-.27-.2-.53-.3-.8-.02-.05-.04-.11-.06-.16-.5-1.35-.87-2.68-1.12-3.98-.68-2.99-.65-5.71-.16-8.42,1.53-9.71,8.71-18.24,15.34-28.21.57-.94,1.12-1.88,1.61-2.82,5.05-9.64,3.93-19.71-3.47-30.58-.84-1.1-1.71-2.12-2.6-3.06,0,0-.01-.01-.02-.02Z"/><path class="cls-3" d="M183.14,242.37c.89,10.42,4.9,20.09,11.01,26.52.09.1.18.2.28.3-1.18-1.5-2.17-2.88-2.99-4.09-.83-1.17-1.6-2.43-2.32-3.74-.2-.36-.35-.65-.47-.86-.01-.02-.02-.05-.04-.07-.12-.23-.18-.37-.18-.37-.01-.03-.03-.06-.04-.1-1.42-2.86-2.58-5.98-3.43-9.24-1.36-4.72-1.93-8.92-2-12.62,0,1.41.05,2.83.18,4.27Z"/><path class="cls-3" d="M186.16,328.7c-3.06,5.83-5.39,8.77-7.53,10.45.03.15.06.3.09.45,2.22-1.68,5.07-4.86,7.44-10.89Z"/><path class="cls-3" d="M179.11,339.52c1.99-1.9,5.42-5.84,7.34-10.76.36-.92.77-3.06.77-3.06-.34,1.07-.69,2.07-1.06,3-2.37,6.03-5.22,9.22-7.44,10.89.02.1.05.2.07.3.11-.08.23-.17.34-.27,0-.04-.02-.07-.03-.11Z"/><path class="cls-3" d="M249.78,200.33c-.43-2.78-.88-5.65-1.53-9.03-1.12-5.81-1.13-13.85-.75-21.45h-.29c-.38,7.62-.36,15.68.76,21.51.65,3.38,1.1,6.25,1.53,9.02.43,2.74.83,5.31,1.38,7.98.78,3.2,1.69,6.58,2.75,10.14.35,1.04.73,2.11,1.15,3.24.37.74.95,1.92,1.64,3.37-4.45-10.93-5.44-17.2-6.62-24.79Z"/><path class="cls-3" d="M274.72,352.88c-4.15-.3-9.14-1.47-15.47-3.87-3.22-1.22-5.95-2.8-8.27-4.62.97.86,1.99,1.67,3.05,2.43,1.59.94,3.28,1.77,5.11,2.47,5.33,2.02,9.71,3.14,13.41,3.63.71.01,1.43,0,2.16-.03Z"/><path class="cls-3" d="M239.16,310.81c.76-12.51,10.5-29.41,15.48-37.31,0,0,0,0,0,0-.69.88-1.39,1.83-2.09,2.83-3.64,6.04-8.5,14.94-11.36,23.57-1.27,4.33-2.15,8.8-2.43,13.23-.13,4.69.23,8.98,1.06,12.88.52,2.05,1.23,4.07,2.12,6.03-2.72-6.88-3.2-14.54-2.79-21.22Z"/><path class="cls-3" d="M262.61,258.02c.65-3.58,1.03-8.29.32-13.62,0,1.17.01,2.31.02,3.43.2,3.9-.13,7.35-.63,10.13-.23,1.3-.57,2.51-.96,3.61-.64,1.94-1.53,3.95-2.76,6.1,1.23-1.79,3.19-5.19,4-9.65Z"/><path class="cls-3" d="M287.67,349s.07,0,.1,0h-.1Z"/><path class="cls-3" d="M325.69,208.14s-.13-.16-.37-.45c1.04,1.24,2.01,2.52,2.83,3.8-1.31-2.19-2.46-3.35-2.46-3.35Z"/><path class="cls-3" d="M323.99,206.18c-2.55-2.83-7.77-8.19-14.1-12.31,2.45,1.76,8.94,6.61,14.1,12.31Z"/><path class="cls-3" d="M324.77,207.05c.12.14.24.28.36.42-.11-.13-.23-.26-.36-.42Z"/><path class="cls-3" d="M314.09,259.05c.52-.79,1.05-1.58,1.61-2.38h0s-.34.39-.92,1.11c-.22.41-.44.83-.68,1.28Z"/><path class="cls-3" d="M318.86,331.38s.03,0,.04,0h0s-.03,0-.04,0Z"/><path class="cls-3" d="M302.42,280.53c-6.37,11.58-5.89,27.62,1.17,39,3.66,5.91,8.48,9.84,14.3,11.83-.05-.02-.68-.35-1.7-1-4.97-2.16-9.19-5.87-12.36-10.98-5.22-8.43-6.81-19.43-4.65-29.25,0-.02,0-.04,0-.06,0,0,0-.02.01-.06,0-.03.01-.06.02-.08.04-.16.11-.46.23-.88.41-1.64.93-3.23,1.55-4.78.43-1.19.96-2.54,1.59-4.04-.06.1-.11.2-.17.3Z"/><path class="cls-3" d="M318.86,331.38c-.09,0-.17,0-.25,0,.08,0,.17,0,.25,0Z"/><path class="cls-3" d="M318.61,331.37c-.21,0-.41,0-.63,0,.11,0,.32,0,.63,0Z"/><path class="cls-3" d="M317.91,331.37s.05,0,.07,0c-.04,0-.06,0-.07,0h0Z"/><path class="cls-3" d="M323.94,331.39c.2,0,.4,0,.6,0h0c-.2,0-.39,0-.6,0h0Z"/><path class="cls-3" d="M287.67,349v-.03c-.32,0-.64-.02-.95-.04.13.05.23.08.35.13.2-.02.4-.04.6-.05Z"/><path class="cls-3" d="M287.65,349.26s0,0,0,0v-.26c-.19.02-.39.03-.6.05.21.08.41.15.59.21Z"/><path class="cls-3" d="M287.06,349.05c.21-.02.41-.04.6-.05h0c-.2.02-.4.04-.6.05h0Z"/><path class="cls-3" d="M282.49,346.85s.02,0,.03.01l.1-.27c-.49-.18-.96-.39-1.43-.6.03.02.05.04.08.06.41.29.82.56,1.22.81Z"/><path class="cls-3" d="M190.48,331.69c.06-.12.13-.24.12-.22,0-.03,0-.06.02-.09-.05.1-.09.21-.14.32Z"/><path class="cls-3" d="M190.62,331.37c-.07.15-.13.3-.2.44.02-.04.04-.08.06-.13.05-.1.09-.21.14-.32Z"/><path class="cls-3" d="M189.68,333.63c-.21.54-.4,1.09-.57,1.64.18-.55.37-1.1.57-1.64Z"/><path class="cls-3" d="M190.35,332c-.21.47-.4.95-.59,1.42.18-.48.38-.95.59-1.42Z"/><path class="cls-3" d="M189.08,335.35h0s.02-.05.03-.08c.18-.55.37-1.1.57-1.64.03-.07.05-.14.08-.21.18-.48.38-.95.59-1.42.03-.06.05-.12.07-.18-.96,1.89-1.35,3.53-1.35,3.53Z"/><path class="cls-7" d="M163.29,170.1c-.73,8.49-.13,14.1.94,18.6-.72-3.93-1.16-7.8-1.07-12.05-.01-1.95.05-4.3.14-6.55Z"/><path class="cls-7" d="M162.93,170.97c-.67,6.55-.72,13.44,1.49,20.64.47,1.53.94,3,1.4,4.42-.28-1.15-.54-2.28-.79-3.39-1.63-5.08-2.91-11.1-2.1-21.67Z"/><path class="cls-7" d="M167.7,203.83c-.65-2.77-1.29-5.34-1.88-7.79-.45-1.42-.93-2.89-1.4-4.42-2.21-7.21-2.16-14.09-1.49-20.64.03-.37.06-.75.09-1.13h-.28c-.12,1.34-.21,2.86-.25,4.64-.11,4.49-.24,10.59,1.38,19.25,0,0-2.64-10.56-3.12-23.89h-.09c-.02,3.84.04,11.58.7,18.42,0,0-1.71-8.1-1.63-18.42h-1.32c-.32,7.1.55,15.68,2.89,28.23,3.97,21.22-7.61,38.95-7.61,38.95,0,0,12.06-12.66,11.59-34.92,0,0,3.56,16.82-4.2,27.18,0,0,1.67-1.45,3.46-4.3,2.63-6.2,3.7-11.38,3.89-15.71-.07-1.79-.3-3.61-.73-5.44Z"/><path class="cls-7" d="M165.6,223.12c.67-1.28,1.31-2.74,1.84-4.41.45-1.89.77-3.8.92-5.73-.45,3.02-1.31,6.38-2.76,10.14Z"/><path class="cls-7" d="M164.23,188.7c.25,1.06.53,2.06.82,3.02-.73-3.06-1.57-7.54-1.84-12.87-.03-.63-.05-1.38-.05-2.2-.08,4.25.35,8.12,1.07,12.05Z"/><path class="cls-7" d="M168.73,209.07c.06,1.08.05,2.18-.03,3.3.15-1.62.17-3.36.04-5.21.01.62,0,1.25-.02,1.91Z"/><path class="cls-7" d="M168.41,205.98c-.2-3.4-.92-6.2-1.72-8.51-.17-.51-.35-1.01-.53-1.52-.38-1.09-.76-2.18-1.13-3.32.25,1.11.51,2.24.79,3.39,1.11,3.46,2.08,6.67,2.59,9.95Z"/><path class="cls-7" d="M167.7,203.83c.43,1.83.66,3.65.73,5.44.05-1.15.04-2.25-.02-3.29-.51-3.28-1.49-6.48-2.59-9.95.59,2.46,1.23,5.02,1.88,7.79Z"/><path class="cls-7" d="M168.73,209.07c-.05,1.23-.17,2.54-.37,3.91-.15,1.93-.47,3.84-.92,5.73.6-1.87,1.06-3.99,1.27-6.34.08-1.12.08-2.22.03-3.3Z"/><path class="cls-7" d="M162.93,170.97c-.81,10.57.47,16.58,2.1,21.67-.3-1.33-.57-2.64-.81-3.94-1.07-4.5-1.66-10.11-.94-18.6,0-.09,0-.17.01-.26h-.25c-.04.38-.08.75-.12,1.13Z"/><path class="cls-7" d="M168.43,209.27c-.19,4.33-1.26,9.5-3.89,15.71.35-.56.71-1.18,1.06-1.85,1.45-3.76,2.31-7.13,2.76-10.14.1-1.23.12-2.47.07-3.71Z"/><path class="cls-7" d="M163.02,169.84c-.03.38-.06.76-.09,1.13.04-.38.08-.75.12-1.13h-.03Z"/><path class="cls-7" d="M165.04,192.64c.37,1.14.75,2.23,1.13,3.32.18.5.35,1.01.53,1.52.8,2.31,1.52,5.11,1.72,8.51.16,1.02.27,2.05.32,3.09.03-.66.03-1.29.02-1.91-.24-3.33-.98-7.02-2.46-11.07,0,0-.57-1.61-1.23-4.36-.29-.96-.57-1.96-.82-3.02.24,1.3.51,2.61.81,3.94Z"/><path class="cls-7" d="M168.43,209.27c.05,1.25.03,2.48-.07,3.71.2-1.37.33-2.68.37-3.91-.05-1.04-.16-2.07-.32-3.09.06,1.04.07,2.13.02,3.29Z"/><path class="cls-2" d="M208,306.95c-8.33,14.94,1.82,39.48,13.77,50.75-10.02-20.24-8.4-27-8.4-27,.91,3.26,7.31,8.57,7.31,8.57-2.29-5.79,4.36-19.37,4.11-29.72-.25-10.35-16.78-2.6-16.78-2.6Z"/><path class="cls-2" d="M211.24,310.32c-8.33,14.94,1.82,39.48,13.77,50.75-10.02-20.24-8.4-27-8.4-27,.91,3.26,7.31,8.57,7.31,8.57-2.29-5.79,4.36-19.37,4.11-29.72-.25-10.35-16.78-2.6-16.78-2.6Z"/><path class="cls-11" d="M196.84,128.17c-22.66-16.12-63.38,12.34-49.82,57.42,13.56,45.08,6.76,88.99,6.76,88.99l43.05-146.41Z"/><path class="cls-11" d="M174.03,129.25s-17.17-5.34-31.39,4.78c4.89.34,12.05,1.59,12.05,1.59-5.46.45-8.53,4.66-8.53,4.66,3.87-1.59,7.85,4.15,12.17.82,4.32-3.32,20.81-3.74,20.81-3.74l-5.12-8.11Z"/><path class="cls-3" d="M181.17,128.74s-19.44-6.59-32.81,2.05c8.81-2.11,15.19-2.05,19.44-1.23-8,.75-9.81,3-9.81,3,2.19-.69,18.75.69,24.06,4.87,5.31,4.19-.87-8.69-.87-8.69Z"/><path class="cls-3" d="M137.3,171.82c-6.85,5.3-7.86,21.72-9.09,27.76-1.23,6.04-14.92,20.21-2.97,50.3,11.95,30.09,49.02-43.08,49.02-43.08l-36.96-34.98Z"/><path class="cls-2" d="M139.07,166.57c-2.98,17.34-4.81,20.8-12.09,39.05-7.28,18.25-4.29,39.42,7.76,54.4,12.05,14.98,22.5-87.2,22.5-87.2l-18.17-6.25Z"/><circle class="cls-10" cx="147.98" cy="170.58" r="31.17"/><path class="cls-5" d="M176.7,170.74c0,15.67-12.7,28.36-28.36,28.36-5.87,0-11.33-1.78-15.86-4.84-1.85-1.25-10-5.76-12.45-18.3,24.09,7.7,39.3-31.54,42.28-29.97,9.01,4.75,14.39,13.86,14.39,24.75Z"/><circle class="cls-12" cx="150.46" cy="172.19" r="20.11"/><circle class="cls-10" cx="301.58" cy="170.58" r="31.17"/><path class="cls-5" d="M272.86,170.74c0,15.67,12.7,28.36,28.36,28.36,5.87,0,11.33-1.78,15.86-4.84,1.85-1.25,10-5.76,12.45-18.3-24.09,7.7-39.3-31.54-42.28-29.97-9.01,4.75-14.39,13.86-14.39,24.75Z"/><circle class="cls-12" cx="299.09" cy="172.19" r="20.11"/><path class="cls-10" d="M315.77,221.59c0,50.47-40.92,91.39-91.39,91.39-38.3,0-71.1-23.56-84.69-56.99-1.08-2.65-2.04-5.37-2.87-8.14-2.49-8.32-3.83-17.13-3.83-26.26,0-32.18,16.63-60.47,41.76-76.75,14.29-9.26,31.34-14.64,49.64-14.64,50.47,0,91.39,40.92,91.39,91.39Z"/><path class="cls-5" d="M313.13,221.57c0,49.02-39.74,88.75-88.75,88.75-37.2,0-69.05-22.88-82.25-55.34-1.05-2.58-1.98-5.22-2.79-7.91-2.42-8.08-3.72-16.64-3.72-25.5,0,0,10.65,83.33,85.71,83.33s91.79-66.57,91.79-83.33Z"/><path class="cls-12" d="M238.03,249.71c0,5-6.11,12.37-13.65,12.37s-13.65-6.73-13.65-12.37c0-3.57,3.29-8.23,13.65-8.23,11.44,0,13.65,4.67,13.65,8.23Z"/><path class="cls-9" d="M232.15,247.05c0,.58-1.93,1.72-7.77,1.72s-7.77-1.15-7.77-1.72,2.17-1.92,7.77-1.92,7.77,1.34,7.77,1.92Z"/><path class="cls-12" d="M195.05,211.66c0,5.24-4.25,9.49-9.49,9.49s-12.72-6.06-12.72-11.3,7.48-7.67,12.72-7.67,9.49,4.25,9.49,9.49Z"/><circle class="cls-9" cx="185.93" cy="207.46" r="4.01"/><path class="cls-12" d="M275.61,209.25c0,5.24-7.1,11.9-12.34,11.9s-9.49-4.25-9.49-9.49,4.25-9.49,9.49-9.49,12.34,1.84,12.34,7.08Z"/><circle class="cls-9" cx="263.64" cy="207.46" r="4.01"/><path class="cls-15" d="M148.36,130.79c-3.73.27-5.92,3.21-5.92,3.21,0,0,8.33-.05,12.81,1.57-5.14.54-5.64,1.29-5.64,1.29,0,0,11.81-.04,19.02,6.88,7.21,6.92,11.84-9.48,11.84-9.48l-12.15-6.43s-13.91.44-19.96,2.95Z"/><path class="cls-3" d="M172.31,134c-6.43-2.16-14.32-1.45-14.32-1.45,1.66-2.33,9.81-3,9.81-3-3.38-1.28-14.46-.69-19.44,1.23,7.39-5.58,19.33-5.13,22.68-3.97,3.34,1.16,1.27,7.18,1.27,7.18Z"/><path class="cls-15" d="M322.34,182.95c4.45,6.46,13.75,15.05,18.86,18.35-3.02-.38-7.67-2.9-7.67-2.9,1.91,3.72,15.96,11.47,19.2,12.87-12.96,1.72-53.38-10.29-70.69-16.42-17.32-6.13-48.16-10.95-60.53-17.02-12.38-6.07,5.44-14.01,5.44-14.01l45.93-5.38,49.48,24.51Z"/><path class="cls-7" d="M323.39,198.76c-19.4-.83-54.93-13.82-54.93-13.82l6.34-9.27,38.15,7.28,10.45,15.8Z"/><path class="cls-15" d="M282.71,136.92c15.67,9.8,19.53,20.1,26.33,24.75-6.99-.53-72.47-32.94-72.47-32.94l-8.52-14.02,54.66,22.22Z"/><path class="cls-7" d="M333.52,196.76c-7.2-4.93-12.83-19.64-29.4-36.8-7.48-7.75-17.47-15.21-28.35-22.22-17.03-10.97-36.49-20.1-53.88-21.75-2.98,6.59,19.68,19.58,19.68,19.58,0,0,58.16,40.09,61.41,47.38,3.26,7.29.71,10.25,6.17,13.04,9.63,4.92,24.37.76,24.37.76Z"/><path class="cls-3" d="M227.26,116.73s24.17,5.22,44.47,22.68c20.3,17.46,40.78,41,46.72,46.19-19.17,1.32-64.67-3.89-64.67-3.89l-58.24-27.95s-18.95-3.21-22.99-9.89c-1.24-2.05,7.36-8.47,7.61-10.09,1.1-6.86,47.1-17.06,47.1-17.06Z"/><path class="cls-3" d="M301.45,152.22c-13.59-7.37-36.68-26.82-65.4-32.66-17.67-.64-52.36,16.23-52.36,16.23,0,0,7.79-20.32,26.84-26.16,19.05-5.84,56.11-1.59,77.16,21.29l-14.25-6.09s8.08,5.29,11.61,9.73,16.39,17.65,16.39,17.65Z"/><path class="cls-4" d="M189.08,121.08s15.57-22.41,35.92-25.14c22.77-3.05,49.86,14.97,49.86,14.97,0,0-24.33-11.15-44.37-7.07-20.04,4.08-41.41,17.24-41.41,17.24Z"/><path class="cls-7" d="M183.07,121.08c8.98-16.96,24.31-24.7,30.26-26.24-13.85,8.57-25.51,20.38-27.94,34.4-3.6,3.69-9.87,5.32-9.87,5.32l7.54-13.48Z"/><path class="cls-3" d="M179.66,136.03c1.79-8.74,19.32-29.98,43.69-34.84,24.37-4.86,51.51,9.72,51.51,9.72-16.9-4.93-66.54-8.9-86.58,22.69l-8.62,2.43Z"/><path class="cls-4" d="M183.7,135.79c5.85-2.14,17.43-1.49,27.68,2.48-3.46-3.49-18.95-9.12-30.91-1.84,1.17-.65,3.23-.64,3.23-.64Z"/><path class="cls-3" d="M212.49,88.93c-14.54,8.59-28.78,28.1-31.49,42.79,0,.45-1.36,6.03-1.36,6.03l-7.09,6.13c-3.23-19.61-2.72-28.46-.52-35.6,1.9-5.42,3.1-3.3,3.1-3.3,0,0-2.62,14.69-1.61,18.91,5.83-10.02,22.1-32.16,38.97-34.95Z"/><path class="cls-4" d="M182.19,93.6c-4.15,5.94-6.71,9.65-8.99,27.48-1.43-5.73-1.36-11.77-1.09-13.53.27-1.76,6.64-12.46,10.08-13.96Z"/><path class="cls-3" d="M168.87,122.3c0-20.15,13.31-28.7,13.31-28.7-3.83,2.52-10.73,14.35-9.72,20.61l-2.71,8.74-.88-.65Z"/><path class="cls-7" d="M174.24,144.03c4.19-.87,10.35-6.29,37.09-1.2,24.06,4.58,22.43,19.82,78.27,32.16.81.39,2.23,1.83,2.23,1.83-.95.59-3.89.69-3.89.69,0,0,6.72,3.26,9.02,3.94,2.29.68-37.56,1.49-37.56,1.49l-57.13-18.14-29.71-20.94,1.69.16Z"/><path class="cls-14" d="M234.26,161.67c6.61,4.92,18.65,8.01,31.03,11,12.38,2.99,22.29,5.31,27.24,3.55l4.43-1.63s-4.75,1.37-9.5.52c-4.75-.85-25.12-4.17-34.36-7.29-9.24-3.12-18.83-6.15-18.83-6.15Z"/><path class="cls-14" d="M177.35,146.48s11.67-5.87,26.57,0c14.9,5.87,29.88,17.77,37.88,22.76s12.66,6.59,20.56,8.96c7.9,2.36,20.09,7.86,26.31,11.2,6.22,3.34,8.31,5.49,17.12,6.6-12.88-2.33-52.01-12.61-52.01-12.61l-71.86-28.31-4.57-8.59Z"/><path class="cls-15" d="M285.76,183.38s15.22,11.93,35.85,9.28c-22.03-3.38-35.85-9.28-35.85-9.28Z"/><path class="cls-4" d="M211.94,163.82c5.61,2.19,18.01,4.86,25.76,8.84,7.75,3.98,22.42,8.35,29.59,13.49,7.17,5.14-21.21-5.95-21.21-5.95l-33.1-14.48-1.03-1.9Z"/><path class="cls-7" d="M182.51,148.99c7.04,3.96,18.87,10.89,31.28,15.54,12.4,4.65,21.41,10.21,34.93,14.52,13.52,4.31,27.37,11.77,40.89,14.58-11.26.42-33.03-6.53-46.93-10.65-13.9-4.12-30.52-10.14-39.44-17.86-8.92-7.72-19.04-12.17-19.04-12.17l-1.69-3.97Z"/><path class="cls-14" d="M250.84,193.32c-8.6-1.77-26.1-6.61-33.51-11.06s-24.22-15.79-30.54-22.17c-6.33-6.38-5.13-8.09-5.13-8.09,0,0,5.19,1.51,8.18,3.83,2.99,2.32,14.62,11.27,14.62,11.27,0,0,13.9,9.23,17.89,10.88,3.99,1.65,12.82,6.39,12.82,6.39l16.6,8.15-.92.78Z"/><path class="cls-7" d="M183.7,152.7s16.26,16.52,48.57,31.45c-3-3.59-12.45-8.91-12.45-8.91,0,0-17.03-10.08-20.68-13.64-4.17-3.39-5.34-3.74-5.34-3.74l-10.1-5.16Z"/><path class="cls-7" d="M202.27,174.1c10.8,7.85,30.81,19.16,57.36,20.75-5.09-1.85-9.65-3.01-9.65-3.01-10.07-.95-28.46-7.72-36.86-13.74-9.87-5.47-10.84-4-10.84-4Z"/><path class="cls-15" d="M190.05,133c-16.9,1.17-22.1,16.98-22.1,16.98,3.54-1.92,5.38-3.31,6.7-1.09,1.32,2.22,8.89,13.24,28.39,25.71,3.11,1.93,10.08,3.51,10.08,3.51,0,0-13.25-7.73-27.94-23.93,6.71,5.12,21.23,13.58,27.1,17.59,5.86,4.01,29.3,20,47.36,23.08-18.87-6.4-27.05-14.08-27.05-14.08l-1.15-1.47s-14.68-5-24.21-12.07c-9.53-7.07-17.79-14.99-28.06-20.02,4.73-4.63,15.7-5.57,15.7-5.57-10.94-.26-18.63,3.16-18.63,3.16,0,0,1.43-7.96,13.83-11.8Z"/><path class="cls-7" d="M165.22,146.56c-7.41,1.44-19.99,14.55-25.5,28.03,14.65-17.82,25.32-22.52,25.32-22.52l8.47-4.54c-.11-.44-.52-.82-.52-.82l-4.23-1.12-3.54.97Z"/><path class="cls-15" d="M172.99,146.71s-2.68-3.08-6.52-3.49-12.9,1.8-20.14,10.54c5.66-4.37,12.16-5.98,12.16-5.98l7.56-2.39,6.94,1.32Z"/><path class="cls-15" d="M174.63,160.72c-12.49,11.47-25.27,27.95-30.74,53.75-7.53,1.51,16.73-56.17,16.73-56.17l17.17-4.35,2.96,2.61-.41.21c-2.07,1.06-3.99,2.38-5.7,3.95Z"/><path class="cls-14" d="M173.52,147.54c-10.4.04-18.11,7.71-18.11,7.71,4.55-1.77,7.29-2.15,7.29-2.15l-4.53,3.1-12.95,19.89s-14.54,39.35-20.33,50.09c-5.79,10.74-17.23,14.42-17.23,14.42,0,0,21.33-2.15,36.25-26.13.03-12.31,9.68-31.89,17.98-44.31,8.31-12.42,18.88-13.6,18.88-13.6,0,0-3.95-6.68-7.24-9.02Z"/><path class="cls-4" d="M159.53,155.12c-7.34,6.17-22.89,45.16-26.21,54.06-3.32,8.9-10.51,25.15-25.68,31.43-.86.26-2.31.22-2.31.22,0,0,7.03-6.14,15.08-18.26,11.83-17.8,14.73-27.07,15.12-27.83-10.57,12.75-27.89,24.09-27.89,24.09,0,0,13.25-10.24,23.49-25.4,10.24-15.16,19.71-31.97,28.4-38.32Z"/><path class="cls-15" d="M117.84,232.63c-4.04,4.27-10.19,7.97-10.19,7.97,0,0,10.54-3.58,16.92-9.3,6.39-5.72,11.38-14.17,15.03-21.23,3.65-7.06,17.26-39.5,17.26-39.5,0,0-10.51,14.68-12.7,18.75-2.19,4.08-8.73,19.93-11.91,24.72-3.18,4.79-14.41,18.58-14.41,18.58Z"/><path class="cls-7" d="M156.86,170.58s-10.65,9.78-19.06,29.06c-10.63,24.37-19.96,33-19.96,33,0,0,11.1-8.88,15.36-17.29,8.4-16.6,18.71-38.19,23.66-44.77Z"/><path class="cls-14" d="M172.99,146.71c-4.54-1-20.12,2.55-24.63,5.99,3.72-6.29,17.45-10.03,24.63-5.99Z"/><path class="cls-7" d="M204.31,131.08c17.29,1.04,42.35,23.03,59.9,23.34-20.05-7.36-30.34-22.25-59.9-23.34Z"/><path class="cls-7" d="M170.51,114.83c-3.35,4.09-.9,20.86,1.49,27.92,1.1.63,1.2.88,1.2.88,0,0-1.93-9.46-2.43-15s1.78-14.8,1.78-14.8c0,0-2.27,4.31-2.67,5.84-.2-1.93.63-4.84.63-4.84Z"/><path class="cls-4" d="M203.37,92.17s-22.97,15.14-29.45,40.83c-.9-2.86-.72-11.92-.72-11.92,13.68-23.49,30.17-28.91,30.17-28.91Z"/><path class="cls-7" d="M247.94,115.54c10.54,5.1,23.11,9.14,30.1,17.45-.7-3.49-3.56-5.93-3.56-5.93,3.7,1.68,20.11,25.57,35.54,28.77-13.76-8.66-27.93-26.54-29.54-28.08-1.61-1.54-25.07-13.27-32.54-12.22Z"/><path class="cls-8" d="M172.91,180.21c-16.15,0-29.01,3.23-29.01,8.97s-.95,16.4.39,22.48c3.25,14.81,15.51,28.77,23.7,30.24,8.19,1.46,28.16-.68,34.82-7.3s13.87-16.49,14.59-23.6c.72-7.11-23.36-30.79-44.49-30.79Z"/><path class="cls-8" d="M277.64,180.21c16.15,0,29.01,3.23,29.01,8.97s.95,16.4-.39,22.48c-3.25,14.81-15.51,28.77-23.7,30.24-8.19,1.46-28.16-.68-34.82-7.3-6.67-6.61-13.87-16.49-14.59-23.6-.72-7.11,23.36-30.79,44.49-30.79Z"/><path d="M314.64,182.19c-.16-3.29-17.58-3.42-20.79-3.42-24.33,0-46.55,4.26-62.79,22.26-2.99,3.31-8.88,3.31-11.87,0-27.71-30.72-83.38-22.2-83.58-18.1-.86,17.47,5.42,60.86,41.04,61.71,36.01.85,36.94-29.14,47.28-29.14h2.4c10.34,0,11.27,29.99,47.28,29.14,31.91-.76,42.25-37.99,41.04-62.44ZM178,240.8c-23.55,0-30.69-23.69-30.69-47.05,0-7.76,1.56-7.43,20.04-7.43,19.41,0,45.67,5.32,45.67,24.38s-16.31,30.1-35.02,30.1ZM272.25,240.8c-18.71,0-35.02-11.21-35.02-30.1,0-23.17,38.54-26.3,61.57-23.85,1.21.13,2.83.66,3.32,1.96,1.89,5,2.84,51.98-29.87,51.98Z"/><path class="cls-12" d="M243.83,286.03c-1.9-4.89-5.97-11.42-9.64-14.39-3.57-2.9-6.7-2.3-10.97-2.23-3.08.05-6.66-.21-9.66,1.9-1.1.77-8.63,9.43-9.87,12.29-2.74,6.33-2.62,13-.18,16.41,1.15,1.61,3.14,1.9,4.89,1.9,1.64,0,3.11-.21,4.82-1.14.63-.34,1.29-.78,2.01-1.35,4.08-3.25,11.72-3.66,16.93,1.25,5.21,4.9,16.21-2.88,11.66-14.63Z"/><path class="cls-9" d="M224.99,276.67c4.13.45,7.4.55,9.61-.75-5.93-3.96-13.55-5.1-20.44-1.1-1.06.61-2.05,1.3-2.97,2.04.6.37,1.34.73,2.17.93,2.26.55,6.32-1.7,11.63-1.12Z"/><path class="cls-12" d="M242.9,285.52c-1.83-3.88-4.76-7.24-8.29-9.6-2.21,1.3-5.48,1.2-9.61.75-5.31-.58-9.37,1.67-11.63,1.12-.83-.2-1.57-.56-2.17-.93-7.6,6.08-10.58,15.82-7.15,19.75,1.11,1.27,3.03,1.51,4.72,1.51,1.58,0,3-.17,4.65-.91.02-.02,3.71-5.18,9.45-5.39,5.75-.21,8.81,5.31,8.81,5.31,5.02,3.89,15.63-2.28,11.24-11.61Z"/><path class="cls-6" d="M222.86,291.82c-5.74.21-9.43,5.37-9.45,5.39.61-.27,1.24-.62,1.93-1.07,3.93-2.58,11.3-2.9,16.32.99,0,0-3.05-5.52-8.81-5.31Z"/></svg>