<?xml version="1.0" encoding="UTF-8"?>
<svg width="1676" height="2008" viewBox="0 0 1676 2008" fill="none" xmlns="http://www.w3.org/2000/svg">
  <path d="M1550.88,529.491c99.07-118.4,112.61-319.317-5.79-418.382-56.86-47.556-130.27-70.58-204.1-64.007-73.83,6.573-142.03,42.204-189.59,99.056" fill="#edb558" stroke="#000" stroke-linecap="round" stroke-linejoin="round" stroke-width="91.186"/>
  <path d="M130.63,504.843C31.565,386.443,7.523,210.183,125.85,111.154c56.842-47.569,130.25-70.611,204.08-64.059,73.83,6.553,142.033,42.163,189.608,99" fill="#edb558" stroke="#000" stroke-linecap="round" stroke-linejoin="round" stroke-width="91.186"/>
  <path d="M831.722,1593.07c410.598,0,743.458-332.86,743.458-743.456S1242.32,106.158,831.722,106.158,88.266,439.014,88.266,849.614s332.857,743.456,743.456,743.456Z" fill="#edb558" stroke="#000" stroke-linecap="round" stroke-linejoin="round" stroke-width="91.186"/>
  <path d="M830.021,1312.53l3.44-244.87" fill="none" stroke="#000" stroke-linecap="round" stroke-linejoin="round" stroke-width="91.186"/>
  <path d="M995.454,889.552h-310.664" fill="none" stroke="#000" stroke-linecap="round" stroke-linejoin="round" stroke-width="91.186"/>
  <path d="M830.02,1064.65l-145.23-175.098" fill="none" stroke="#000" stroke-linecap="round" stroke-linejoin="round" stroke-width="91.186"/>
  <path d="M995.454,889.552l-145.229,175.098" fill="none" stroke="#000" stroke-linecap="round" stroke-linejoin="round" stroke-width="91.186"/>
  <path d="M1111.21,1067.69c.42,36.97-6.5,73.66-20.35,107.93-13.86,34.28-34.38,65.47-60.37,91.76s-56.944,47.16-91.06,61.4c-34.116,14.25-70.719,21.58-107.689,21.58s-73.574-7.33-107.69-21.58c-34.116-14.24-65.067-35.11-91.06-61.4-25.993-26.29-46.512-57.48-60.368-91.76-13.856-34.27-20.774-70.96-20.353-107.93" fill="none" stroke="#000" stroke-linecap="round" stroke-linejoin="round" stroke-width="91.186"/>
  <path d="M544.232,735.631c15.018,0,27.192-12.175,27.192-27.192s-12.174-27.193-27.192-27.193-27.192,12.175-27.192,27.193,12.174,27.192,27.192,27.192Z" stroke="#000" fill="#000" stroke-linecap="round" stroke-linejoin="round" stroke-width="91.186"/>
  <path d="M1111.21,735.631c15.02,0,27.19-12.175,27.19-27.192s-12.17-27.193-27.19-27.193-27.19,12.175-27.19,27.193,12.17,27.192,27.19,27.192Z" stroke="#000" fill="#000" stroke-linecap="round" stroke-linejoin="round" stroke-width="91.186"/>
  <path d="M195.804,1805.33v27.76h-100.401v-27.76h100.401ZM122.932,1983v-198.26c0-11.1,2.429-20.32,7.287-27.64,4.859-7.41,11.298-12.92,19.317-16.54,8.02-3.71,16.734-5.56,26.142-5.56,6.94,0,12.878.58,17.813,1.74,4.935,1.08,8.598,2.08,10.988,3.01l-8.096,27.99c-1.62-.46-3.702-1-6.247-1.62-2.544-.69-5.629-1.04-9.253-1.04-8.406,0-14.42,2.08-18.045,6.24-3.547,4.17-5.321,10.18-5.321,18.05v193.63h-34.585ZM278.156,1986.59c-16.656,0-31.192-3.82-43.607-11.46-12.415-7.63-22.054-18.31-28.918-32.04-6.863-13.72-10.294-29.76-10.294-48.11s3.431-34.55,10.294-48.35c6.864-13.81,16.503-24.53,28.918-32.16,12.415-7.63,26.951-11.45,43.607-11.45s31.193,3.82,43.608,11.45c12.415,7.63,22.054,18.35,28.917,32.16,6.863,13.8,10.295,29.92,10.295,48.35s-3.432,34.39-10.295,48.11c-6.863,13.73-16.502,24.41-28.917,32.04-12.415,7.64-26.951,11.46-43.608,11.46ZM278.272,1957.55c10.796,0,19.741-2.85,26.835-8.56,7.095-5.7,12.338-13.3,15.731-22.78,3.471-9.49,5.206-19.94,5.206-31.35,0-11.34-1.735-21.75-5.206-31.23-3.393-9.56-8.636-17.24-15.731-23.02-7.094-5.78-16.039-8.67-26.835-8.67-10.873,0-19.895,2.89-27.067,8.67-7.094,5.78-12.376,13.46-15.846,23.02-3.393,9.48-5.09,19.89-5.09,31.23,0,11.41,1.697,21.86,5.09,31.35,3.47,9.48,8.752,17.08,15.846,22.78,7.172,5.71,16.194,8.56,27.067,8.56ZM453.247,1986.59c-17.197,0-32.002-3.9-44.417-11.69-12.339-7.86-21.823-18.7-28.455-32.5-6.632-13.8-9.948-29.61-9.948-47.42,0-18.05,3.393-33.97,10.179-47.78,6.786-13.88,16.348-24.71,28.686-32.5,12.338-7.79,26.874-11.68,43.608-11.68,13.494,0,25.524,2.5,36.089,7.52,10.564,4.93,19.085,11.87,25.563,20.82,6.554,8.94,10.448,19.39,11.682,31.34h-33.66c-1.85-8.32-6.092-15.5-12.723-21.51-6.555-6.02-15.346-9.02-26.373-9.02-9.639,0-18.083,2.54-25.332,7.63-7.171,5.01-12.762,12.18-16.772,21.52-4.01,9.25-6.015,20.2-6.015,32.85,0,12.95,1.967,24.13,5.9,33.54,3.932,9.41,9.485,16.69,16.656,21.86,7.249,5.17,15.77,7.75,25.563,7.75,6.555,0,12.492-1.19,17.813-3.58,5.398-2.47,9.909-5.98,13.534-10.53,3.701-4.55,6.284-10.03,7.749-16.43h33.66c-1.234,11.49-4.974,21.75-11.22,30.77-6.246,9.02-14.613,16.12-25.1,21.29-10.41,5.16-22.633,7.75-36.667,7.75ZM654.594,1909.32v-103.99h34.701v177.67h-34.007v-30.77h-1.851c-4.087,9.49-10.641,17.39-19.663,23.71-8.946,6.25-20.088,9.37-33.429,9.37-11.413,0-21.515-2.5-30.305-7.52-8.714-5.08-15.577-12.6-20.59-22.55-4.935-9.95-7.403-22.25-7.403-36.9v-113.01h34.586v108.85c0,12.1,3.354,21.74,10.063,28.91,6.709,7.18,15.423,10.76,26.141,10.76,6.478,0,12.917-1.62,19.317-4.86,6.478-3.24,11.837-8.13,16.078-14.69,4.319-6.55,6.439-14.88,6.362-24.98ZM847.729,1848.71l-31.347,5.55c-1.31-4.01-3.393-7.83-6.246-11.45-2.776-3.63-6.554-6.59-11.335-8.91-4.781-2.31-10.758-3.47-17.929-3.47-9.794,0-17.968,2.2-24.522,6.59-6.555,4.32-9.832,9.91-9.832,16.78,0,5.93,2.198,10.72,6.593,14.34,4.396,3.62,11.49,6.59,21.283,8.91l28.224,6.47c16.348,3.78,28.532,9.6,36.551,17.47,8.02,7.87,12.03,18.08,12.03,30.65,0,10.64-3.085,20.13-9.254,28.46-6.091,8.25-14.612,14.73-25.563,19.43-10.873,4.7-23.481,7.06-37.824,7.06-19.895,0-36.127-4.25-48.696-12.73-12.57-8.56-20.281-20.7-23.134-36.43l33.428-5.09c2.082,8.71,6.362,15.3,12.839,19.78,6.478,4.39,14.922,6.59,25.332,6.59,11.336,0,20.397-2.35,27.182-7.06,6.786-4.78,10.179-10.6,10.179-17.46,0-5.55-2.082-10.22-6.246-14-4.087-3.78-10.371-6.63-18.854-8.56l-30.074-6.59c-16.579-3.78-28.84-9.79-36.783-18.05-7.866-8.25-11.798-18.7-11.798-31.34,0-10.49,2.93-19.67,8.791-27.53,5.86-7.87,13.957-14,24.29-18.39,10.333-4.48,22.17-6.71,35.511-6.71,19.201,0,34.315,4.16,45.342,12.49,11.028,8.25,18.315,19.32,21.862,33.2ZM935.86,1983v-236.89h34.585v88.02h2.082c2.005-3.7,4.897-7.98,8.675-12.84,3.779-4.85,9.023-9.1,15.732-12.72,6.706-3.7,15.576-5.55,26.606-5.55,14.34,0,27.14,3.62,38.4,10.87,11.26,7.25,20.09,17.7,26.49,31.35,6.48,13.65,9.71,30.07,9.71,49.27s-3.2,35.67-9.6,49.39c-6.4,13.65-15.19,24.18-26.37,31.58-11.18,7.33-23.94,10.99-38.29,10.99-10.79,0-19.62-1.81-26.484-5.44-6.786-3.62-12.107-7.86-15.962-12.72-3.856-4.86-6.825-9.18-8.907-12.96h-2.891v27.65h-33.776ZM969.751,1894.17c0,12.49,1.812,23.44,5.437,32.85,3.624,9.4,8.868,16.77,15.731,22.09,6.863,5.24,15.271,7.86,25.211,7.86,10.34,0,18.97-2.73,25.91-8.21,6.94-5.55,12.19-13.07,15.74-22.55,3.62-9.49,5.43-20.17,5.43-32.04,0-11.73-1.77-22.25-5.32-31.58-3.47-9.33-8.71-16.7-15.73-22.1-6.94-5.39-15.61-8.09-26.03-8.09-10.02,0-18.502,2.58-25.443,7.75-6.863,5.16-12.068,12.37-15.615,21.63-3.547,9.25-5.321,20.05-5.321,32.39ZM1192.38,1986.59c-17.5,0-32.58-3.74-45.23-11.22-12.56-7.56-22.28-18.16-29.14-31.81-6.79-13.73-10.18-29.81-10.18-48.24,0-18.2,3.39-34.24,10.18-48.12,6.86-13.88,16.42-24.71,28.68-32.5,12.34-7.79,26.76-11.68,43.26-11.68,10.03,0,19.74,1.66,29.15,4.97,9.41,3.32,17.85,8.52,25.33,15.62,7.48,7.09,13.38,16.31,17.7,27.64,4.32,11.26,6.48,24.95,6.48,41.06v12.27h-141.23v-25.91h107.34c0-9.1-1.85-17.16-5.56-24.18-3.7-7.09-8.9-12.68-15.61-16.77-6.63-4.09-14.42-6.13-23.37-6.13-9.71,0-18.19,2.39-25.44,7.17-7.17,4.7-12.73,10.87-16.66,18.51-3.86,7.55-5.78,15.77-5.78,24.63v20.25c0,11.87,2.08,21.97,6.24,30.3,4.24,8.33,10.14,14.69,17.7,19.09,7.56,4.32,16.39,6.48,26.49,6.48,6.55,0,12.53-.93,17.93-2.78,5.4-1.93,10.06-4.78,13.99-8.56,3.94-3.78,6.94-8.44,9.03-14l32.73,5.9c-2.62,9.64-7.33,18.09-14.11,25.33-6.71,7.18-15.15,12.77-25.33,16.78-10.1,3.93-21.63,5.9-34.59,5.9ZM1337.51,1986.93c-11.25,0-21.43-2.08-30.53-6.24-9.1-4.24-16.31-10.38-21.63-18.39-5.25-8.02-7.87-17.86-7.87-29.5,0-10.03,1.93-18.28,5.78-24.75,3.86-6.48,9.07-11.61,15.62-15.39,6.55-3.78,13.88-6.63,21.98-8.56,8.09-1.93,16.35-3.39,24.75-4.39,10.64-1.24,19.28-2.24,25.91-3.01,6.63-.85,11.45-2.2,14.46-4.05s4.51-4.86,4.51-9.02v-.81c0-10.1-2.85-17.93-8.56-23.48-5.63-5.55-14.03-8.33-25.22-8.33-11.64,0-20.82,2.58-27.52,7.75-6.64,5.09-11.22,10.76-13.77,17l-32.5-7.4c3.85-10.8,9.48-19.51,16.89-26.14,7.48-6.71,16.07-11.57,25.79-14.58,9.72-3.08,19.93-4.62,30.65-4.62,7.1,0,14.62.85,22.56,2.54,8.02,1.62,15.5,4.63,22.44,9.02,7.01,4.4,12.76,10.69,17.23,18.86,4.47,8.1,6.71,18.62,6.71,31.58v117.98h-33.77v-24.29h-1.39c-2.24,4.47-5.59,8.87-10.07,13.19-4.47,4.31-10.21,7.9-17.23,10.75-7.02,2.86-15.42,4.28-25.22,4.28ZM1345.03,1959.17c9.56,0,17.74-1.89,24.52-5.67,6.87-3.77,12.07-8.71,15.62-14.8,3.62-6.17,5.44-12.76,5.44-19.78v-22.9c-1.24,1.23-3.63,2.39-7.18,3.47-3.47,1-7.44,1.89-11.91,2.66-4.47.69-8.83,1.35-13.07,1.96-4.24.54-7.79,1.01-10.64,1.39-6.71.85-12.84,2.28-18.39,4.28-5.48,2.01-9.87,4.9-13.19,8.68-3.24,3.7-4.86,8.63-4.86,14.8,0,8.56,3.16,15.04,9.49,19.43,6.32,4.32,14.38,6.48,24.17,6.48ZM1450.08,1983v-177.67h33.43v28.22h1.85c3.24-9.56,8.95-17.08,17.12-22.55,8.25-5.55,17.58-8.33,27.99-8.33,2.16,0,4.71.08,7.64.23,3.01.16,5.36.35,7.06.58v33.08c-1.39-.38-3.86-.81-7.41-1.27-3.55-.54-7.09-.81-10.64-.81-8.17,0-15.46,1.74-21.86,5.21-6.32,3.39-11.34,8.13-15.04,14.22-3.7,6.02-5.55,12.88-5.55,20.59v108.5h-34.59Z" fill="#000"/>
</svg>
