<svg width="25" height="26" viewBox="0 0 25 26" fill="none" xmlns="http://www.w3.org/2000/svg">
<g clip-path="url(#clip0_2022_113)">
<path d="M24.7022 13.2339C24.7022 12.2097 24.6191 11.4622 24.4392 10.6871H12.7434V15.31H19.6086C19.4702 16.4589 18.7228 18.189 17.0618 19.3516L17.0385 19.5064L20.7365 22.3712L20.9927 22.3968C23.3457 20.2237 24.7022 17.0264 24.7022 13.2339Z" fill="#4285F4"/>
<path d="M12.7433 25.4141C16.1067 25.4141 18.9303 24.3067 20.9927 22.3967L17.0617 19.3516C16.0098 20.0852 14.598 20.5973 12.7433 20.5973C9.44915 20.5973 6.65325 18.4243 5.65659 15.4208L5.51051 15.4332L1.66528 18.409L1.61499 18.5488C3.66346 22.6181 7.87119 25.4141 12.7433 25.4141Z" fill="#34A853"/>
<path d="M5.6567 15.4208C5.39372 14.6457 5.24153 13.8152 5.24153 12.957C5.24153 12.0988 5.39372 11.2684 5.64287 10.4933L5.6359 10.3282L1.74248 7.30457L1.6151 7.36516C0.770824 9.0538 0.286377 10.9501 0.286377 12.957C0.286377 14.964 0.770824 16.8602 1.6151 18.5488L5.6567 15.4208Z" fill="#FBBC05"/>
<path d="M12.7433 5.3167C15.0825 5.3167 16.6603 6.3271 17.56 7.17147L21.0757 3.73884C18.9165 1.73187 16.1067 0.5 12.7433 0.5C7.87119 0.5 3.66346 3.2959 1.61499 7.36517L5.64276 10.4933C6.65325 7.48979 9.44915 5.3167 12.7433 5.3167Z" fill="#EB4335"/>
</g>
<defs>
<clipPath id="clip0_2022_113">
<rect width="25" height="25" fill="white" transform="translate(0 0.5)"/>
</clipPath>
</defs>
</svg>
