<svg width="32" height="30" viewBox="0 0 32 30" fill="none" xmlns="http://www.w3.org/2000/svg">
<path d="M8.4 10.1375L13.5733 15L8.38667 19.8625C7.86667 20.35 7.86667 21.1375 8.38667 21.625C8.90667 22.1125 9.74667 22.1125 10.2667 21.625L16.3867 15.8875C16.9067 15.4 16.9067 14.6125 16.3867 14.125L10.2667 8.3875C9.74667 7.9 8.90667 7.9 8.38667 8.3875C7.88 8.8625 7.88 9.6625 8.4 10.1375ZM22.6667 22.5C21.9333 22.5 21.3333 21.9375 21.3333 21.25L21.3333 8.75C21.3333 8.0625 21.9333 7.5 22.6667 7.5C23.4 7.5 24 8.0625 24 8.75L24 21.25C24 21.9375 23.4 22.5 22.6667 22.5Z" fill="currentColor"/>
</svg>
