<?xml version="1.0" encoding="UTF-8"?>
<svg id="focusbear" xmlns="http://www.w3.org/2000/svg" version="1.1" viewBox="0 0 450 450">
  <circle cx="134.38" cy="100.58" r="50.58"/>
  <circle cx="134.38" cy="100.57" r="36.75" fill="#ecb559"/>
  <circle cx="315.62" cy="102.09" r="50.58"/>
  <circle cx="315.62" cy="102.09" r="36.75" fill="#ecb559"/>
  <path d="M271.8,182.65c-6.85,0-12.42-5.57-12.42-12.42s5.57-12.37,12.42-12.37,12.37,5.57,12.37,12.37-5.57,12.42-12.37,12.42h0ZM177.38,157.86c6.85,0,12.42,5.57,12.42,12.37s-5.57,12.42-12.42,12.42-12.37-5.57-12.37-12.42,5.57-12.37,12.37-12.37ZM347.69,153.05c-1.37-4.09-3-8.14-4.81-12.05-.47-1.14-1.05-2.28-1.61-3.42-11.52-23.17-30.08-42.3-52.91-54.63-.86-.47-1.76-.96-2.66-1.37-4.05-2.09-8.23-3.95-12.52-5.57h-.05c-14.08-5.37-29.3-8.32-45.31-8.32s-32.26,3.14-46.68,8.85c-3.47,1.34-6.8,2.81-10.09,4.47-1,.47-1.95.96-2.95,1.52-22.09,11.7-40.27,29.74-52.01,51.73-.38.67-.72,1.34-1.05,2.05-1.23,2.37-2.37,4.81-3.42,7.27-6.51,15.04-10.13,31.6-10.13,49.02,0,68.99,56.58,124.91,126.34,124.91s126.34-55.91,126.34-124.91c0-13.8-2.28-27.13-6.48-39.55" fill="#ecb559"/>
  <path d="M224.97,278.67h-.11c-4.35-.07-7.82-3.63-7.76-7.98l.58-40.76c.07-4.35,3.72-7.76,7.98-7.76,4.35.07,7.82,3.63,7.76,7.98l-.58,40.76c-.07,4.31-3.57,7.76-7.86,7.76h-.02Z"/>
  <path d="M252.51,208.27h-51.7c-4.35,0-7.86-3.53-7.86-7.88s3.53-7.88,7.86-7.88h51.7c4.35,0,7.86,3.53,7.86,7.88s-3.53,7.88-7.86,7.88Z"/>
  <path d="M224.97,237.41c-2.26,0-4.51-.97-6.07-2.84l-24.16-29.13c-2.78-3.34-2.31-8.31,1.04-11.08,3.34-2.8,8.29-2.32,11.08,1.04l24.16,29.13c2.78,3.34,2.31,8.29-1.04,11.08-1.47,1.22-3.25,1.83-5.02,1.83h0s0-.02,0-.02Z"/>
  <path d="M228.32,237.41c-1.77,0-3.55-.59-5.02-1.83-3.34-2.78-3.81-7.73-1.04-11.08l24.16-29.13c2.78-3.35,7.73-3.82,11.09-1.04,3.34,2.78,3.81,7.73,1.04,11.08l-24.16,29.13c-1.56,1.87-3.8,2.84-6.07,2.84h0v.02Z"/>
  <path d="M225.26,284.44c-29.99,0-54.39-24.4-54.39-54.39,0-4.35,3.53-7.88,7.86-7.88s7.86,3.53,7.86,7.88c0,21.31,17.34,38.63,38.65,38.63s38.65-17.34,38.65-38.63c0-4.35,3.53-7.88,7.86-7.88s7.86,3.53,7.86,7.88c0,29.99-24.4,54.39-54.39,54.39h.04Z"/>
  <path d="M109.39,193.74c0-21.32,5.76-41.31,15.9-58.44v-.05c12.05-20.6,30.26-37.07,52.11-47.01,14.61-6.66,30.84-10.38,47.88-10.38,18.89,0,36.79,4.57,52.58,12.61,24.6,12.61,44.16,33.69,54.63,59.43,5.61,13.51,8.67,28.3,8.67,43.83,0,63.9-51.97,115.87-115.87,115.87s-115.87-51.97-115.87-115.87h0s-.02,0-.02,0ZM349.92,151.73c-1.43-4.38-3.09-8.61-5.04-12.75-.58-1.37-1.23-2.71-1.9-4.05-11.47-22.79-29.32-41.82-51.21-54.68-.9-.58-1.86-1.14-2.77-1.61-4.05-2.28-8.28-4.32-12.56-6.13-15.76-6.66-33.07-10.38-51.21-10.38-16.46,0-32.21,3.04-46.72,8.61-4.24,1.58-8.32,3.38-12.32,5.43-.96.47-1.95.96-2.91,1.48-21.45,11.52-39.4,28.79-51.68,49.78-1.61,2.71-3.09,5.51-4.47,8.38h-.05c-1.14,2.28-2.19,4.57-3.14,6.95-6.66,15.7-10.33,32.94-10.33,51.01,0,72.57,59.06,131.63,131.63,131.63s131.63-59.06,131.63-131.63c0-14.71-2.42-28.83-6.95-42.01h0Z"/>
  <path d="M189.81,170.23c0,6.85-5.57,12.42-12.42,12.42s-12.37-5.57-12.37-12.42,5.57-12.37,12.37-12.37,12.42,5.57,12.42,12.37Z"/>
  <path d="M271.8,182.65c-6.85,0-12.42-5.57-12.42-12.42s5.57-12.37,12.42-12.37,12.37,5.57,12.37,12.37-5.57,12.42-12.37,12.42h0Z"/>
  <rect x="201.11" y="310.61" width="47.43" height="63.24"/>
  <rect x="201.11" y="321.13" width="47.43" height="42.2" fill="#e98f2d"/>
  <path d="M134.09,399.99c-6.51,0-11.8-.24-11.8-6.75v-102.12c0-6.51,5.28-6.75,11.8-6.75,20.51,0,38.38,7.04,47.21,11.23,25.46,12.11,25.46,21.64,25.46,24.77v43.62c0,12.66-19.16,21.77-25.46,24.77-8.82,4.2-26.7,11.23-47.21,11.23h0Z"/>
  <path d="M134.09,296.17v46.01h0v46.01c31.22,0,60.87-18.83,60.87-24.21v-21.81h0v-21.81c0-5.36-29.67-24.21-60.87-24.21h0v.02Z" fill="#e98f2d"/>
  <path d="M172.11,335.92h24.34c3.36,0,6.08,2.72,6.08,6.08h0c0,3.36-2.72,6.08-6.08,6.08h-24.34c-3.36,0-6.08-2.72-6.08-6.08h0c0-3.36,2.72-6.08,6.08-6.08h0Z"/>
  <path d="M315.54,284.37c6.51,0,11.8.24,11.8,6.75v102.12c0,6.51-5.28,6.75-11.8,6.75-20.51,0-38.38-7.04-47.21-11.23-25.46-12.11-25.46-21.64-25.46-24.77v-43.62c0-12.66,19.18-21.77,25.46-24.77,8.82-4.2,26.7-11.23,47.21-11.23h0Z"/>
  <path d="M315.54,388.2v-46.01h0v-46.01c-31.22,0-60.87,18.83-60.87,24.21v21.81h0v21.81c0,5.36,29.67,24.21,60.87,24.21h0v-.02Z" fill="#e98f2d"/>
  <path d="M277.54,348.44h-24.34c-3.36,0-6.08-2.72-6.08-6.08h0c0-3.36,2.72-6.08,6.08-6.08h24.34c3.36,0,6.08,2.72,6.08,6.08h0c0,3.36-2.72,6.08-6.08,6.08Z"/>
</svg>
