<svg width="36" height="35" viewBox="0 0 36 35" fill="none" xmlns="http://www.w3.org/2000/svg">
<path d="M30.4332 22.3916C28.9215 22.9991 27.2706 23.3334 25.5417 23.3334C18.2929 23.3334 12.4167 17.4572 12.4167 10.2084C12.4167 8.47946 12.751 6.82858 13.3585 5.31689C8.53237 7.25637 5.125 11.9803 5.125 17.5001C5.125 24.7488 11.0013 30.6251 18.25 30.6251C23.7698 30.6251 28.4937 27.2177 30.4332 22.3916Z" stroke="#E9902C" stroke-width="2" stroke-linecap="round" stroke-linejoin="round"/>
<path d="M20.6888 2.97098V6.30431M19.0562 4.63764H22.3215M21.5051 14.6376V17.971M19.8725 16.3043H23.1378M27.2194 2.97098L29.0853 8.68526L33.75 10.471L29.0853 12.2567L27.2194 17.971L25.3535 12.2567L20.6888 10.471L25.3535 8.68526L27.2194 2.97098Z" stroke="#E9902C" stroke-width="2" stroke-linecap="round" stroke-linejoin="round"/>
</svg>
