<svg width="39" height="38" viewBox="0 0 39 38" fill="none" xmlns="http://www.w3.org/2000/svg">
<path d="M3 23.75C3 27.2478 5.83553 30.0833 9.33333 30.0833H23.5833C27.9556 30.0833 31.5 26.5389 31.5 22.1667C31.5 17.7944 27.9556 14.25 23.5833 14.25C23.5305 14.25 23.4778 14.2505 23.4253 14.2515C22.6924 10.6372 19.4972 7.91666 15.6667 7.91666C11.2944 7.91666 7.75 11.4611 7.75 15.8333C7.75 16.43 7.81601 17.0112 7.94112 17.5702C5.11306 18.2045 3 20.7305 3 23.75Z" stroke="#E9902C" stroke-width="2" stroke-linecap="round" stroke-linejoin="round"/>
<path d="M34.25 12V16M32.25 14H36.25" stroke="#E9902C" stroke-width="2" stroke-linecap="round" stroke-linejoin="round"/>
<path d="M27.25 4V8M25.25 6H29.25" stroke="#E9902C" stroke-width="2" stroke-linecap="round" stroke-linejoin="round"/>
</svg>
