<svg width="375" height="207" viewBox="0 0 375 207" fill="none" xmlns="http://www.w3.org/2000/svg">
<g clip-path="url(#clip0_58769_4177)">
<path d="M393 81.0068V229.632C393 233.705 389.713 237 385.649 237L-10.6493 236.982C-14.7131 236.982 -18 233.687 -18 229.614V80.9887C-18 78.1646 -16.3745 75.5757 -13.8459 74.3629C-11.2993 73.1319 -8.28319 73.4758 -6.07955 75.2499C-5.89894 75.3948 12.0359 89.5332 28.977 89.5332C43.119 89.5332 59.0669 79.2323 64.0156 75.2499C66.7067 73.0957 70.5174 73.0957 73.1908 75.2499C73.3534 75.3767 91.3063 89.5332 108.229 89.5332C113.648 89.5332 119.156 88.0849 124.159 86.1117C123.563 82.5816 123.256 78.9789 123.256 75.3765C123.256 39.8761 152.064 11 187.484 11C222.903 11 251.711 39.8747 251.711 75.3765C251.711 78.9972 251.404 82.5817 250.808 86.1298C255.811 88.103 261.319 89.5512 266.738 89.5512C283.679 89.5512 301.614 75.4126 301.794 75.268C304.467 73.1318 308.278 73.1318 310.969 75.268C311.132 75.4128 329.085 89.5512 346.008 89.5512C362.95 89.5512 380.884 75.4126 381.065 75.268C383.268 73.512 386.284 73.1681 388.831 74.3991C391.378 75.6301 392.985 78.2007 392.985 81.0249L393 81.0068ZM137.959 75.3769C137.959 76.5536 137.995 77.7303 138.085 78.8889C141.264 76.8432 143.233 75.3045 143.287 75.2501C145.96 73.114 149.771 73.114 152.462 75.2501C152.625 75.3769 170.578 89.5334 187.501 89.5334C204.442 89.5334 222.377 75.3947 222.557 75.2501C225.23 73.114 229.041 73.114 231.732 75.2501C231.787 75.2863 233.737 76.8432 236.934 78.8889C237.024 77.7122 237.061 76.5536 237.061 75.3769C237.061 48.0052 214.845 25.7192 187.518 25.7192C160.21 25.7192 137.975 47.9862 137.975 75.3769H137.959ZM378.315 196.159C369.935 200.829 358.123 205.844 346.022 205.844C329.731 205.844 313.945 196.738 306.396 191.651C298.846 196.738 283.06 205.844 266.769 205.844C250.478 205.844 234.693 196.738 227.143 191.651C219.594 196.738 203.808 205.844 187.517 205.844C171.226 205.844 155.44 196.738 147.891 191.651C140.341 196.738 124.556 205.844 108.265 205.844C91.9738 205.844 76.1881 196.738 68.6386 191.651C61.0891 196.738 45.3035 205.844 29.0125 205.844C16.9114 205.844 5.09935 200.829 -3.28104 196.159V222.264H378.333V196.159H378.315ZM378.315 162.052C369.935 166.723 358.123 171.737 346.022 171.737C329.731 171.737 313.945 162.632 306.396 157.544C298.846 162.632 283.06 171.737 266.769 171.737C250.478 171.737 234.693 162.632 227.143 157.544C219.594 162.632 203.808 171.737 187.517 171.737C171.226 171.737 155.44 162.632 147.891 157.544C140.341 162.632 124.556 171.737 108.265 171.737C91.9738 171.737 76.1881 162.632 68.6386 157.544C61.0891 162.632 45.3035 171.737 29.0125 171.737C16.9114 171.737 5.09935 166.723 -3.28104 162.052V178.834C2.40838 182.762 15.9904 191.108 29.0125 191.108C45.954 191.108 63.8887 176.969 64.0691 176.825C66.7602 174.688 70.5528 174.688 73.2443 176.825C73.2443 176.825 73.2473 176.827 73.2501 176.829C73.6522 177.144 91.4755 191.108 108.283 191.108C122.425 191.108 138.373 180.807 143.321 176.825C146.012 174.67 149.823 174.67 152.497 176.825C152.497 176.825 152.5 176.827 152.502 176.829C152.904 177.144 170.727 191.108 187.535 191.108C204.477 191.108 222.411 176.969 222.592 176.825C225.265 174.688 229.076 174.688 231.767 176.825C231.767 176.825 231.77 176.827 231.773 176.829C232.174 177.144 249.998 191.108 266.806 191.108C283.747 191.108 301.682 176.969 301.862 176.825C304.535 174.688 308.346 174.688 311.037 176.825C311.2 176.969 329.153 191.108 346.076 191.108C358.213 191.108 371.65 183.541 378.369 178.87V162.052H378.315ZM378.315 127.964C369.935 132.635 358.123 137.649 346.022 137.649C329.731 137.649 313.945 128.543 306.396 123.456C298.846 128.543 283.06 137.649 266.769 137.649C250.478 137.649 234.693 128.543 227.143 123.456C219.594 128.543 203.808 137.649 187.517 137.649C171.226 137.649 155.44 128.543 147.891 123.456C140.341 128.543 124.556 137.649 108.265 137.649C91.9738 137.649 76.1881 128.543 68.6386 123.456C61.0891 128.543 45.3035 137.649 29.0125 137.649C16.9114 137.649 5.09935 132.635 -3.28104 127.964V144.746C2.40838 148.674 15.9904 157.019 29.0125 157.019C45.954 157.019 63.8887 142.881 64.0691 142.736C66.7602 140.6 70.5528 140.6 73.2443 142.736C73.2443 142.736 73.2473 142.739 73.2501 142.741C73.6522 143.056 91.4754 157.019 108.283 157.019C122.425 157.019 138.373 146.719 143.321 142.736C146.012 140.582 149.823 140.582 152.497 142.736C152.497 142.736 152.5 142.739 152.502 142.741C152.904 143.055 170.727 157.019 187.535 157.019C204.477 157.019 222.411 142.881 222.592 142.736C225.265 140.6 229.076 140.6 231.767 142.736C231.767 142.736 231.77 142.739 231.773 142.741C232.174 143.055 249.998 157.019 266.806 157.019C283.747 157.019 301.682 142.881 301.862 142.736C304.535 140.6 308.346 140.6 311.037 142.736C311.2 142.881 329.153 157.019 346.076 157.019C358.213 157.019 371.65 149.452 378.369 144.782V127.964H378.315ZM378.315 94.5819C369.935 99.2524 358.123 104.267 346.022 104.267C329.731 104.267 313.945 95.1612 306.396 90.074C298.846 95.1612 283.06 104.267 266.769 104.267C250.478 104.267 234.693 95.1612 227.143 90.074C219.594 95.1612 203.808 104.267 187.517 104.267C171.226 104.267 155.44 95.1612 147.891 90.074C140.341 95.1612 124.556 104.267 108.265 104.267C91.9738 104.267 76.1881 95.1612 68.6386 90.074C61.0891 95.1612 45.3035 104.267 29.0125 104.267C16.9114 104.267 5.09935 99.2524 -3.28104 94.5819V110.658C2.40838 114.586 15.9904 122.931 29.0125 122.931C45.954 122.931 63.8887 108.793 64.0691 108.648C66.7602 106.512 70.5528 106.512 73.2443 108.648C73.2443 108.648 73.2473 108.651 73.2501 108.653C73.6522 108.968 91.4754 122.931 108.283 122.931C122.425 122.931 138.373 112.631 143.321 108.648C146.012 106.494 149.823 106.494 152.497 108.648C152.497 108.648 152.5 108.651 152.502 108.653C152.904 108.967 170.727 122.931 187.535 122.931C204.477 122.931 222.411 108.793 222.592 108.648C225.265 106.512 229.076 106.512 231.767 108.648C231.767 108.648 231.77 108.651 231.773 108.653C232.174 108.967 249.998 122.931 266.806 122.931C283.747 122.931 301.682 108.793 301.862 108.648C304.535 106.512 308.346 106.512 311.037 108.648C311.2 108.793 329.153 122.931 346.076 122.931C358.213 122.931 371.65 115.364 378.369 110.694V94.5819H378.315Z" fill="#E0E3EF" fill-opacity="0.43"/>
</g>
<g clip-path="url(#clip1_58769_4177)">
<path d="M393 -23.9932V124.632C393 128.705 389.713 132 385.649 132L-10.6493 131.982C-14.7131 131.982 -18 128.687 -18 124.614V-24.0113C-18 -26.8354 -16.3745 -29.4243 -13.8459 -30.6371C-11.2993 -31.8681 -8.28319 -31.5242 -6.07955 -29.7501C-5.89894 -29.6052 12.0359 -15.4668 28.977 -15.4668C43.119 -15.4668 59.0669 -25.7677 64.0156 -29.7501C66.7067 -31.9043 70.5174 -31.9043 73.1908 -29.7501C73.3534 -29.6233 91.3063 -15.4668 108.229 -15.4668C113.648 -15.4668 119.156 -16.9151 124.159 -18.8883C123.563 -22.4184 123.256 -26.0211 123.256 -29.6235C123.256 -65.1239 152.064 -94 187.484 -94C222.903 -94 251.711 -65.1253 251.711 -29.6235C251.711 -26.0028 251.404 -22.4183 250.808 -18.8702C255.811 -16.897 261.319 -15.4488 266.738 -15.4488C283.679 -15.4488 301.614 -29.5874 301.794 -29.732C304.467 -31.8682 308.278 -31.8682 310.969 -29.732C311.132 -29.5872 329.085 -15.4488 346.008 -15.4488C362.95 -15.4488 380.884 -29.5874 381.065 -29.732C383.268 -31.488 386.284 -31.8319 388.831 -30.6009C391.378 -29.3699 392.985 -26.7993 392.985 -23.9751L393 -23.9932ZM137.959 -29.6231C137.959 -28.4464 137.995 -27.2697 138.085 -26.1111C141.264 -28.1568 143.233 -29.6955 143.287 -29.7499C145.96 -31.886 149.771 -31.886 152.462 -29.7499C152.625 -29.6231 170.578 -15.4666 187.501 -15.4666C204.442 -15.4666 222.377 -29.6053 222.557 -29.7499C225.23 -31.886 229.041 -31.886 231.732 -29.7499C231.787 -29.7137 233.737 -28.1568 236.934 -26.1111C237.024 -27.2878 237.061 -28.4464 237.061 -29.6231C237.061 -56.9948 214.845 -79.2808 187.518 -79.2808C160.21 -79.2808 137.975 -57.0138 137.975 -29.6231H137.959ZM378.315 91.1588C369.935 95.8294 358.123 100.844 346.022 100.844C329.731 100.844 313.945 91.7381 306.396 86.6509C298.846 91.7381 283.06 100.844 266.769 100.844C250.478 100.844 234.693 91.7381 227.143 86.6509C219.594 91.7381 203.808 100.844 187.517 100.844C171.226 100.844 155.44 91.7381 147.891 86.6509C140.341 91.7381 124.556 100.844 108.265 100.844C91.9738 100.844 76.1881 91.7381 68.6386 86.6509C61.0891 91.7381 45.3035 100.844 29.0125 100.844C16.9114 100.844 5.09935 95.8294 -3.28104 91.1588V117.264H378.333V91.1588H378.315ZM378.315 57.0524C369.935 61.7229 358.123 66.7374 346.022 66.7374C329.731 66.7374 313.945 57.6317 306.396 52.5445C298.846 57.6317 283.06 66.7374 266.769 66.7374C250.478 66.7374 234.693 57.6317 227.143 52.5445C219.594 57.6317 203.808 66.7374 187.517 66.7374C171.226 66.7374 155.44 57.6317 147.891 52.5445C140.341 57.6317 124.556 66.7374 108.265 66.7374C91.9738 66.7374 76.1881 57.6317 68.6386 52.5445C61.0891 57.6317 45.3035 66.7374 29.0125 66.7374C16.9114 66.7374 5.09935 61.7229 -3.28104 57.0524V73.834C2.40838 77.7624 15.9904 86.1078 29.0125 86.1078C45.954 86.1078 63.8887 71.9692 64.0691 71.8246C66.7602 69.6884 70.5528 69.6884 73.2443 71.8246C73.2443 71.8246 73.2473 71.827 73.2501 71.8291C73.6522 72.1442 91.4755 86.1078 108.283 86.1078C122.425 86.1078 138.373 75.8069 143.321 71.8246C146.012 69.6703 149.823 69.6703 152.497 71.8246C152.497 71.8246 152.5 71.827 152.502 71.8291C152.904 72.1436 170.727 86.1078 187.535 86.1078C204.477 86.1078 222.411 71.9692 222.592 71.8246C225.265 69.6884 229.076 69.6884 231.767 71.8246C231.767 71.8246 231.77 71.827 231.773 71.8291C232.174 72.1436 249.998 86.1078 266.806 86.1078C283.747 86.1078 301.682 71.9692 301.862 71.8246C304.535 69.6884 308.346 69.6884 311.037 71.8246C311.2 71.9694 329.153 86.1078 346.076 86.1078C358.213 86.1078 371.65 78.5407 378.369 73.8702V57.0524H378.315ZM378.315 22.964C369.935 27.6346 358.123 32.649 346.022 32.649C329.731 32.649 313.945 23.5433 306.396 18.4561C298.846 23.5433 283.06 32.649 266.769 32.649C250.478 32.649 234.693 23.5433 227.143 18.4561C219.594 23.5433 203.808 32.649 187.517 32.649C171.226 32.649 155.44 23.5433 147.891 18.4561C140.341 23.5433 124.556 32.649 108.265 32.649C91.9738 32.649 76.1881 23.5433 68.6386 18.4561C61.0891 23.5433 45.3035 32.649 29.0125 32.649C16.9114 32.649 5.09935 27.6346 -3.28104 22.964V39.7456C2.40838 43.674 15.9904 52.0194 29.0125 52.0194C45.954 52.0194 63.8887 37.8808 64.0691 37.7362C66.7602 35.6 70.5528 35.6 73.2443 37.7362C73.2443 37.7362 73.2473 37.7386 73.2501 37.7407C73.6522 38.0558 91.4754 52.0194 108.283 52.0194C122.425 52.0194 138.373 41.7185 143.321 37.7362C146.012 35.5819 149.823 35.5819 152.497 37.7362C152.497 37.7362 152.5 37.7386 152.502 37.7407C152.904 38.0552 170.727 52.0194 187.535 52.0194C204.477 52.0194 222.411 37.8808 222.592 37.7362C225.265 35.6 229.076 35.6 231.767 37.7362C231.767 37.7362 231.77 37.7386 231.773 37.7407C232.174 38.0552 249.998 52.0194 266.806 52.0194C283.747 52.0194 301.682 37.8808 301.862 37.7362C304.535 35.6 308.346 35.6 311.037 37.7362C311.2 37.881 329.153 52.0194 346.076 52.0194C358.213 52.0194 371.65 44.4524 378.369 39.7818V22.964H378.315ZM378.315 -10.4181C369.935 -5.74755 358.123 -0.733139 346.022 -0.733139C329.731 -0.733139 313.945 -9.83881 306.396 -14.926C298.846 -9.83881 283.06 -0.733139 266.769 -0.733139C250.478 -0.733139 234.693 -9.83881 227.143 -14.926C219.594 -9.83881 203.808 -0.733139 187.517 -0.733139C171.226 -0.733139 155.44 -9.83881 147.891 -14.926C140.341 -9.83881 124.556 -0.733139 108.265 -0.733139C91.9738 -0.733139 76.1881 -9.83881 68.6386 -14.926C61.0891 -9.83881 45.3035 -0.733139 29.0125 -0.733139C16.9114 -0.733139 5.09935 -5.74755 -3.28104 -10.4181V5.65771C2.40838 9.58611 15.9904 17.9315 29.0125 17.9315C45.954 17.9315 63.8887 3.79285 64.0691 3.64825C66.7602 1.51207 70.5528 1.51207 73.2443 3.64825C73.2443 3.64825 73.2473 3.65063 73.2501 3.65279C73.6522 3.96783 91.4754 17.9315 108.283 17.9315C122.425 17.9315 138.373 7.6306 143.321 3.64825C146.012 1.494 149.823 1.494 152.497 3.64825C152.497 3.64825 152.5 3.65063 152.502 3.65279C152.904 3.96729 170.727 17.9315 187.535 17.9315C204.477 17.9315 222.411 3.79285 222.592 3.64825C225.265 1.51207 229.076 1.51207 231.767 3.64825C231.767 3.64825 231.77 3.65063 231.773 3.65279C232.174 3.96729 249.998 17.9315 266.806 17.9315C283.747 17.9315 301.682 3.79285 301.862 3.64825C304.535 1.51207 308.346 1.51207 311.037 3.64825C311.2 3.79308 329.153 17.9315 346.076 17.9315C358.213 17.9315 371.65 10.3644 378.369 5.69389V-10.4181H378.315Z" fill="#E0E3EF" fill-opacity="0.43"/>
</g>
<defs>
<clipPath id="clip0_58769_4177">
<rect width="411" height="132" fill="white" transform="translate(-18 105)"/>
</clipPath>
<clipPath id="clip1_58769_4177">
<rect width="411" height="112" fill="white" transform="translate(-18)"/>
</clipPath>
</defs>
</svg>
