<svg width="34" height="34" viewBox="0 0 34 34" fill="none" xmlns="http://www.w3.org/2000/svg">
<path d="M15 26.6667H18.3333V23.3333H15V26.6667ZM16.6667 0C7.46667 0 0 7.46667 0 16.6667C0 25.8667 7.46667 33.3333 16.6667 33.3333C25.8667 33.3333 33.3333 25.8667 33.3333 16.6667C33.3333 7.46667 25.8667 0 16.6667 0ZM16.6667 30C9.31667 30 3.33333 24.0167 3.33333 16.6667C3.33333 9.31667 9.31667 3.33333 16.6667 3.33333C24.0167 3.33333 30 9.31667 30 16.6667C30 24.0167 24.0167 30 16.6667 30ZM16.6667 6.66667C12.9833 6.66667 10 9.65 10 13.3333H13.3333C13.3333 11.5 14.8333 10 16.6667 10C18.5 10 20 11.5 20 13.3333C20 16.6667 15 16.25 15 21.6667H18.3333C18.3333 17.9167 23.3333 17.5 23.3333 13.3333C23.3333 9.65 20.35 6.66667 16.6667 6.66667Z" fill="white"/>
</svg>
